<svg xmlns="http://www.w3.org/2000/svg" xmlns:xlink="http://www.w3.org/1999/xlink" zoomAndPan="magnify" preserveAspectRatio="xMidYMid meet" version="1.0" viewBox="75.73 75.01 208.27 214.16"><defs><g/><clipPath id="05c6ca1ab9"><path d="M 144.960938 75.007812 L 215 75.007812 L 215 146.335938 L 144.960938 146.335938 Z M 144.960938 75.007812 " clip-rule="nonzero"/></clipPath><clipPath id="030bd6eabc"><path d="M 214.191406 75.007812 L 284 75.007812 L 284 146.335938 L 214.191406 146.335938 Z M 214.191406 75.007812 " clip-rule="nonzero"/></clipPath><clipPath id="a0491313e2"><path d="M 144.960938 217.664062 L 215 217.664062 L 215 288.992188 L 144.960938 288.992188 Z M 144.960938 217.664062 " clip-rule="nonzero"/></clipPath><clipPath id="a365464ea9"><path d="M 144.960938 146.335938 L 215 146.335938 L 215 217.664062 L 144.960938 217.664062 Z M 144.960938 146.335938 " clip-rule="nonzero"/></clipPath><clipPath id="12920ee81f"><path d="M 75.734375 75.007812 L 145.808594 75.007812 L 145.808594 146.335938 L 75.734375 146.335938 Z M 75.734375 75.007812 " clip-rule="nonzero"/></clipPath></defs><g clip-path="url(#05c6ca1ab9)"><path fill="#6aa4b0" d="M 144.960938 75.007812 L 214.476562 75.007812 L 214.476562 146.507812 L 144.960938 146.507812 Z M 144.960938 75.007812 " fill-opacity="1" fill-rule="nonzero"/></g><g fill="#f8f5f5" fill-opacity="1"><g transform="translate(153.450359, 112.031625)"><g><path d="M 4.8125 -2.140625 L 3.8125 -2.140625 L 3.8125 -3.8125 L 4.8125 -3.8125 L 4.8125 -4.390625 L 3.8125 -4.390625 L 3.8125 -5.984375 L 3.203125 -5.984375 L 3.203125 -4.390625 L 1.828125 -4.390625 L 1.828125 -5.984375 L 1.21875 -5.984375 L 1.21875 -4.390625 L 0.21875 -4.390625 L 0.21875 -3.8125 L 1.21875 -3.8125 L 1.21875 -2.140625 L 0.21875 -2.140625 L 0.21875 -1.5625 L 1.21875 -1.5625 L 1.21875 0 L 1.828125 0 L 1.828125 -1.5625 L 3.203125 -1.5625 L 3.203125 0 L 3.8125 0 L 3.8125 -1.5625 L 4.8125 -1.5625 Z M 1.828125 -2.140625 L 1.828125 -3.8125 L 3.203125 -3.8125 L 3.203125 -2.140625 Z M 1.828125 -2.140625 "/></g></g></g><g fill="#f8f5f5" fill-opacity="1"><g transform="translate(161.271205, 112.031625)"><g><path d="M 4.390625 -5.859375 L 4.328125 -5.296875 C 3.785156 -5.367188 3.265625 -5.40625 2.765625 -5.40625 C 2.253906 -5.40625 1.859375 -5.226562 1.578125 -4.875 C 1.304688 -4.53125 1.171875 -4.023438 1.171875 -3.359375 L 1.390625 -3.453125 C 1.460938 -3.484375 1.550781 -3.507812 1.65625 -3.53125 C 1.757812 -3.5625 1.867188 -3.585938 1.984375 -3.609375 C 2.097656 -3.640625 2.210938 -3.660156 2.328125 -3.671875 C 2.441406 -3.691406 2.550781 -3.703125 2.65625 -3.703125 C 3.976562 -3.703125 4.640625 -3.09375 4.640625 -1.875 C 4.640625 -1.238281 4.457031 -0.75 4.09375 -0.40625 C 3.738281 -0.0703125 3.226562 0.09375 2.5625 0.09375 C 1.15625 0.09375 0.453125 -0.929688 0.453125 -2.984375 C 0.453125 -4.023438 0.648438 -4.789062 1.046875 -5.28125 C 1.453125 -5.769531 2.023438 -6.015625 2.765625 -6.015625 C 3.253906 -6.015625 3.71875 -5.976562 4.15625 -5.90625 Z M 2.609375 -3.09375 C 2.503906 -3.09375 2.394531 -3.082031 2.28125 -3.0625 C 2.164062 -3.050781 2.050781 -3.03125 1.9375 -3 C 1.820312 -2.976562 1.710938 -2.953125 1.609375 -2.921875 C 1.515625 -2.898438 1.429688 -2.875 1.359375 -2.84375 L 1.15625 -2.75 C 1.164062 -2.0625 1.28125 -1.515625 1.5 -1.109375 C 1.726562 -0.710938 2.070312 -0.515625 2.53125 -0.515625 C 3 -0.515625 3.347656 -0.628906 3.578125 -0.859375 C 3.804688 -1.097656 3.921875 -1.425781 3.921875 -1.84375 C 3.921875 -2.269531 3.804688 -2.582031 3.578125 -2.78125 C 3.347656 -2.988281 3.023438 -3.09375 2.609375 -3.09375 Z M 2.609375 -3.09375 "/></g></g></g><g fill="#f8f5f5" fill-opacity="1"><g transform="translate(169.09205, 112.031625)"><g><path d="M 0.890625 0 L 1.34375 -1.59375 L 4 -1.59375 L 4.453125 0 L 5.140625 0 L 3.4375 -6.21875 L 1.921875 -6.21875 L 0.21875 0 Z M 2.90625 -5.625 L 3.859375 -2.21875 L 1.5 -2.21875 L 2.4375 -5.625 Z M 2.90625 -5.625 "/></g></g></g><g fill="#f8f5f5" fill-opacity="1"><g transform="translate(177.235961, 112.031625)"><g><path d="M 0.890625 0 L 1.34375 -1.59375 L 4 -1.59375 L 4.453125 0 L 5.140625 0 L 3.4375 -6.21875 L 1.921875 -6.21875 L 0.21875 0 Z M 2.90625 -5.625 L 3.859375 -2.21875 L 1.5 -2.21875 L 2.4375 -5.625 Z M 2.90625 -5.625 "/></g></g></g><g fill="#f8f5f5" fill-opacity="1"><g transform="translate(185.379874, 112.031625)"><g><path d="M 3.921875 0 L 3.921875 -1.15625 L 4.6875 -1.15625 L 4.6875 -1.765625 L 3.921875 -1.765625 L 3.921875 -3.625 L 3.234375 -3.625 L 3.234375 -1.765625 L 1.09375 -1.765625 L 2.796875 -5.921875 L 2.046875 -5.921875 L 0.359375 -1.703125 L 0.359375 -1.15625 L 3.234375 -1.15625 L 3.234375 0 Z M 3.921875 0 "/></g></g></g><g fill="#f8f5f5" fill-opacity="1"><g transform="translate(193.20072, 112.031625)"><g><path d="M 0.765625 0 L 0.765625 -6.21875 L 3.015625 -6.21875 C 3.628906 -6.21875 4.09375 -6.085938 4.40625 -5.828125 C 4.71875 -5.578125 4.875 -5.179688 4.875 -4.640625 C 4.875 -4.242188 4.804688 -3.9375 4.671875 -3.71875 C 4.535156 -3.5 4.332031 -3.328125 4.0625 -3.203125 C 4.726562 -2.972656 5.0625 -2.488281 5.0625 -1.75 C 5.0625 -1.125 4.894531 -0.675781 4.5625 -0.40625 C 4.226562 -0.132812 3.753906 0 3.140625 0 Z M 3.0625 -2.859375 L 1.453125 -2.859375 L 1.453125 -0.609375 L 3.109375 -0.609375 C 3.523438 -0.609375 3.835938 -0.691406 4.046875 -0.859375 C 4.253906 -1.035156 4.359375 -1.335938 4.359375 -1.765625 C 4.359375 -1.992188 4.3125 -2.1875 4.21875 -2.34375 C 4.132812 -2.5 4.019531 -2.609375 3.875 -2.671875 C 3.613281 -2.796875 3.34375 -2.859375 3.0625 -2.859375 Z M 2.984375 -5.609375 L 1.453125 -5.609375 L 1.453125 -3.453125 L 3.046875 -3.453125 C 3.429688 -3.453125 3.710938 -3.539062 3.890625 -3.71875 C 4.066406 -3.90625 4.15625 -4.1875 4.15625 -4.5625 C 4.15625 -4.9375 4.0625 -5.203125 3.875 -5.359375 C 3.6875 -5.523438 3.390625 -5.609375 2.984375 -5.609375 Z M 2.984375 -5.609375 "/></g></g></g><g fill="#f8f5f5" fill-opacity="1"><g transform="translate(201.52413, 112.031625)"><g><path d="M 2.5 -6.03125 C 3 -6.03125 3.398438 -5.9375 3.703125 -5.75 C 4.347656 -5.363281 4.671875 -4.40625 4.671875 -2.875 C 4.671875 -2.332031 4.625 -1.875 4.53125 -1.5 C 4.445312 -1.125 4.3125 -0.816406 4.125 -0.578125 C 3.945312 -0.335938 3.722656 -0.164062 3.453125 -0.0625 C 3.179688 0.0390625 2.867188 0.09375 2.515625 0.09375 C 2.148438 0.09375 1.832031 0.0390625 1.5625 -0.0625 C 1.300781 -0.164062 1.078125 -0.332031 0.890625 -0.5625 C 0.710938 -0.800781 0.578125 -1.113281 0.484375 -1.5 C 0.390625 -1.882812 0.34375 -2.359375 0.34375 -2.921875 C 0.34375 -3.484375 0.390625 -3.960938 0.484375 -4.359375 C 0.578125 -4.753906 0.710938 -5.078125 0.890625 -5.328125 C 1.066406 -5.578125 1.289062 -5.753906 1.5625 -5.859375 C 1.832031 -5.972656 2.144531 -6.03125 2.5 -6.03125 Z M 2.515625 -5.40625 C 2.171875 -5.40625 1.898438 -5.332031 1.703125 -5.1875 C 1.273438 -4.894531 1.0625 -4.117188 1.0625 -2.859375 C 1.0625 -2.421875 1.085938 -2.050781 1.140625 -1.75 C 1.203125 -1.445312 1.289062 -1.203125 1.40625 -1.015625 C 1.53125 -0.835938 1.679688 -0.707031 1.859375 -0.625 C 2.046875 -0.550781 2.265625 -0.515625 2.515625 -0.515625 C 2.765625 -0.515625 2.976562 -0.550781 3.15625 -0.625 C 3.34375 -0.707031 3.492188 -0.84375 3.609375 -1.03125 C 3.734375 -1.21875 3.820312 -1.46875 3.875 -1.78125 C 3.9375 -2.09375 3.96875 -2.476562 3.96875 -2.9375 C 3.96875 -3.394531 3.9375 -3.78125 3.875 -4.09375 C 3.820312 -4.414062 3.738281 -4.671875 3.625 -4.859375 C 3.507812 -5.054688 3.359375 -5.195312 3.171875 -5.28125 C 2.992188 -5.363281 2.773438 -5.40625 2.515625 -5.40625 Z M 2.515625 -5.40625 "/></g></g></g><g clip-path="url(#030bd6eabc)"><path fill="#2b4560" d="M 214.191406 75.007812 L 283.707031 75.007812 L 283.707031 146.507812 L 214.191406 146.507812 Z M 214.191406 75.007812 " fill-opacity="1" fill-rule="nonzero"/></g><g fill="#f8f5f5" fill-opacity="1"><g transform="translate(250.625038, 106.335491)"><g/></g></g><g fill="#f8f5f5" fill-opacity="1"><g transform="translate(223.004732, 118.67711)"><g><path d="M 4.8125 -2.140625 L 3.8125 -2.140625 L 3.8125 -3.8125 L 4.8125 -3.8125 L 4.8125 -4.390625 L 3.8125 -4.390625 L 3.8125 -5.984375 L 3.203125 -5.984375 L 3.203125 -4.390625 L 1.828125 -4.390625 L 1.828125 -5.984375 L 1.21875 -5.984375 L 1.21875 -4.390625 L 0.21875 -4.390625 L 0.21875 -3.8125 L 1.21875 -3.8125 L 1.21875 -2.140625 L 0.21875 -2.140625 L 0.21875 -1.5625 L 1.21875 -1.5625 L 1.21875 0 L 1.828125 0 L 1.828125 -1.5625 L 3.203125 -1.5625 L 3.203125 0 L 3.8125 0 L 3.8125 -1.5625 L 4.8125 -1.5625 Z M 1.828125 -2.140625 L 1.828125 -3.8125 L 3.203125 -3.8125 L 3.203125 -2.140625 Z M 1.828125 -2.140625 "/></g></g></g><g fill="#f8f5f5" fill-opacity="1"><g transform="translate(230.825577, 118.67711)"><g><path d="M 4.40625 -0.609375 L 4.40625 0 L 0.625 0 L 0.625 -0.578125 L 2.359375 -2.40625 C 2.503906 -2.5625 2.628906 -2.691406 2.734375 -2.796875 C 2.835938 -2.910156 2.925781 -3.015625 3 -3.109375 C 3.082031 -3.210938 3.15625 -3.304688 3.21875 -3.390625 C 3.28125 -3.484375 3.335938 -3.582031 3.390625 -3.6875 C 3.492188 -3.914062 3.546875 -4.140625 3.546875 -4.359375 C 3.546875 -4.742188 3.441406 -5.015625 3.234375 -5.171875 C 3.023438 -5.328125 2.695312 -5.40625 2.25 -5.40625 C 1.875 -5.40625 1.441406 -5.351562 0.953125 -5.25 L 0.71875 -5.203125 L 0.671875 -5.78125 C 1.234375 -5.9375 1.816406 -6.015625 2.421875 -6.015625 C 3.035156 -6.015625 3.492188 -5.890625 3.796875 -5.640625 C 4.109375 -5.390625 4.265625 -4.984375 4.265625 -4.421875 C 4.265625 -4.210938 4.238281 -4.019531 4.1875 -3.84375 C 4.144531 -3.675781 4.070312 -3.503906 3.96875 -3.328125 C 3.875 -3.160156 3.75 -2.984375 3.59375 -2.796875 C 3.4375 -2.617188 3.242188 -2.421875 3.015625 -2.203125 L 1.4375 -0.609375 Z M 4.40625 -0.609375 "/></g></g></g><g fill="#f8f5f5" fill-opacity="1"><g transform="translate(238.646422, 118.67711)"><g><path d="M 0.765625 0 L 0.765625 -6.21875 L 3.015625 -6.21875 C 3.628906 -6.21875 4.09375 -6.085938 4.40625 -5.828125 C 4.71875 -5.578125 4.875 -5.179688 4.875 -4.640625 C 4.875 -4.242188 4.804688 -3.9375 4.671875 -3.71875 C 4.535156 -3.5 4.332031 -3.328125 4.0625 -3.203125 C 4.726562 -2.972656 5.0625 -2.488281 5.0625 -1.75 C 5.0625 -1.125 4.894531 -0.675781 4.5625 -0.40625 C 4.226562 -0.132812 3.753906 0 3.140625 0 Z M 3.0625 -2.859375 L 1.453125 -2.859375 L 1.453125 -0.609375 L 3.109375 -0.609375 C 3.523438 -0.609375 3.835938 -0.691406 4.046875 -0.859375 C 4.253906 -1.035156 4.359375 -1.335938 4.359375 -1.765625 C 4.359375 -1.992188 4.3125 -2.1875 4.21875 -2.34375 C 4.132812 -2.5 4.019531 -2.609375 3.875 -2.671875 C 3.613281 -2.796875 3.34375 -2.859375 3.0625 -2.859375 Z M 2.984375 -5.609375 L 1.453125 -5.609375 L 1.453125 -3.453125 L 3.046875 -3.453125 C 3.429688 -3.453125 3.710938 -3.539062 3.890625 -3.71875 C 4.066406 -3.90625 4.15625 -4.1875 4.15625 -4.5625 C 4.15625 -4.9375 4.0625 -5.203125 3.875 -5.359375 C 3.6875 -5.523438 3.390625 -5.609375 2.984375 -5.609375 Z M 2.984375 -5.609375 "/></g></g></g><g fill="#f8f5f5" fill-opacity="1"><g transform="translate(246.969829, 118.67711)"><g><path d="M 3.921875 0 L 3.921875 -1.15625 L 4.6875 -1.15625 L 4.6875 -1.765625 L 3.921875 -1.765625 L 3.921875 -3.625 L 3.234375 -3.625 L 3.234375 -1.765625 L 1.09375 -1.765625 L 2.796875 -5.921875 L 2.046875 -5.921875 L 0.359375 -1.703125 L 0.359375 -1.15625 L 3.234375 -1.15625 L 3.234375 0 Z M 3.921875 0 "/></g></g></g><g fill="#f8f5f5" fill-opacity="1"><g transform="translate(254.790676, 118.67711)"><g><path d="M 0.828125 -5.921875 L 4.28125 -5.921875 L 4.28125 -5.296875 L 1.40625 -5.296875 L 1.234375 -3.375 C 1.703125 -3.613281 2.164062 -3.734375 2.625 -3.734375 C 3.882812 -3.734375 4.515625 -3.148438 4.515625 -1.984375 C 4.515625 -1.316406 4.34375 -0.804688 4 -0.453125 C 3.65625 -0.0976562 3.164062 0.078125 2.53125 0.078125 C 2.019531 0.078125 1.460938 0.015625 0.859375 -0.109375 L 0.5625 -0.171875 L 0.640625 -0.734375 C 1.316406 -0.597656 1.898438 -0.53125 2.390625 -0.53125 C 2.859375 -0.53125 3.210938 -0.648438 3.453125 -0.890625 C 3.691406 -1.128906 3.8125 -1.46875 3.8125 -1.90625 C 3.8125 -2.34375 3.703125 -2.65625 3.484375 -2.84375 C 3.265625 -3.03125 2.953125 -3.125 2.546875 -3.125 C 2.441406 -3.125 2.332031 -3.113281 2.21875 -3.09375 C 2.101562 -3.070312 1.988281 -3.046875 1.875 -3.015625 C 1.757812 -2.992188 1.65625 -2.96875 1.5625 -2.9375 C 1.46875 -2.90625 1.390625 -2.875 1.328125 -2.84375 L 1.140625 -2.765625 L 0.671875 -2.84375 Z M 0.828125 -5.921875 "/></g></g></g><g fill="#f8f5f5" fill-opacity="1"><g transform="translate(262.611522, 118.67711)"><g><path d="M 4.390625 -5.859375 L 4.328125 -5.296875 C 3.785156 -5.367188 3.265625 -5.40625 2.765625 -5.40625 C 2.253906 -5.40625 1.859375 -5.226562 1.578125 -4.875 C 1.304688 -4.53125 1.171875 -4.023438 1.171875 -3.359375 L 1.390625 -3.453125 C 1.460938 -3.484375 1.550781 -3.507812 1.65625 -3.53125 C 1.757812 -3.5625 1.867188 -3.585938 1.984375 -3.609375 C 2.097656 -3.640625 2.210938 -3.660156 2.328125 -3.671875 C 2.441406 -3.691406 2.550781 -3.703125 2.65625 -3.703125 C 3.976562 -3.703125 4.640625 -3.09375 4.640625 -1.875 C 4.640625 -1.238281 4.457031 -0.75 4.09375 -0.40625 C 3.738281 -0.0703125 3.226562 0.09375 2.5625 0.09375 C 1.15625 0.09375 0.453125 -0.929688 0.453125 -2.984375 C 0.453125 -4.023438 0.648438 -4.789062 1.046875 -5.28125 C 1.453125 -5.769531 2.023438 -6.015625 2.765625 -6.015625 C 3.253906 -6.015625 3.71875 -5.976562 4.15625 -5.90625 Z M 2.609375 -3.09375 C 2.503906 -3.09375 2.394531 -3.082031 2.28125 -3.0625 C 2.164062 -3.050781 2.050781 -3.03125 1.9375 -3 C 1.820312 -2.976562 1.710938 -2.953125 1.609375 -2.921875 C 1.515625 -2.898438 1.429688 -2.875 1.359375 -2.84375 L 1.15625 -2.75 C 1.164062 -2.0625 1.28125 -1.515625 1.5 -1.109375 C 1.726562 -0.710938 2.070312 -0.515625 2.53125 -0.515625 C 3 -0.515625 3.347656 -0.628906 3.578125 -0.859375 C 3.804688 -1.097656 3.921875 -1.425781 3.921875 -1.84375 C 3.921875 -2.269531 3.804688 -2.582031 3.578125 -2.78125 C 3.347656 -2.988281 3.023438 -3.09375 2.609375 -3.09375 Z M 2.609375 -3.09375 "/></g></g></g><g fill="#f8f5f5" fill-opacity="1"><g transform="translate(270.432368, 118.67711)"><g><path d="M 2.5 -6.03125 C 3 -6.03125 3.398438 -5.9375 3.703125 -5.75 C 4.347656 -5.363281 4.671875 -4.40625 4.671875 -2.875 C 4.671875 -2.332031 4.625 -1.875 4.53125 -1.5 C 4.445312 -1.125 4.3125 -0.816406 4.125 -0.578125 C 3.945312 -0.335938 3.722656 -0.164062 3.453125 -0.0625 C 3.179688 0.0390625 2.867188 0.09375 2.515625 0.09375 C 2.148438 0.09375 1.832031 0.0390625 1.5625 -0.0625 C 1.300781 -0.164062 1.078125 -0.332031 0.890625 -0.5625 C 0.710938 -0.800781 0.578125 -1.113281 0.484375 -1.5 C 0.390625 -1.882812 0.34375 -2.359375 0.34375 -2.921875 C 0.34375 -3.484375 0.390625 -3.960938 0.484375 -4.359375 C 0.578125 -4.753906 0.710938 -5.078125 0.890625 -5.328125 C 1.066406 -5.578125 1.289062 -5.753906 1.5625 -5.859375 C 1.832031 -5.972656 2.144531 -6.03125 2.5 -6.03125 Z M 2.515625 -5.40625 C 2.171875 -5.40625 1.898438 -5.332031 1.703125 -5.1875 C 1.273438 -4.894531 1.0625 -4.117188 1.0625 -2.859375 C 1.0625 -2.421875 1.085938 -2.050781 1.140625 -1.75 C 1.203125 -1.445312 1.289062 -1.203125 1.40625 -1.015625 C 1.53125 -0.835938 1.679688 -0.707031 1.859375 -0.625 C 2.046875 -0.550781 2.265625 -0.515625 2.515625 -0.515625 C 2.765625 -0.515625 2.976562 -0.550781 3.15625 -0.625 C 3.34375 -0.707031 3.492188 -0.84375 3.609375 -1.03125 C 3.734375 -1.21875 3.820312 -1.46875 3.875 -1.78125 C 3.9375 -2.09375 3.96875 -2.476562 3.96875 -2.9375 C 3.96875 -3.394531 3.9375 -3.78125 3.875 -4.09375 C 3.820312 -4.414062 3.738281 -4.671875 3.625 -4.859375 C 3.507812 -5.054688 3.359375 -5.195312 3.171875 -5.28125 C 2.992188 -5.363281 2.773438 -5.40625 2.515625 -5.40625 Z M 2.515625 -5.40625 "/></g></g></g><g clip-path="url(#a0491313e2)"><path fill="#6aa4b0" d="M 144.960938 217.664062 L 214.476562 217.664062 L 214.476562 289.167969 L 144.960938 289.167969 Z M 144.960938 217.664062 " fill-opacity="1" fill-rule="nonzero"/></g><g clip-path="url(#a365464ea9)"><path fill="#e1e7e0" d="M 144.960938 146.335938 L 214.476562 146.335938 L 214.476562 217.835938 L 144.960938 217.835938 Z M 144.960938 146.335938 " fill-opacity="1" fill-rule="nonzero"/></g><g fill="#f8f5f5" fill-opacity="1"><g transform="translate(154.117875, 183.360662)"><g><path d="M 4.8125 -2.140625 L 3.8125 -2.140625 L 3.8125 -3.8125 L 4.8125 -3.8125 L 4.8125 -4.390625 L 3.8125 -4.390625 L 3.8125 -5.984375 L 3.203125 -5.984375 L 3.203125 -4.390625 L 1.828125 -4.390625 L 1.828125 -5.984375 L 1.21875 -5.984375 L 1.21875 -4.390625 L 0.21875 -4.390625 L 0.21875 -3.8125 L 1.21875 -3.8125 L 1.21875 -2.140625 L 0.21875 -2.140625 L 0.21875 -1.5625 L 1.21875 -1.5625 L 1.21875 0 L 1.828125 0 L 1.828125 -1.5625 L 3.203125 -1.5625 L 3.203125 0 L 3.8125 0 L 3.8125 -1.5625 L 4.8125 -1.5625 Z M 1.828125 -2.140625 L 1.828125 -3.8125 L 3.203125 -3.8125 L 3.203125 -2.140625 Z M 1.828125 -2.140625 "/></g></g></g><g fill="#f8f5f5" fill-opacity="1"><g transform="translate(161.93872, 183.360662)"><g><path d="M 4.546875 0 L 4.546875 -0.609375 L 1.453125 -0.609375 L 1.453125 -2.859375 L 4 -2.859375 L 4 -3.453125 L 1.453125 -3.453125 L 1.453125 -5.609375 L 4.546875 -5.609375 L 4.546875 -6.21875 L 0.765625 -6.21875 L 0.765625 0 Z M 4.546875 0 "/></g></g></g><g fill="#f8f5f5" fill-opacity="1"><g transform="translate(169.696739, 183.360662)"><g><path d="M 2.84375 -5.921875 L 0.96875 -4.671875 L 1.28125 -4.15625 L 2.796875 -5.15625 L 2.796875 0 L 3.5 0 L 3.5 -5.921875 Z M 2.84375 -5.921875 "/></g></g></g><g fill="#f8f5f5" fill-opacity="1"><g transform="translate(177.517584, 183.360662)"><g><path d="M 4.546875 0 L 4.546875 -0.609375 L 1.453125 -0.609375 L 1.453125 -2.859375 L 4 -2.859375 L 4 -3.453125 L 1.453125 -3.453125 L 1.453125 -5.609375 L 4.546875 -5.609375 L 4.546875 -6.21875 L 0.765625 -6.21875 L 0.765625 0 Z M 4.546875 0 "/></g></g></g><g fill="#f8f5f5" fill-opacity="1"><g transform="translate(185.275604, 183.360662)"><g><path d="M 3.671875 -5.296875 L 3.671875 -5.0625 L 1.4375 -0.109375 L 2.09375 0.09375 L 4.375 -5.015625 L 4.375 -5.921875 L 0.6875 -5.921875 L 0.6875 -5.296875 Z M 3.671875 -5.296875 "/></g></g></g><g fill="#f8f5f5" fill-opacity="1"><g transform="translate(193.09645, 183.360662)"><g><path d="M 4.546875 0 L 4.546875 -0.609375 L 1.453125 -0.609375 L 1.453125 -2.859375 L 4 -2.859375 L 4 -3.453125 L 1.453125 -3.453125 L 1.453125 -5.609375 L 4.546875 -5.609375 L 4.546875 -6.21875 L 0.765625 -6.21875 L 0.765625 0 Z M 4.546875 0 "/></g></g></g><g fill="#f8f5f5" fill-opacity="1"><g transform="translate(200.85447, 183.360662)"><g><path d="M 2.5 -6.03125 C 3 -6.03125 3.398438 -5.9375 3.703125 -5.75 C 4.347656 -5.363281 4.671875 -4.40625 4.671875 -2.875 C 4.671875 -2.332031 4.625 -1.875 4.53125 -1.5 C 4.445312 -1.125 4.3125 -0.816406 4.125 -0.578125 C 3.945312 -0.335938 3.722656 -0.164062 3.453125 -0.0625 C 3.179688 0.0390625 2.867188 0.09375 2.515625 0.09375 C 2.148438 0.09375 1.832031 0.0390625 1.5625 -0.0625 C 1.300781 -0.164062 1.078125 -0.332031 0.890625 -0.5625 C 0.710938 -0.800781 0.578125 -1.113281 0.484375 -1.5 C 0.390625 -1.882812 0.34375 -2.359375 0.34375 -2.921875 C 0.34375 -3.484375 0.390625 -3.960938 0.484375 -4.359375 C 0.578125 -4.753906 0.710938 -5.078125 0.890625 -5.328125 C 1.066406 -5.578125 1.289062 -5.753906 1.5625 -5.859375 C 1.832031 -5.972656 2.144531 -6.03125 2.5 -6.03125 Z M 2.515625 -5.40625 C 2.171875 -5.40625 1.898438 -5.332031 1.703125 -5.1875 C 1.273438 -4.894531 1.0625 -4.117188 1.0625 -2.859375 C 1.0625 -2.421875 1.085938 -2.050781 1.140625 -1.75 C 1.203125 -1.445312 1.289062 -1.203125 1.40625 -1.015625 C 1.53125 -0.835938 1.679688 -0.707031 1.859375 -0.625 C 2.046875 -0.550781 2.265625 -0.515625 2.515625 -0.515625 C 2.765625 -0.515625 2.976562 -0.550781 3.15625 -0.625 C 3.34375 -0.707031 3.492188 -0.84375 3.609375 -1.03125 C 3.734375 -1.21875 3.820312 -1.46875 3.875 -1.78125 C 3.9375 -2.09375 3.96875 -2.476562 3.96875 -2.9375 C 3.96875 -3.394531 3.9375 -3.78125 3.875 -4.09375 C 3.820312 -4.414062 3.738281 -4.671875 3.625 -4.859375 C 3.507812 -5.054688 3.359375 -5.195312 3.171875 -5.28125 C 2.992188 -5.363281 2.773438 -5.40625 2.515625 -5.40625 Z M 2.515625 -5.40625 "/></g></g></g><g clip-path="url(#12920ee81f)"><path fill="#2f6d80" d="M 75.734375 75.007812 L 145.25 75.007812 L 145.25 146.507812 L 75.734375 146.507812 Z M 75.734375 75.007812 " fill-opacity="1" fill-rule="nonzero"/></g><g fill="#f8f5f5" fill-opacity="1"><g transform="translate(112.168992, 106.335491)"><g/></g></g><g fill="#f8f5f5" fill-opacity="1"><g transform="translate(84.56352, 118.67711)"><g><path d="M 4.8125 -2.140625 L 3.8125 -2.140625 L 3.8125 -3.8125 L 4.8125 -3.8125 L 4.8125 -4.390625 L 3.8125 -4.390625 L 3.8125 -5.984375 L 3.203125 -5.984375 L 3.203125 -4.390625 L 1.828125 -4.390625 L 1.828125 -5.984375 L 1.21875 -5.984375 L 1.21875 -4.390625 L 0.21875 -4.390625 L 0.21875 -3.8125 L 1.21875 -3.8125 L 1.21875 -2.140625 L 0.21875 -2.140625 L 0.21875 -1.5625 L 1.21875 -1.5625 L 1.21875 0 L 1.828125 0 L 1.828125 -1.5625 L 3.203125 -1.5625 L 3.203125 0 L 3.8125 0 L 3.8125 -1.5625 L 4.8125 -1.5625 Z M 1.828125 -2.140625 L 1.828125 -3.8125 L 3.203125 -3.8125 L 3.203125 -2.140625 Z M 1.828125 -2.140625 "/></g></g></g><g fill="#f8f5f5" fill-opacity="1"><g transform="translate(92.384365, 118.67711)"><g><path d="M 4.40625 -0.609375 L 4.40625 0 L 0.625 0 L 0.625 -0.578125 L 2.359375 -2.40625 C 2.503906 -2.5625 2.628906 -2.691406 2.734375 -2.796875 C 2.835938 -2.910156 2.925781 -3.015625 3 -3.109375 C 3.082031 -3.210938 3.15625 -3.304688 3.21875 -3.390625 C 3.28125 -3.484375 3.335938 -3.582031 3.390625 -3.6875 C 3.492188 -3.914062 3.546875 -4.140625 3.546875 -4.359375 C 3.546875 -4.742188 3.441406 -5.015625 3.234375 -5.171875 C 3.023438 -5.328125 2.695312 -5.40625 2.25 -5.40625 C 1.875 -5.40625 1.441406 -5.351562 0.953125 -5.25 L 0.71875 -5.203125 L 0.671875 -5.78125 C 1.234375 -5.9375 1.816406 -6.015625 2.421875 -6.015625 C 3.035156 -6.015625 3.492188 -5.890625 3.796875 -5.640625 C 4.109375 -5.390625 4.265625 -4.984375 4.265625 -4.421875 C 4.265625 -4.210938 4.238281 -4.019531 4.1875 -3.84375 C 4.144531 -3.675781 4.070312 -3.503906 3.96875 -3.328125 C 3.875 -3.160156 3.75 -2.984375 3.59375 -2.796875 C 3.4375 -2.617188 3.242188 -2.421875 3.015625 -2.203125 L 1.4375 -0.609375 Z M 4.40625 -0.609375 "/></g></g></g><g fill="#f8f5f5" fill-opacity="1"><g transform="translate(100.20521, 118.67711)"><g><path d="M 1.453125 0 L 1.453125 -2.5625 L 4.015625 -2.5625 L 4.015625 -3.1875 L 1.453125 -3.1875 L 1.453125 -5.609375 L 4.484375 -5.609375 L 4.484375 -6.21875 L 0.765625 -6.21875 L 0.765625 0 Z M 1.453125 0 "/></g></g></g><g fill="#f8f5f5" fill-opacity="1"><g transform="translate(107.720921, 118.67711)"><g><path d="M 4.390625 -5.859375 L 4.328125 -5.296875 C 3.785156 -5.367188 3.265625 -5.40625 2.765625 -5.40625 C 2.253906 -5.40625 1.859375 -5.226562 1.578125 -4.875 C 1.304688 -4.53125 1.171875 -4.023438 1.171875 -3.359375 L 1.390625 -3.453125 C 1.460938 -3.484375 1.550781 -3.507812 1.65625 -3.53125 C 1.757812 -3.5625 1.867188 -3.585938 1.984375 -3.609375 C 2.097656 -3.640625 2.210938 -3.660156 2.328125 -3.671875 C 2.441406 -3.691406 2.550781 -3.703125 2.65625 -3.703125 C 3.976562 -3.703125 4.640625 -3.09375 4.640625 -1.875 C 4.640625 -1.238281 4.457031 -0.75 4.09375 -0.40625 C 3.738281 -0.0703125 3.226562 0.09375 2.5625 0.09375 C 1.15625 0.09375 0.453125 -0.929688 0.453125 -2.984375 C 0.453125 -4.023438 0.648438 -4.789062 1.046875 -5.28125 C 1.453125 -5.769531 2.023438 -6.015625 2.765625 -6.015625 C 3.253906 -6.015625 3.71875 -5.976562 4.15625 -5.90625 Z M 2.609375 -3.09375 C 2.503906 -3.09375 2.394531 -3.082031 2.28125 -3.0625 C 2.164062 -3.050781 2.050781 -3.03125 1.9375 -3 C 1.820312 -2.976562 1.710938 -2.953125 1.609375 -2.921875 C 1.515625 -2.898438 1.429688 -2.875 1.359375 -2.84375 L 1.15625 -2.75 C 1.164062 -2.0625 1.28125 -1.515625 1.5 -1.109375 C 1.726562 -0.710938 2.070312 -0.515625 2.53125 -0.515625 C 3 -0.515625 3.347656 -0.628906 3.578125 -0.859375 C 3.804688 -1.097656 3.921875 -1.425781 3.921875 -1.84375 C 3.921875 -2.269531 3.804688 -2.582031 3.578125 -2.78125 C 3.347656 -2.988281 3.023438 -3.09375 2.609375 -3.09375 Z M 2.609375 -3.09375 "/></g></g></g><g fill="#f8f5f5" fill-opacity="1"><g transform="translate(115.541767, 118.67711)"><g><path d="M 2.984375 0 L 0.765625 0 L 0.765625 -6.21875 L 2.984375 -6.21875 C 3.484375 -6.21875 3.882812 -6.128906 4.1875 -5.953125 C 4.488281 -5.785156 4.71875 -5.554688 4.875 -5.265625 C 5.039062 -4.984375 5.148438 -4.660156 5.203125 -4.296875 C 5.253906 -3.941406 5.28125 -3.578125 5.28125 -3.203125 C 5.28125 -2.773438 5.25 -2.367188 5.1875 -1.984375 C 5.132812 -1.597656 5.019531 -1.257812 4.84375 -0.96875 C 4.675781 -0.675781 4.441406 -0.441406 4.140625 -0.265625 C 3.847656 -0.0859375 3.460938 0 2.984375 0 Z M 4.578125 -3.203125 C 4.578125 -3.492188 4.554688 -3.78125 4.515625 -4.0625 C 4.484375 -4.351562 4.410156 -4.613281 4.296875 -4.84375 C 4.179688 -5.070312 4.019531 -5.253906 3.8125 -5.390625 C 3.601562 -5.535156 3.328125 -5.609375 2.984375 -5.609375 L 1.453125 -5.609375 L 1.453125 -0.609375 L 2.984375 -0.609375 C 4.046875 -0.609375 4.578125 -1.472656 4.578125 -3.203125 Z M 4.578125 -3.203125 "/></g></g></g><g fill="#f8f5f5" fill-opacity="1"><g transform="translate(124.125432, 118.67711)"><g><path d="M 2.5 -6.03125 C 3.164062 -6.03125 3.6875 -5.898438 4.0625 -5.640625 C 4.445312 -5.378906 4.640625 -4.992188 4.640625 -4.484375 C 4.640625 -4.296875 4.617188 -4.132812 4.578125 -4 C 4.546875 -3.863281 4.488281 -3.742188 4.40625 -3.640625 C 4.332031 -3.535156 4.234375 -3.4375 4.109375 -3.34375 C 3.984375 -3.257812 3.832031 -3.175781 3.65625 -3.09375 C 4.019531 -2.9375 4.289062 -2.75 4.46875 -2.53125 C 4.644531 -2.3125 4.734375 -2.003906 4.734375 -1.609375 C 4.734375 -0.472656 3.992188 0.09375 2.515625 0.09375 C 1.023438 0.09375 0.28125 -0.441406 0.28125 -1.515625 C 0.28125 -1.722656 0.300781 -1.90625 0.34375 -2.0625 C 0.382812 -2.21875 0.445312 -2.351562 0.53125 -2.46875 C 0.613281 -2.59375 0.71875 -2.703125 0.84375 -2.796875 C 0.976562 -2.898438 1.132812 -3 1.3125 -3.09375 C 0.988281 -3.257812 0.753906 -3.441406 0.609375 -3.640625 C 0.460938 -3.847656 0.390625 -4.128906 0.390625 -4.484375 C 0.390625 -4.785156 0.453125 -5.035156 0.578125 -5.234375 C 0.703125 -5.429688 0.863281 -5.585938 1.0625 -5.703125 C 1.257812 -5.828125 1.484375 -5.910156 1.734375 -5.953125 C 1.992188 -6.003906 2.25 -6.03125 2.5 -6.03125 Z M 1.03125 -1.625 C 1.03125 -0.894531 1.523438 -0.53125 2.515625 -0.53125 C 3.503906 -0.53125 4 -0.914062 4 -1.6875 C 4 -2 3.910156 -2.226562 3.734375 -2.375 C 3.554688 -2.53125 3.296875 -2.660156 2.953125 -2.765625 L 2 -2.765625 C 1.675781 -2.671875 1.429688 -2.535156 1.265625 -2.359375 C 1.109375 -2.191406 1.03125 -1.945312 1.03125 -1.625 Z M 3.90625 -4.40625 C 3.90625 -5.070312 3.441406 -5.40625 2.515625 -5.40625 C 1.585938 -5.40625 1.125 -5.070312 1.125 -4.40625 C 1.125 -4.132812 1.191406 -3.921875 1.328125 -3.765625 C 1.472656 -3.609375 1.695312 -3.476562 2 -3.375 L 2.953125 -3.375 C 3.273438 -3.46875 3.515625 -3.59375 3.671875 -3.75 C 3.828125 -3.914062 3.90625 -4.132812 3.90625 -4.40625 Z M 3.90625 -4.40625 "/></g></g></g><g fill="#f8f5f5" fill-opacity="1"><g transform="translate(131.946278, 118.67711)"><g><path d="M 2.5 -6.03125 C 3 -6.03125 3.398438 -5.9375 3.703125 -5.75 C 4.347656 -5.363281 4.671875 -4.40625 4.671875 -2.875 C 4.671875 -2.332031 4.625 -1.875 4.53125 -1.5 C 4.445312 -1.125 4.3125 -0.816406 4.125 -0.578125 C 3.945312 -0.335938 3.722656 -0.164062 3.453125 -0.0625 C 3.179688 0.0390625 2.867188 0.09375 2.515625 0.09375 C 2.148438 0.09375 1.832031 0.0390625 1.5625 -0.0625 C 1.300781 -0.164062 1.078125 -0.332031 0.890625 -0.5625 C 0.710938 -0.800781 0.578125 -1.113281 0.484375 -1.5 C 0.390625 -1.882812 0.34375 -2.359375 0.34375 -2.921875 C 0.34375 -3.484375 0.390625 -3.960938 0.484375 -4.359375 C 0.578125 -4.753906 0.710938 -5.078125 0.890625 -5.328125 C 1.066406 -5.578125 1.289062 -5.753906 1.5625 -5.859375 C 1.832031 -5.972656 2.144531 -6.03125 2.5 -6.03125 Z M 2.515625 -5.40625 C 2.171875 -5.40625 1.898438 -5.332031 1.703125 -5.1875 C 1.273438 -4.894531 1.0625 -4.117188 1.0625 -2.859375 C 1.0625 -2.421875 1.085938 -2.050781 1.140625 -1.75 C 1.203125 -1.445312 1.289062 -1.203125 1.40625 -1.015625 C 1.53125 -0.835938 1.679688 -0.707031 1.859375 -0.625 C 2.046875 -0.550781 2.265625 -0.515625 2.515625 -0.515625 C 2.765625 -0.515625 2.976562 -0.550781 3.15625 -0.625 C 3.34375 -0.707031 3.492188 -0.84375 3.609375 -1.03125 C 3.734375 -1.21875 3.820312 -1.46875 3.875 -1.78125 C 3.9375 -2.09375 3.96875 -2.476562 3.96875 -2.9375 C 3.96875 -3.394531 3.9375 -3.78125 3.875 -4.09375 C 3.820312 -4.414062 3.738281 -4.671875 3.625 -4.859375 C 3.507812 -5.054688 3.359375 -5.195312 3.171875 -5.28125 C 2.992188 -5.363281 2.773438 -5.40625 2.515625 -5.40625 Z M 2.515625 -5.40625 "/></g></g></g></svg>