<svg xmlns="http://www.w3.org/2000/svg" xmlns:xlink="http://www.w3.org/1999/xlink" zoomAndPan="magnify" preserveAspectRatio="xMidYMid meet" version="1.0" viewBox="121.31 121 132.75 133"><defs><clipPath id="3ddc6a8298"><path d="M 121.3125 121 L 254.0625 121 L 254.0625 254 L 121.3125 254 Z M 121.3125 121 " clip-rule="nonzero"/></clipPath></defs><g clip-path="url(#3ddc6a8298)"><path fill="#002e35" d="M 254.039062 187.472656 C 254.039062 188.554688 254.011719 189.636719 253.960938 190.71875 C 253.90625 191.800781 253.828125 192.878906 253.71875 193.957031 C 253.613281 195.035156 253.480469 196.109375 253.320312 197.179688 C 253.164062 198.25 252.976562 199.316406 252.765625 200.378906 C 252.554688 201.4375 252.316406 202.496094 252.050781 203.542969 C 251.789062 204.59375 251.5 205.636719 251.183594 206.671875 C 250.867188 207.707031 250.527344 208.734375 250.164062 209.753906 C 249.796875 210.773438 249.40625 211.785156 248.992188 212.785156 C 248.574219 213.785156 248.136719 214.773438 247.671875 215.75 C 247.207031 216.730469 246.71875 217.695312 246.207031 218.652344 C 245.695312 219.605469 245.160156 220.546875 244.601562 221.476562 C 244.046875 222.40625 243.464844 223.320312 242.863281 224.21875 C 242.257812 225.117188 241.632812 226.003906 240.988281 226.871094 C 240.339844 227.742188 239.671875 228.59375 238.984375 229.433594 C 238.296875 230.269531 237.585938 231.089844 236.859375 231.890625 C 236.128906 232.691406 235.378906 233.476562 234.613281 234.242188 C 233.84375 235.007812 233.058594 235.753906 232.253906 236.480469 C 231.449219 237.207031 230.628906 237.914062 229.789062 238.601562 C 228.949219 239.285156 228.09375 239.953125 227.222656 240.597656 C 226.351562 241.242188 225.464844 241.863281 224.5625 242.464844 C 223.660156 243.066406 222.742188 243.644531 221.8125 244.203125 C 220.878906 244.757812 219.9375 245.292969 218.980469 245.804688 C 218.023438 246.3125 217.050781 246.800781 216.070312 247.261719 C 215.089844 247.726562 214.097656 248.164062 213.09375 248.578125 C 212.09375 248.992188 211.078125 249.382812 210.058594 249.746094 C 209.035156 250.109375 208.003906 250.449219 206.96875 250.765625 C 205.929688 251.078125 204.882812 251.367188 203.828125 251.628906 C 202.777344 251.894531 201.71875 252.128906 200.652344 252.339844 C 199.589844 252.554688 198.519531 252.738281 197.445312 252.898438 C 196.371094 253.054688 195.292969 253.1875 194.214844 253.292969 C 193.132812 253.398438 192.050781 253.480469 190.96875 253.53125 C 189.882812 253.585938 188.800781 253.613281 187.714844 253.613281 C 186.628906 253.613281 185.542969 253.585938 184.460938 253.53125 C 183.375 253.480469 182.292969 253.398438 181.210938 253.292969 C 180.132812 253.1875 179.054688 253.054688 177.980469 252.898438 C 176.90625 252.738281 175.839844 252.554688 174.773438 252.339844 C 173.710938 252.128906 172.652344 251.894531 171.597656 251.628906 C 170.542969 251.367188 169.5 251.078125 168.460938 250.765625 C 167.421875 250.449219 166.390625 250.109375 165.367188 249.746094 C 164.347656 249.382812 163.335938 248.992188 162.332031 248.578125 C 161.328125 248.164062 160.335938 247.726562 159.355469 247.261719 C 158.375 246.800781 157.40625 246.3125 156.449219 245.804688 C 155.492188 245.292969 154.546875 244.757812 153.613281 244.203125 C 152.683594 243.644531 151.765625 243.066406 150.863281 242.464844 C 149.960938 241.863281 149.074219 241.242188 148.203125 240.597656 C 147.332031 239.953125 146.476562 239.285156 145.636719 238.601562 C 144.796875 237.914062 143.976562 237.207031 143.171875 236.480469 C 142.367188 235.753906 141.582031 235.007812 140.8125 234.242188 C 140.046875 233.476562 139.296875 232.691406 138.570312 231.890625 C 137.839844 231.089844 137.132812 230.269531 136.441406 229.433594 C 135.753906 228.59375 135.085938 227.742188 134.441406 226.871094 C 133.792969 226.003906 133.167969 225.117188 132.566406 224.21875 C 131.960938 223.320312 131.382812 222.40625 130.824219 221.476562 C 130.265625 220.546875 129.730469 219.605469 129.21875 218.652344 C 128.707031 217.695312 128.21875 216.730469 127.753906 215.75 C 127.292969 214.773438 126.851562 213.785156 126.4375 212.785156 C 126.019531 211.785156 125.628906 210.773438 125.265625 209.753906 C 124.898438 208.734375 124.558594 207.707031 124.242188 206.671875 C 123.929688 205.636719 123.640625 204.59375 123.375 203.542969 C 123.113281 202.496094 122.875 201.4375 122.664062 200.378906 C 122.449219 199.316406 122.265625 198.25 122.105469 197.179688 C 121.945312 196.109375 121.8125 195.035156 121.707031 193.957031 C 121.601562 192.878906 121.519531 191.800781 121.46875 190.71875 C 121.414062 189.636719 121.386719 188.554688 121.386719 187.472656 C 121.386719 186.390625 121.414062 185.308594 121.46875 184.230469 C 121.519531 183.148438 121.601562 182.070312 121.707031 180.992188 C 121.8125 179.914062 121.945312 178.839844 122.105469 177.769531 C 122.265625 176.699219 122.449219 175.632812 122.664062 174.570312 C 122.875 173.507812 123.113281 172.453125 123.375 171.402344 C 123.640625 170.355469 123.929688 169.3125 124.242188 168.273438 C 124.558594 167.238281 124.898438 166.210938 125.265625 165.191406 C 125.628906 164.171875 126.019531 163.164062 126.4375 162.164062 C 126.851562 161.164062 127.292969 160.175781 127.753906 159.195312 C 128.21875 158.21875 128.707031 157.25 129.21875 156.296875 C 129.730469 155.34375 130.265625 154.402344 130.824219 153.472656 C 131.382812 152.542969 131.960938 151.628906 132.566406 150.730469 C 133.167969 149.828125 133.792969 148.945312 134.441406 148.074219 C 135.085938 147.207031 135.753906 146.351562 136.441406 145.515625 C 137.132812 144.679688 137.839844 143.859375 138.570312 143.058594 C 139.296875 142.257812 140.046875 141.472656 140.8125 140.707031 C 141.582031 139.941406 142.367188 139.195312 143.171875 138.46875 C 143.976562 137.742188 144.796875 137.035156 145.636719 136.347656 C 146.476562 135.660156 147.332031 134.996094 148.203125 134.351562 C 149.074219 133.707031 149.960938 133.082031 150.863281 132.480469 C 151.765625 131.878906 152.683594 131.300781 153.613281 130.746094 C 154.546875 130.1875 155.492188 129.65625 156.449219 129.144531 C 157.40625 128.636719 158.375 128.148438 159.355469 127.6875 C 160.335938 127.222656 161.328125 126.785156 162.332031 126.371094 C 163.335938 125.957031 164.347656 125.566406 165.367188 125.203125 C 166.390625 124.835938 167.421875 124.496094 168.460938 124.183594 C 169.5 123.871094 170.542969 123.582031 171.597656 123.316406 C 172.652344 123.054688 173.710938 122.816406 174.773438 122.605469 C 175.839844 122.394531 176.90625 122.210938 177.980469 122.050781 C 179.054688 121.894531 180.132812 121.761719 181.210938 121.652344 C 182.292969 121.546875 183.375 121.46875 184.460938 121.414062 C 185.542969 121.363281 186.628906 121.335938 187.714844 121.335938 C 188.800781 121.335938 189.882812 121.363281 190.96875 121.414062 C 192.050781 121.46875 193.132812 121.546875 194.214844 121.652344 C 195.292969 121.761719 196.371094 121.894531 197.445312 122.050781 C 198.519531 122.210938 199.589844 122.394531 200.652344 122.605469 C 201.71875 122.816406 202.777344 123.054688 203.828125 123.316406 C 204.882812 123.582031 205.929688 123.871094 206.96875 124.183594 C 208.003906 124.496094 209.035156 124.835938 210.058594 125.203125 C 211.078125 125.566406 212.09375 125.957031 213.09375 126.371094 C 214.097656 126.785156 215.089844 127.222656 216.070312 127.6875 C 217.050781 128.148438 218.023438 128.636719 218.980469 129.144531 C 219.9375 129.65625 220.878906 130.1875 221.8125 130.746094 C 222.742188 131.300781 223.660156 131.878906 224.5625 132.480469 C 225.464844 133.082031 226.351562 133.707031 227.222656 134.351562 C 228.09375 134.996094 228.949219 135.660156 229.789062 136.347656 C 230.628906 137.035156 231.449219 137.742188 232.253906 138.46875 C 233.058594 139.195312 233.84375 139.941406 234.613281 140.707031 C 235.378906 141.472656 236.128906 142.257812 236.859375 143.058594 C 237.585938 143.859375 238.296875 144.679688 238.984375 145.515625 C 239.671875 146.351562 240.339844 147.207031 240.988281 148.074219 C 241.632812 148.945312 242.257812 149.828125 242.863281 150.730469 C 243.464844 151.628906 244.046875 152.542969 244.601562 153.472656 C 245.160156 154.402344 245.695312 155.34375 246.207031 156.296875 C 246.71875 157.25 247.207031 158.21875 247.671875 159.195312 C 248.136719 160.175781 248.574219 161.164062 248.992188 162.164062 C 249.40625 163.164062 249.796875 164.171875 250.164062 165.191406 C 250.527344 166.210938 250.867188 167.238281 251.183594 168.273438 C 251.5 169.3125 251.789062 170.355469 252.050781 171.402344 C 252.316406 172.453125 252.554688 173.507812 252.765625 174.570312 C 252.976562 175.632812 253.164062 176.699219 253.320312 177.769531 C 253.480469 178.839844 253.613281 179.914062 253.71875 180.992188 C 253.828125 182.070312 253.90625 183.148438 253.960938 184.230469 C 254.011719 185.308594 254.039062 186.390625 254.039062 187.472656 Z M 254.039062 187.472656 " fill-opacity="1" fill-rule="nonzero"/></g><path fill="#5ec2d4" d="M 131.558594 187.472656 C 195.242188 262.460938 243.871094 187.472656 243.871094 187.472656 C 180.183594 112.488281 131.558594 187.472656 131.558594 187.472656 Z M 131.558594 187.472656 " fill-opacity="1" fill-rule="nonzero"/><path fill="#ffffff" d="M 217.566406 187.472656 C 217.566406 188.449219 217.519531 189.421875 217.425781 190.390625 C 217.328125 191.363281 217.183594 192.324219 216.992188 193.28125 C 216.804688 194.238281 216.566406 195.183594 216.28125 196.117188 C 216 197.046875 215.667969 197.964844 215.296875 198.867188 C 214.921875 199.765625 214.503906 200.648438 214.042969 201.507812 C 213.582031 202.367188 213.078125 203.203125 212.535156 204.011719 C 211.992188 204.824219 211.410156 205.605469 210.792969 206.359375 C 210.171875 207.113281 209.515625 207.835938 208.824219 208.523438 C 208.132812 209.214844 207.410156 209.867188 206.652344 210.488281 C 205.898438 211.105469 205.113281 211.683594 204.300781 212.226562 C 203.488281 212.769531 202.648438 213.269531 201.785156 213.730469 C 200.925781 214.1875 200.042969 214.605469 199.136719 214.976562 C 198.234375 215.351562 197.316406 215.679688 196.378906 215.960938 C 195.445312 216.246094 194.496094 216.480469 193.539062 216.671875 C 192.578125 216.863281 191.613281 217.003906 190.640625 217.101562 C 189.667969 217.195312 188.691406 217.242188 187.714844 217.242188 C 186.734375 217.242188 185.761719 217.195312 184.789062 217.101562 C 183.8125 217.003906 182.847656 216.863281 181.890625 216.671875 C 180.929688 216.480469 179.984375 216.246094 179.046875 215.960938 C 178.113281 215.679688 177.191406 215.351562 176.289062 214.976562 C 175.386719 214.605469 174.503906 214.1875 173.640625 213.730469 C 172.777344 213.269531 171.941406 212.769531 171.128906 212.226562 C 170.3125 211.683594 169.53125 211.105469 168.773438 210.488281 C 168.019531 209.867188 167.292969 209.214844 166.601562 208.523438 C 165.910156 207.835938 165.257812 207.113281 164.636719 206.359375 C 164.015625 205.605469 163.433594 204.824219 162.890625 204.011719 C 162.347656 203.203125 161.84375 202.367188 161.382812 201.507812 C 160.921875 200.648438 160.507812 199.765625 160.132812 198.867188 C 159.757812 197.964844 159.429688 197.046875 159.144531 196.117188 C 158.859375 195.183594 158.625 194.238281 158.433594 193.28125 C 158.242188 192.324219 158.097656 191.363281 158.003906 190.390625 C 157.90625 189.421875 157.859375 188.449219 157.859375 187.472656 C 157.859375 186.5 157.90625 185.527344 158.003906 184.554688 C 158.097656 183.585938 158.242188 182.621094 158.433594 181.667969 C 158.625 180.710938 158.859375 179.765625 159.144531 178.832031 C 159.429688 177.898438 159.757812 176.984375 160.132812 176.082031 C 160.507812 175.179688 160.921875 174.300781 161.382812 173.441406 C 161.84375 172.582031 162.347656 171.746094 162.890625 170.933594 C 163.433594 170.125 164.015625 169.34375 164.636719 168.589844 C 165.257812 167.835938 165.910156 167.113281 166.601562 166.421875 C 167.292969 165.734375 168.019531 165.082031 168.773438 164.460938 C 169.53125 163.84375 170.3125 163.261719 171.128906 162.722656 C 171.941406 162.179688 172.777344 161.679688 173.640625 161.21875 C 174.503906 160.761719 175.386719 160.34375 176.289062 159.96875 C 177.191406 159.597656 178.113281 159.269531 179.046875 158.984375 C 179.984375 158.703125 180.929688 158.464844 181.890625 158.277344 C 182.847656 158.085938 183.8125 157.941406 184.789062 157.847656 C 185.761719 157.753906 186.734375 157.703125 187.714844 157.703125 C 188.691406 157.703125 189.667969 157.753906 190.640625 157.847656 C 191.613281 157.941406 192.578125 158.085938 193.539062 158.277344 C 194.496094 158.464844 195.445312 158.703125 196.378906 158.984375 C 197.316406 159.269531 198.234375 159.597656 199.136719 159.96875 C 200.042969 160.34375 200.925781 160.761719 201.785156 161.21875 C 202.648438 161.679688 203.488281 162.179688 204.300781 162.722656 C 205.113281 163.261719 205.898438 163.84375 206.652344 164.460938 C 207.410156 165.082031 208.132812 165.734375 208.824219 166.421875 C 209.515625 167.113281 210.171875 167.835938 210.792969 168.589844 C 211.410156 169.34375 211.992188 170.125 212.535156 170.933594 C 213.078125 171.746094 213.582031 172.582031 214.042969 173.441406 C 214.503906 174.300781 214.921875 175.179688 215.296875 176.082031 C 215.667969 176.984375 216 177.898438 216.28125 178.832031 C 216.566406 179.765625 216.804688 180.710938 216.992188 181.667969 C 217.183594 182.621094 217.328125 183.585938 217.425781 184.554688 C 217.519531 185.527344 217.566406 186.5 217.566406 187.472656 Z M 217.566406 187.472656 " fill-opacity="1" fill-rule="nonzero"/><path fill="#002e35" d="M 205.78125 187.472656 C 205.78125 188.0625 205.753906 188.652344 205.695312 189.238281 C 205.636719 189.828125 205.550781 190.410156 205.433594 190.988281 C 205.320312 191.566406 205.175781 192.140625 205.003906 192.703125 C 204.832031 193.269531 204.632812 193.824219 204.40625 194.367188 C 204.179688 194.914062 203.925781 195.445312 203.648438 195.96875 C 203.371094 196.488281 203.066406 196.992188 202.738281 197.484375 C 202.410156 197.976562 202.054688 198.449219 201.679688 198.90625 C 201.304688 199.359375 200.910156 199.796875 200.488281 200.214844 C 200.070312 200.632812 199.632812 201.027344 199.175781 201.402344 C 198.71875 201.777344 198.242188 202.128906 197.75 202.457031 C 197.261719 202.78125 196.753906 203.085938 196.230469 203.363281 C 195.710938 203.640625 195.175781 203.894531 194.628906 204.121094 C 194.082031 204.347656 193.523438 204.542969 192.957031 204.714844 C 192.390625 204.886719 191.820312 205.03125 191.238281 205.144531 C 190.65625 205.261719 190.074219 205.347656 189.484375 205.40625 C 188.894531 205.460938 188.304688 205.492188 187.714844 205.492188 C 187.121094 205.492188 186.53125 205.460938 185.941406 205.40625 C 185.355469 205.347656 184.769531 205.261719 184.1875 205.144531 C 183.609375 205.03125 183.035156 204.886719 182.46875 204.714844 C 181.902344 204.542969 181.34375 204.347656 180.800781 204.121094 C 180.253906 203.894531 179.71875 203.640625 179.195312 203.363281 C 178.675781 203.085938 178.167969 202.78125 177.675781 202.457031 C 177.183594 202.128906 176.707031 201.777344 176.25 201.402344 C 175.792969 201.027344 175.355469 200.632812 174.9375 200.214844 C 174.519531 199.796875 174.121094 199.359375 173.746094 198.90625 C 173.371094 198.449219 173.019531 197.976562 172.691406 197.484375 C 172.359375 196.992188 172.058594 196.488281 171.777344 195.96875 C 171.5 195.445312 171.246094 194.914062 171.019531 194.367188 C 170.792969 193.824219 170.59375 193.269531 170.421875 192.703125 C 170.25 192.140625 170.109375 191.566406 169.992188 190.988281 C 169.875 190.410156 169.789062 189.828125 169.730469 189.238281 C 169.671875 188.652344 169.644531 188.0625 169.644531 187.472656 C 169.644531 186.882812 169.671875 186.296875 169.730469 185.707031 C 169.789062 185.121094 169.875 184.539062 169.992188 183.960938 C 170.109375 183.378906 170.25 182.808594 170.421875 182.242188 C 170.59375 181.679688 170.792969 181.125 171.019531 180.578125 C 171.246094 180.035156 171.5 179.5 171.777344 178.980469 C 172.058594 178.460938 172.359375 177.953125 172.691406 177.464844 C 173.019531 176.972656 173.371094 176.5 173.746094 176.042969 C 174.121094 175.585938 174.519531 175.152344 174.9375 174.734375 C 175.355469 174.316406 175.792969 173.921875 176.25 173.546875 C 176.707031 173.171875 177.183594 172.820312 177.675781 172.492188 C 178.167969 172.164062 178.675781 171.863281 179.195312 171.582031 C 179.71875 171.304688 180.253906 171.054688 180.800781 170.828125 C 181.34375 170.601562 181.902344 170.402344 182.46875 170.230469 C 183.035156 170.0625 183.609375 169.917969 184.1875 169.800781 C 184.769531 169.6875 185.355469 169.601562 185.941406 169.542969 C 186.53125 169.484375 187.121094 169.457031 187.714844 169.457031 C 188.304688 169.457031 188.894531 169.484375 189.484375 169.542969 C 190.074219 169.601562 190.65625 169.6875 191.238281 169.800781 C 191.820312 169.917969 192.390625 170.0625 192.957031 170.230469 C 193.523438 170.402344 194.082031 170.601562 194.628906 170.828125 C 195.175781 171.054688 195.710938 171.304688 196.230469 171.582031 C 196.753906 171.863281 197.261719 172.164062 197.75 172.492188 C 198.242188 172.820312 198.71875 173.171875 199.175781 173.546875 C 199.632812 173.921875 200.070312 174.316406 200.488281 174.734375 C 200.910156 175.152344 201.304688 175.585938 201.679688 176.042969 C 202.054688 176.5 202.410156 176.972656 202.738281 177.464844 C 203.066406 177.953125 203.371094 178.460938 203.648438 178.980469 C 203.925781 179.5 204.179688 180.035156 204.40625 180.578125 C 204.632812 181.125 204.832031 181.679688 205.003906 182.242188 C 205.175781 182.808594 205.320312 183.378906 205.433594 183.960938 C 205.550781 184.539062 205.636719 185.121094 205.695312 185.707031 C 205.753906 186.296875 205.78125 186.882812 205.78125 187.472656 Z M 205.78125 187.472656 " fill-opacity="1" fill-rule="nonzero"/><path fill="#ffffff" d="M 205.78125 176.410156 C 205.78125 176.785156 205.746094 177.152344 205.671875 177.519531 C 205.597656 177.882812 205.492188 178.238281 205.347656 178.582031 C 205.207031 178.925781 205.03125 179.253906 204.824219 179.5625 C 204.613281 179.875 204.378906 180.160156 204.113281 180.421875 C 203.851562 180.6875 203.5625 180.921875 203.253906 181.128906 C 202.941406 181.335938 202.613281 181.511719 202.269531 181.652344 C 201.921875 181.796875 201.566406 181.902344 201.199219 181.976562 C 200.835938 182.050781 200.464844 182.085938 200.089844 182.085938 C 199.71875 182.085938 199.347656 182.050781 198.980469 181.976562 C 198.613281 181.902344 198.257812 181.796875 197.914062 181.652344 C 197.566406 181.511719 197.238281 181.335938 196.929688 181.128906 C 196.617188 180.921875 196.332031 180.6875 196.066406 180.421875 C 195.800781 180.160156 195.566406 179.875 195.359375 179.5625 C 195.152344 179.253906 194.976562 178.925781 194.832031 178.582031 C 194.691406 178.238281 194.582031 177.882812 194.507812 177.519531 C 194.4375 177.152344 194.398438 176.785156 194.398438 176.410156 C 194.398438 176.039062 194.4375 175.667969 194.507812 175.304688 C 194.582031 174.9375 194.691406 174.582031 194.832031 174.238281 C 194.976562 173.894531 195.152344 173.566406 195.359375 173.257812 C 195.566406 172.949219 195.800781 172.660156 196.066406 172.398438 C 196.332031 172.132812 196.617188 171.898438 196.929688 171.691406 C 197.238281 171.484375 197.566406 171.3125 197.914062 171.167969 C 198.257812 171.027344 198.613281 170.917969 198.980469 170.84375 C 199.347656 170.773438 199.71875 170.734375 200.089844 170.734375 C 200.464844 170.734375 200.835938 170.773438 201.199219 170.84375 C 201.566406 170.917969 201.921875 171.027344 202.269531 171.167969 C 202.613281 171.3125 202.941406 171.484375 203.253906 171.691406 C 203.5625 171.898438 203.851562 172.132812 204.113281 172.398438 C 204.378906 172.660156 204.613281 172.949219 204.824219 173.257812 C 205.03125 173.566406 205.207031 173.894531 205.347656 174.238281 C 205.492188 174.582031 205.597656 174.9375 205.671875 175.304688 C 205.746094 175.667969 205.78125 176.039062 205.78125 176.410156 Z M 205.78125 176.410156 " fill-opacity="1" fill-rule="nonzero"/></svg>