<svg xmlns="http://www.w3.org/2000/svg" xmlns:xlink="http://www.w3.org/1999/xlink" zoomAndPan="magnify" preserveAspectRatio="xMidYMid meet" version="1.0" viewBox="112.5 112.5 150.04 150.04"><defs><clipPath id="197688c20a"><path d="M 112.5 112.5 L 262.5 112.5 L 262.5 262.5 L 112.5 262.5 Z M 112.5 112.5 " clip-rule="nonzero"/></clipPath></defs><g clip-path="url(#197688c20a)"><path fill="#5ec2d4" d="M 262.535156 187.53125 C 262.535156 188.757812 262.503906 189.984375 262.445312 191.210938 C 262.382812 192.4375 262.292969 193.660156 262.171875 194.882812 C 262.054688 196.101562 261.902344 197.320312 261.722656 198.535156 C 261.542969 199.75 261.332031 200.957031 261.09375 202.164062 C 260.855469 203.367188 260.585938 204.5625 260.285156 205.753906 C 259.988281 206.945312 259.660156 208.128906 259.304688 209.300781 C 258.949219 210.476562 258.5625 211.640625 258.148438 212.796875 C 257.738281 213.953125 257.296875 215.097656 256.824219 216.234375 C 256.355469 217.367188 255.859375 218.488281 255.332031 219.597656 C 254.808594 220.707031 254.257812 221.804688 253.679688 222.886719 C 253.097656 223.96875 252.496094 225.035156 251.863281 226.089844 C 251.234375 227.144531 250.574219 228.179688 249.894531 229.199219 C 249.210938 230.21875 248.503906 231.222656 247.773438 232.210938 C 247.042969 233.195312 246.289062 234.164062 245.507812 235.113281 C 244.730469 236.0625 243.929688 236.992188 243.105469 237.898438 C 242.28125 238.808594 241.433594 239.699219 240.566406 240.566406 C 239.699219 241.433594 238.808594 242.28125 237.898438 243.105469 C 236.992188 243.929688 236.0625 244.730469 235.113281 245.507812 C 234.164062 246.289062 233.195312 247.042969 232.210938 247.773438 C 231.222656 248.503906 230.21875 249.210938 229.199219 249.894531 C 228.179688 250.574219 227.144531 251.234375 226.089844 251.863281 C 225.035156 252.496094 223.96875 253.097656 222.886719 253.679688 C 221.804688 254.257812 220.707031 254.808594 219.597656 255.332031 C 218.488281 255.859375 217.367188 256.355469 216.234375 256.824219 C 215.097656 257.296875 213.953125 257.738281 212.796875 258.148438 C 211.640625 258.5625 210.476562 258.949219 209.300781 259.304688 C 208.128906 259.660156 206.945312 259.988281 205.753906 260.285156 C 204.5625 260.585938 203.367188 260.855469 202.164062 261.09375 C 200.957031 261.332031 199.75 261.542969 198.535156 261.722656 C 197.320312 261.902344 196.101562 262.054688 194.882812 262.171875 C 193.660156 262.292969 192.4375 262.382812 191.210938 262.445312 C 189.984375 262.503906 188.757812 262.535156 187.53125 262.535156 C 186.300781 262.535156 185.074219 262.503906 183.847656 262.445312 C 182.621094 262.382812 181.398438 262.292969 180.175781 262.171875 C 178.957031 262.054688 177.738281 261.902344 176.523438 261.722656 C 175.308594 261.542969 174.101562 261.332031 172.898438 261.09375 C 171.691406 260.855469 170.496094 260.585938 169.304688 260.285156 C 168.113281 259.988281 166.929688 259.660156 165.757812 259.304688 C 164.582031 258.949219 163.417969 258.5625 162.261719 258.148438 C 161.105469 257.738281 159.960938 257.296875 158.824219 256.824219 C 157.691406 256.355469 156.570312 255.859375 155.460938 255.332031 C 154.351562 254.808594 153.253906 254.257812 152.171875 253.679688 C 151.089844 253.097656 150.023438 252.496094 148.96875 251.863281 C 147.917969 251.234375 146.878906 250.574219 145.859375 249.894531 C 144.839844 249.210938 143.835938 248.503906 142.847656 247.773438 C 141.863281 247.042969 140.894531 246.289062 139.945312 245.507812 C 138.996094 244.730469 138.070312 243.929688 137.160156 243.105469 C 136.25 242.28125 135.359375 241.433594 134.492188 240.566406 C 133.625 239.699219 132.777344 238.808594 131.953125 237.898438 C 131.128906 236.992188 130.328125 236.0625 129.550781 235.113281 C 128.769531 234.164062 128.015625 233.195312 127.285156 232.210938 C 126.554688 231.222656 125.847656 230.21875 125.164062 229.199219 C 124.484375 228.179688 123.828125 227.144531 123.195312 226.089844 C 122.5625 225.035156 121.960938 223.96875 121.378906 222.886719 C 120.800781 221.804688 120.25 220.707031 119.726562 219.597656 C 119.199219 218.488281 118.703125 217.367188 118.234375 216.234375 C 117.765625 215.097656 117.320312 213.953125 116.910156 212.796875 C 116.496094 211.640625 116.109375 210.476562 115.753906 209.300781 C 115.398438 208.128906 115.070312 206.945312 114.773438 205.753906 C 114.472656 204.5625 114.203125 203.367188 113.964844 202.164062 C 113.726562 200.957031 113.515625 199.75 113.335938 198.535156 C 113.15625 197.320312 113.003906 196.101562 112.886719 194.882812 C 112.765625 193.660156 112.675781 192.4375 112.613281 191.210938 C 112.554688 189.984375 112.523438 188.757812 112.523438 187.53125 C 112.523438 186.300781 112.554688 185.074219 112.613281 183.847656 C 112.675781 182.621094 112.765625 181.398438 112.886719 180.175781 C 113.003906 178.957031 113.15625 177.738281 113.335938 176.523438 C 113.515625 175.308594 113.726562 174.101562 113.964844 172.898438 C 114.203125 171.691406 114.472656 170.496094 114.773438 169.304688 C 115.070312 168.113281 115.398438 166.929688 115.753906 165.757812 C 116.109375 164.582031 116.496094 163.417969 116.910156 162.261719 C 117.320312 161.105469 117.765625 159.960938 118.234375 158.824219 C 118.703125 157.691406 119.199219 156.570312 119.726562 155.460938 C 120.25 154.351562 120.800781 153.253906 121.378906 152.171875 C 121.960938 151.089844 122.5625 150.023438 123.195312 148.96875 C 123.828125 147.917969 124.484375 146.878906 125.164062 145.859375 C 125.847656 144.839844 126.554688 143.835938 127.285156 142.847656 C 128.015625 141.863281 128.769531 140.894531 129.550781 139.945312 C 130.328125 138.996094 131.128906 138.070312 131.953125 137.160156 C 132.777344 136.25 133.625 135.359375 134.492188 134.492188 C 135.359375 133.625 136.25 132.777344 137.160156 131.953125 C 138.070312 131.128906 138.996094 130.328125 139.945312 129.550781 C 140.894531 128.769531 141.863281 128.015625 142.847656 127.285156 C 143.835938 126.554688 144.839844 125.847656 145.859375 125.164062 C 146.878906 124.484375 147.917969 123.828125 148.96875 123.195312 C 150.023438 122.5625 151.089844 121.960938 152.171875 121.378906 C 153.253906 120.800781 154.351562 120.25 155.460938 119.726562 C 156.570312 119.199219 157.691406 118.703125 158.824219 118.234375 C 159.960938 117.765625 161.105469 117.320312 162.261719 116.910156 C 163.417969 116.496094 164.582031 116.109375 165.757812 115.753906 C 166.929688 115.398438 168.113281 115.070312 169.304688 114.773438 C 170.496094 114.472656 171.691406 114.203125 172.898438 113.964844 C 174.101562 113.726562 175.308594 113.515625 176.523438 113.335938 C 177.738281 113.15625 178.957031 113.003906 180.175781 112.886719 C 181.398438 112.765625 182.621094 112.675781 183.847656 112.613281 C 185.074219 112.554688 186.300781 112.523438 187.53125 112.523438 C 188.757812 112.523438 189.984375 112.554688 191.210938 112.613281 C 192.4375 112.675781 193.660156 112.765625 194.882812 112.886719 C 196.101562 113.003906 197.320312 113.15625 198.535156 113.335938 C 199.75 113.515625 200.957031 113.726562 202.164062 113.964844 C 203.367188 114.203125 204.5625 114.472656 205.753906 114.773438 C 206.945312 115.070312 208.128906 115.398438 209.300781 115.753906 C 210.476562 116.109375 211.640625 116.496094 212.796875 116.910156 C 213.953125 117.320312 215.097656 117.765625 216.234375 118.234375 C 217.367188 118.703125 218.488281 119.199219 219.597656 119.726562 C 220.707031 120.25 221.804688 120.800781 222.886719 121.378906 C 223.96875 121.960938 225.035156 122.5625 226.089844 123.195312 C 227.144531 123.828125 228.179688 124.484375 229.199219 125.164062 C 230.21875 125.847656 231.222656 126.554688 232.210938 127.285156 C 233.195312 128.015625 234.164062 128.769531 235.113281 129.550781 C 236.0625 130.328125 236.992188 131.128906 237.898438 131.953125 C 238.808594 132.777344 239.699219 133.625 240.566406 134.492188 C 241.433594 135.359375 242.28125 136.25 243.105469 137.160156 C 243.929688 138.070312 244.730469 138.996094 245.507812 139.945312 C 246.289062 140.894531 247.042969 141.863281 247.773438 142.847656 C 248.503906 143.835938 249.210938 144.839844 249.894531 145.859375 C 250.574219 146.878906 251.234375 147.917969 251.863281 148.96875 C 252.496094 150.023438 253.097656 151.089844 253.679688 152.171875 C 254.257812 153.253906 254.808594 154.351562 255.332031 155.460938 C 255.859375 156.570312 256.355469 157.691406 256.824219 158.824219 C 257.296875 159.960938 257.738281 161.105469 258.148438 162.261719 C 258.5625 163.417969 258.949219 164.582031 259.304688 165.757812 C 259.660156 166.929688 259.988281 168.113281 260.285156 169.304688 C 260.585938 170.496094 260.855469 171.691406 261.09375 172.898438 C 261.332031 174.101562 261.542969 175.308594 261.722656 176.523438 C 261.902344 177.738281 262.054688 178.957031 262.171875 180.175781 C 262.292969 181.398438 262.382812 182.621094 262.445312 183.847656 C 262.503906 185.074219 262.535156 186.300781 262.535156 187.53125 Z M 262.535156 187.53125 " fill-opacity="1" fill-rule="nonzero"/></g><path fill="#f8b858" d="M 240.652344 220.160156 L 187.53125 132.554688 L 134.40625 220.160156 Z M 240.652344 220.160156 " fill-opacity="1" fill-rule="nonzero"/><path fill="#fbca6f" d="M 229.90625 214.355469 L 187.53125 144.472656 L 145.152344 214.355469 Z M 229.90625 214.355469 " fill-opacity="1" fill-rule="nonzero"/><path fill="#bf8f45" d="M 191.175781 192.453125 C 191.175781 194.847656 189.234375 196.789062 186.839844 196.789062 C 184.445312 196.789062 182.503906 194.847656 182.503906 192.453125 L 182.503906 162.230469 C 182.503906 159.832031 184.445312 157.894531 186.839844 157.894531 C 189.234375 157.894531 191.175781 159.832031 191.175781 162.230469 Z M 191.175781 192.453125 " fill-opacity="1" fill-rule="nonzero"/><path fill="#bf8f45" d="M 191.335938 204.082031 C 191.335938 206.609375 189.285156 208.660156 186.753906 208.660156 C 184.222656 208.660156 182.171875 206.609375 182.171875 204.082031 C 182.171875 201.550781 184.222656 199.5 186.753906 199.5 C 189.285156 199.5 191.335938 201.550781 191.335938 204.082031 Z M 191.335938 204.082031 " fill-opacity="1" fill-rule="nonzero"/></svg>