<svg xmlns="http://www.w3.org/2000/svg" xmlns:xlink="http://www.w3.org/1999/xlink" zoomAndPan="magnify" preserveAspectRatio="xMidYMid meet" version="1.0" viewBox="112.5 112.51 150 149.98"><defs><clipPath id="93a5178e7e"><path d="M 112.5 112.511719 L 262.496094 112.511719 L 262.496094 262.488281 L 112.5 262.488281 Z M 112.5 112.511719 " clip-rule="nonzero"/></clipPath><clipPath id="ea44f7a963"><path d="M 148.96875 135.121094 L 262.496094 135.121094 L 262.496094 261.074219 L 148.96875 261.074219 Z M 148.96875 135.121094 " clip-rule="nonzero"/></clipPath></defs><g clip-path="url(#93a5178e7e)"><path fill="#fcec29" d="M 262.480469 185.867188 C 262.550781 189.160156 262.410156 192.402344 262.054688 195.601562 C 261.914062 196.929688 261.722656 198.253906 261.507812 199.582031 C 261.484375 199.886719 261.4375 200.171875 261.390625 200.457031 C 257.269531 224.097656 242.039062 243.992188 221.21875 254.511719 C 218.824219 255.71875 216.363281 256.808594 213.828125 257.757812 C 213.589844 257.851562 213.328125 257.945312 213.09375 258.015625 C 211.859375 258.46875 210.582031 258.894531 209.304688 259.273438 C 207.003906 259.984375 204.636719 260.550781 202.246094 261.023438 C 201.816406 261.121094 201.367188 261.214844 200.941406 261.285156 C 199.617188 261.523438 198.242188 261.757812 196.890625 261.902344 C 194.355469 262.234375 191.75 262.421875 189.144531 262.46875 C 147.742188 263.394531 113.417969 230.5625 112.519531 189.160156 C 111.617188 147.753906 144.449219 113.453125 185.851562 112.53125 C 212.925781 111.9375 236.921875 125.75 250.542969 146.925781 C 254.332031 152.75 257.292969 159.148438 259.328125 165.945312 C 259.78125 167.390625 260.160156 168.835938 260.515625 170.304688 C 260.894531 171.914062 261.199219 173.523438 261.460938 175.183594 C 262.054688 178.664062 262.386719 182.21875 262.480469 185.867188 " fill-opacity="1" fill-rule="nonzero"/></g><g clip-path="url(#ea44f7a963)"><path fill="#dcce24" d="M 202.246094 261.023438 L 149.042969 243.566406 C 149.019531 243.554688 148.996094 243.550781 148.972656 243.542969 C 149.09375 243.574219 149.21875 243.585938 149.34375 243.585938 C 149.710938 243.585938 150.089844 243.457031 150.410156 243.171875 L 189.667969 207.828125 L 228.925781 243.171875 C 229.246094 243.457031 229.621094 243.585938 229.992188 243.585938 C 230.824219 243.589844 231.621094 242.925781 231.621094 241.945312 L 231.621094 143.84375 C 231.621094 141.480469 230.6875 139.335938 229.175781 137.773438 L 229.199219 137.78125 L 250.542969 146.925781 C 254.332031 152.753906 257.292969 159.148438 259.328125 165.945312 C 259.78125 167.390625 260.160156 168.835938 260.515625 170.304688 C 260.894531 171.914062 261.199219 173.527344 261.460938 175.183594 C 262.054688 178.664062 262.386719 182.21875 262.480469 185.867188 C 262.492188 186.417969 262.496094 186.972656 262.496094 187.523438 C 262.496094 190.246094 262.347656 192.941406 262.054688 195.601562 C 261.910156 196.929688 261.722656 198.253906 261.507812 199.582031 C 261.484375 199.890625 261.4375 200.171875 261.390625 200.457031 C 257.269531 224.097656 242.039062 243.992188 221.21875 254.511719 C 218.824219 255.71875 216.363281 256.808594 213.828125 257.757812 C 213.589844 257.851562 213.328125 257.945312 213.09375 258.015625 C 211.859375 258.46875 210.582031 258.894531 209.304688 259.273438 C 207.003906 259.984375 204.636719 260.550781 202.246094 261.023438 M 223.058594 135.160156 C 223.054688 135.160156 223.050781 135.160156 223.046875 135.160156 L 223.035156 135.160156 L 223.039062 135.152344 L 223.058594 135.160156 " fill-opacity="1" fill-rule="nonzero"/></g><path fill="#00a99d" d="M 189.667969 135.160156 L 156.289062 135.160156 C 151.550781 135.160156 147.714844 139.046875 147.714844 143.84375 L 147.714844 241.945312 C 147.714844 243.359375 149.367188 244.109375 150.410156 243.171875 L 189.667969 207.828125 L 228.925781 243.171875 C 229.96875 244.109375 231.621094 243.359375 231.621094 241.945312 L 231.621094 143.84375 C 231.621094 139.046875 227.78125 135.160156 223.046875 135.160156 L 189.667969 135.160156 " fill-opacity="1" fill-rule="nonzero"/><path fill="#009386" d="M 229.992188 243.585938 C 229.621094 243.585938 229.246094 243.457031 228.925781 243.171875 L 189.667969 207.828125 L 189.667969 135.160156 L 223.046875 135.160156 C 227.78125 135.160156 231.621094 139.046875 231.621094 143.84375 L 231.621094 241.945312 C 231.621094 242.925781 230.824219 243.589844 229.992188 243.585938 " fill-opacity="1" fill-rule="nonzero"/></svg>