<svg xmlns="http://www.w3.org/2000/svg" xmlns:xlink="http://www.w3.org/1999/xlink" zoomAndPan="magnify" preserveAspectRatio="xMidYMid meet" version="1.0" viewBox="112.5 112.5 150 150"><defs><clipPath id="041193bce6"><path d="M 112.5 112.5 L 262.5 112.5 L 262.5 262.5 L 112.5 262.5 Z M 112.5 112.5 " clip-rule="nonzero"/></clipPath></defs><g clip-path="url(#041193bce6)"><path fill="#fbc02d" d="M 187.5 112.5 C 228.921875 112.5 262.5 146.078125 262.5 187.5 C 262.5 228.921875 228.921875 262.5 187.5 262.5 C 146.078125 262.5 112.5 228.921875 112.5 187.5 C 112.5 146.078125 146.078125 112.5 187.5 112.5 " fill-opacity="1" fill-rule="evenodd"/></g><path fill="#bc9227" d="M 235.222656 179.023438 L 190.90625 145.621094 L 146.589844 179.023438 L 146.589844 229.378906 L 235.222656 229.378906 L 235.222656 179.023438 " fill-opacity="1" fill-rule="evenodd"/><path fill="#bc9227" d="M 150.753906 187.921875 L 231.070312 187.921875 L 231.070312 215.195312 L 150.753906 215.195312 L 150.753906 187.921875 " fill-opacity="1" fill-rule="evenodd"/><path fill="#bc9227" d="M 146.597656 179.527344 L 190.910156 203.761719 L 235.226562 179.527344 L 235.226562 229.378906 L 146.597656 229.378906 L 146.597656 179.527344 " fill-opacity="1" fill-rule="evenodd"/><path fill="#bc9227" d="M 190.910156 203.761719 L 235.226562 228.917969 L 235.226562 229.378906 L 146.597656 229.378906 L 146.597656 228.960938 L 190.910156 203.761719 " fill-opacity="1" fill-rule="evenodd"/><path fill="#5fbed6" d="M 231.8125 179.023438 L 187.496094 145.621094 L 143.183594 179.023438 L 143.183594 229.378906 L 231.8125 229.378906 L 231.8125 179.023438 " fill-opacity="1" fill-rule="evenodd"/><path fill="#f1f1f1" d="M 147.34375 215.195312 L 227.660156 215.195312 L 227.660156 187.921875 L 147.34375 187.921875 L 147.34375 215.195312 " fill-opacity="1" fill-rule="evenodd"/><path fill="#63cbe5" d="M 143.1875 179.527344 L 187.503906 203.761719 L 231.816406 179.527344 L 231.816406 229.378906 L 143.1875 229.378906 L 143.1875 179.527344 " fill-opacity="1" fill-rule="evenodd"/><path fill="#65b1c4" d="M 187.503906 203.761719 L 231.816406 228.917969 L 231.816406 229.378906 L 143.1875 229.378906 L 143.1875 228.960938 L 187.503906 203.761719 " fill-opacity="1" fill-rule="evenodd"/></svg>