<svg xmlns="http://www.w3.org/2000/svg" xmlns:xlink="http://www.w3.org/1999/xlink" zoomAndPan="magnify" preserveAspectRatio="xMidYMid meet" version="1.0" viewBox="112.5 112.5 150.04 150.04"><defs><clipPath id="59470b5695"><path d="M 112.5 112.5 L 262.5 112.5 L 262.5 262.5 L 112.5 262.5 Z M 112.5 112.5 " clip-rule="nonzero"/></clipPath><clipPath id="f55b0fa9c3"><path d="M 144 142 L 262.5 142 L 262.5 262.5 L 144 262.5 Z M 144 142 " clip-rule="nonzero"/></clipPath></defs><g clip-path="url(#59470b5695)"><path fill="#5560a9" d="M 262.542969 187.53125 C 262.542969 224.210938 236.21875 254.742188 201.425781 261.257812 C 197.867188 261.921875 194.210938 262.339844 190.492188 262.480469 C 189.515625 262.523438 188.523438 262.542969 187.53125 262.542969 C 182.355469 262.542969 177.300781 262.019531 172.421875 261.019531 C 138.234375 254.027344 112.519531 223.785156 112.519531 187.53125 C 112.519531 146.101562 146.101562 112.519531 187.53125 112.519531 C 218.363281 112.519531 244.84375 131.113281 256.375 157.703125 C 257.859375 161.125 259.097656 164.671875 260.058594 168.328125 C 260.917969 171.578125 261.5625 174.917969 261.976562 178.328125 C 262.351562 181.34375 262.542969 184.417969 262.542969 187.53125 Z M 262.542969 187.53125 " fill-opacity="1" fill-rule="nonzero"/></g><g clip-path="url(#f55b0fa9c3)"><path fill="#3c3f7e" d="M 262.542969 187.53125 C 262.542969 224.210938 236.21875 254.742188 201.425781 261.257812 C 197.867188 261.921875 194.210938 262.339844 190.492188 262.480469 C 189.515625 262.523438 188.523438 262.542969 187.53125 262.542969 C 182.355469 262.542969 177.300781 262.019531 172.421875 261.019531 L 144.621094 239.207031 L 182.25 187.808594 L 175.328125 163.375 L 191.128906 142.171875 L 228.589844 142.171875 L 260.058594 168.328125 C 260.917969 171.578125 261.5625 174.917969 261.976562 178.328125 C 262.351562 181.34375 262.542969 184.417969 262.542969 187.53125 Z M 262.542969 187.53125 " fill-opacity="1" fill-rule="nonzero"/></g><path fill="#c8c8c8" d="M 182.246094 187.8125 L 190.085938 194.59375 L 176.546875 210.242188 L 168.707031 203.457031 Z M 182.246094 187.8125 " fill-opacity="1" fill-rule="nonzero"/><path fill="#ffffff" d="M 228.589844 142.171875 C 214.109375 129.636719 192.203125 131.21875 179.675781 145.703125 C 167.140625 160.183594 168.722656 182.089844 183.203125 194.617188 C 197.6875 207.144531 219.589844 205.570312 232.121094 191.089844 C 244.65625 176.609375 243.074219 154.707031 228.589844 142.171875 Z M 190.53125 186.15625 C 180.722656 177.667969 179.652344 162.839844 188.140625 153.03125 C 196.628906 143.226562 211.457031 142.15625 221.265625 150.644531 C 231.074219 159.132812 232.144531 173.960938 223.65625 183.769531 C 215.164062 193.570312 200.335938 194.640625 190.53125 186.15625 Z M 190.53125 186.15625 " fill-opacity="1" fill-rule="nonzero"/><path fill="#ffffff" d="M 204.621094 170.039062 C 197.296875 170.570312 189.972656 171.097656 182.648438 171.625 C 183.074219 174.726562 184.113281 177.746094 185.757812 180.488281 L 227.558594 177.472656 C 228.792969 174.519531 229.386719 171.378906 229.371094 168.253906 Z M 204.621094 170.039062 " fill-opacity="0.4" fill-rule="nonzero"/><path fill="#ffffff" d="M 228.597656 162.414062 C 227.582031 158.539062 225.566406 154.890625 222.578125 151.878906 L 219.882812 152.078125 C 208.921875 152.867188 197.96875 153.65625 187.007812 154.445312 C 184.488281 157.851562 183.015625 161.753906 182.5625 165.734375 Z M 228.597656 162.414062 " fill-opacity="0.4" fill-rule="nonzero"/><path fill="#d4d92f" d="M 144.621094 239.207031 C 140.96875 236.046875 140.570312 230.515625 143.730469 226.863281 L 163.914062 203.539062 C 165.074219 202.203125 167.09375 202.058594 168.429688 203.210938 L 176.832031 210.476562 C 178.167969 211.636719 178.308594 213.65625 177.15625 214.992188 L 156.972656 238.316406 C 153.804688 241.96875 148.273438 242.367188 144.621094 239.207031 Z M 144.621094 239.207031 " fill-opacity="1" fill-rule="nonzero"/></svg>