<svg xmlns="http://www.w3.org/2000/svg" xmlns:xlink="http://www.w3.org/1999/xlink" zoomAndPan="magnify" preserveAspectRatio="xMidYMid meet" version="1.0" viewBox="112.48 112.48 150.02 150.02"><defs><clipPath id="9ae4aa8d3d"><path d="M 112.5 112.5 L 262.5 112.5 L 262.5 262.5 L 112.5 262.5 Z M 112.5 112.5 " clip-rule="nonzero"/></clipPath></defs><g clip-path="url(#9ae4aa8d3d)"><path fill="#617a80" d="M 262.464844 187.472656 C 262.464844 188.699219 262.433594 189.925781 262.375 191.152344 C 262.3125 192.378906 262.222656 193.601562 262.101562 194.824219 C 261.984375 196.042969 261.832031 197.261719 261.652344 198.476562 C 261.472656 199.691406 261.261719 200.898438 261.023438 202.101562 C 260.785156 203.304688 260.515625 204.503906 260.21875 205.695312 C 259.917969 206.882812 259.589844 208.066406 259.234375 209.242188 C 258.878906 210.414062 258.496094 211.582031 258.082031 212.738281 C 257.667969 213.890625 257.226562 215.035156 256.757812 216.171875 C 256.285156 217.304688 255.789062 218.425781 255.265625 219.535156 C 254.738281 220.644531 254.1875 221.742188 253.609375 222.824219 C 253.03125 223.90625 252.425781 224.972656 251.796875 226.027344 C 251.164062 227.078125 250.507812 228.113281 249.828125 229.136719 C 249.144531 230.15625 248.4375 231.160156 247.707031 232.144531 C 246.976562 233.128906 246.222656 234.097656 245.441406 235.046875 C 244.664062 235.996094 243.863281 236.925781 243.039062 237.832031 C 242.214844 238.742188 241.367188 239.632812 240.5 240.5 C 239.632812 241.367188 238.742188 242.214844 237.835938 243.039062 C 236.925781 243.863281 235.996094 244.664062 235.046875 245.441406 C 234.097656 246.21875 233.132812 246.976562 232.144531 247.707031 C 231.160156 248.4375 230.15625 249.144531 229.136719 249.824219 C 228.117188 250.507812 227.078125 251.164062 226.027344 251.792969 C 224.972656 252.425781 223.90625 253.03125 222.824219 253.609375 C 221.742188 254.1875 220.644531 254.738281 219.535156 255.265625 C 218.425781 255.789062 217.304688 256.285156 216.171875 256.753906 C 215.039062 257.226562 213.894531 257.667969 212.738281 258.082031 C 211.582031 258.492188 210.417969 258.878906 209.242188 259.234375 C 208.066406 259.589844 206.886719 259.917969 205.695312 260.214844 C 204.503906 260.515625 203.308594 260.785156 202.101562 261.023438 C 200.898438 261.261719 199.691406 261.472656 198.476562 261.652344 C 197.261719 261.832031 196.046875 261.984375 194.824219 262.101562 C 193.601562 262.222656 192.378906 262.3125 191.152344 262.375 C 189.925781 262.433594 188.699219 262.464844 187.472656 262.464844 C 186.246094 262.464844 185.019531 262.433594 183.792969 262.375 C 182.566406 262.3125 181.34375 262.222656 180.121094 262.101562 C 178.902344 261.984375 177.683594 261.832031 176.46875 261.652344 C 175.253906 261.472656 174.046875 261.261719 172.84375 261.023438 C 171.640625 260.785156 170.441406 260.515625 169.25 260.214844 C 168.0625 259.917969 166.878906 259.589844 165.703125 259.234375 C 164.53125 258.878906 163.363281 258.492188 162.210938 258.082031 C 161.054688 257.667969 159.910156 257.226562 158.773438 256.753906 C 157.640625 256.285156 156.519531 255.789062 155.410156 255.265625 C 154.300781 254.738281 153.203125 254.1875 152.121094 253.609375 C 151.039062 253.03125 149.972656 252.425781 148.921875 251.792969 C 147.867188 251.164062 146.832031 250.507812 145.808594 249.824219 C 144.789062 249.144531 143.785156 248.4375 142.800781 247.707031 C 141.816406 246.976562 140.847656 246.21875 139.898438 245.441406 C 138.949219 244.664062 138.023438 243.863281 137.113281 243.039062 C 136.203125 242.214844 135.3125 241.367188 134.445312 240.5 C 133.578125 239.632812 132.734375 238.742188 131.910156 237.832031 C 131.085938 236.925781 130.28125 235.996094 129.503906 235.046875 C 128.726562 234.097656 127.972656 233.128906 127.238281 232.144531 C 126.507812 231.160156 125.800781 230.15625 125.121094 229.136719 C 124.4375 228.113281 123.78125 227.078125 123.152344 226.027344 C 122.519531 224.972656 121.914062 223.90625 121.335938 222.824219 C 120.757812 221.742188 120.207031 220.644531 119.683594 219.535156 C 119.15625 218.425781 118.660156 217.304688 118.191406 216.171875 C 117.722656 215.035156 117.277344 213.890625 116.867188 212.738281 C 116.453125 211.582031 116.066406 210.414062 115.710938 209.242188 C 115.355469 208.066406 115.027344 206.882812 114.730469 205.695312 C 114.429688 204.503906 114.164062 203.304688 113.921875 202.101562 C 113.683594 200.898438 113.472656 199.691406 113.292969 198.476562 C 113.113281 197.261719 112.964844 196.042969 112.84375 194.824219 C 112.722656 193.601562 112.632812 192.378906 112.574219 191.152344 C 112.511719 189.925781 112.480469 188.699219 112.480469 187.472656 C 112.480469 186.246094 112.511719 185.019531 112.574219 183.792969 C 112.632812 182.566406 112.722656 181.34375 112.84375 180.121094 C 112.964844 178.902344 113.113281 177.683594 113.292969 176.46875 C 113.472656 175.253906 113.683594 174.046875 113.921875 172.84375 C 114.164062 171.640625 114.429688 170.441406 114.730469 169.25 C 115.027344 168.0625 115.355469 166.878906 115.710938 165.703125 C 116.066406 164.53125 116.453125 163.363281 116.867188 162.207031 C 117.277344 161.054688 117.722656 159.910156 118.191406 158.773438 C 118.660156 157.640625 119.15625 156.519531 119.683594 155.410156 C 120.207031 154.300781 120.757812 153.203125 121.335938 152.121094 C 121.914062 151.039062 122.519531 149.972656 123.152344 148.917969 C 123.78125 147.867188 124.4375 146.832031 125.121094 145.808594 C 125.800781 144.789062 126.507812 143.785156 127.238281 142.800781 C 127.972656 141.816406 128.726562 140.847656 129.503906 139.898438 C 130.28125 138.949219 131.085938 138.019531 131.910156 137.113281 C 132.734375 136.203125 133.578125 135.3125 134.445312 134.445312 C 135.3125 133.578125 136.203125 132.730469 137.113281 131.90625 C 138.023438 131.082031 138.949219 130.28125 139.898438 129.503906 C 140.847656 128.726562 141.816406 127.96875 142.800781 127.238281 C 143.785156 126.507812 144.789062 125.800781 145.808594 125.121094 C 146.832031 124.4375 147.867188 123.78125 148.921875 123.152344 C 149.972656 122.519531 151.039062 121.914062 152.121094 121.335938 C 153.203125 120.757812 154.300781 120.207031 155.410156 119.679688 C 156.519531 119.15625 157.640625 118.660156 158.773438 118.191406 C 159.910156 117.71875 161.054688 117.277344 162.210938 116.863281 C 163.363281 116.453125 164.53125 116.066406 165.703125 115.710938 C 166.878906 115.355469 168.0625 115.027344 169.25 114.730469 C 170.441406 114.429688 171.640625 114.160156 172.84375 113.921875 C 174.046875 113.683594 175.253906 113.472656 176.46875 113.292969 C 177.683594 113.113281 178.902344 112.960938 180.121094 112.84375 C 181.34375 112.722656 182.566406 112.632812 183.792969 112.570312 C 185.019531 112.511719 186.246094 112.480469 187.472656 112.480469 C 188.699219 112.480469 189.925781 112.511719 191.152344 112.570312 C 192.378906 112.632812 193.601562 112.722656 194.824219 112.84375 C 196.046875 112.960938 197.261719 113.113281 198.476562 113.292969 C 199.691406 113.472656 200.898438 113.683594 202.101562 113.921875 C 203.308594 114.160156 204.503906 114.429688 205.695312 114.730469 C 206.886719 115.027344 208.066406 115.355469 209.242188 115.710938 C 210.417969 116.066406 211.582031 116.453125 212.738281 116.863281 C 213.894531 117.277344 215.039062 117.71875 216.171875 118.191406 C 217.304688 118.660156 218.425781 119.15625 219.535156 119.679688 C 220.644531 120.207031 221.742188 120.757812 222.824219 121.335938 C 223.90625 121.914062 224.972656 122.519531 226.027344 123.152344 C 227.078125 123.78125 228.117188 124.4375 229.136719 125.121094 C 230.15625 125.800781 231.160156 126.507812 232.144531 127.238281 C 233.132812 127.96875 234.097656 128.726562 235.046875 129.503906 C 235.996094 130.28125 236.925781 131.082031 237.835938 131.90625 C 238.742188 132.730469 239.632812 133.578125 240.5 134.445312 C 241.367188 135.3125 242.214844 136.203125 243.039062 137.113281 C 243.863281 138.019531 244.664062 138.949219 245.441406 139.898438 C 246.222656 140.847656 246.976562 141.816406 247.707031 142.800781 C 248.4375 143.785156 249.144531 144.789062 249.828125 145.808594 C 250.507812 146.832031 251.164062 147.867188 251.796875 148.917969 C 252.425781 149.972656 253.03125 151.039062 253.609375 152.121094 C 254.1875 153.203125 254.738281 154.300781 255.265625 155.410156 C 255.789062 156.519531 256.285156 157.640625 256.757812 158.773438 C 257.226562 159.910156 257.667969 161.054688 258.082031 162.207031 C 258.496094 163.363281 258.878906 164.53125 259.234375 165.703125 C 259.589844 166.878906 259.917969 168.0625 260.21875 169.25 C 260.515625 170.441406 260.785156 171.640625 261.023438 172.84375 C 261.261719 174.046875 261.472656 175.253906 261.652344 176.46875 C 261.832031 177.683594 261.984375 178.902344 262.101562 180.121094 C 262.222656 181.34375 262.3125 182.566406 262.375 183.792969 C 262.433594 185.019531 262.464844 186.246094 262.464844 187.472656 Z M 262.464844 187.472656 " fill-opacity="1" fill-rule="nonzero"/></g><path fill="#d9cdc1" d="M 222.019531 144.832031 L 152.925781 144.832031 C 145.445312 144.832031 139.386719 150.894531 139.386719 158.371094 L 139.386719 196.234375 C 139.386719 203.710938 145.445312 209.773438 152.925781 209.773438 L 176.554688 209.773438 L 176.554688 230.117188 L 196.894531 209.773438 L 222.019531 209.773438 C 229.496094 209.773438 235.558594 203.710938 235.558594 196.234375 L 235.558594 158.371094 C 235.558594 150.894531 229.496094 144.832031 222.019531 144.832031 Z M 222.019531 144.832031 " fill-opacity="1" fill-rule="nonzero"/><path fill="#dadada" d="M 176.554688 201.011719 L 152.925781 201.011719 C 145.445312 201.011719 139.386719 194.949219 139.386719 187.472656 L 139.386719 196.199219 C 139.386719 203.675781 145.445312 209.738281 152.925781 209.738281 L 176.554688 209.738281 Z M 176.554688 201.011719 " fill-opacity="1" fill-rule="nonzero"/><path fill="#dadada" d="M 222.019531 201.011719 L 196.894531 201.011719 L 176.554688 221.355469 L 176.554688 230.082031 L 196.894531 209.738281 L 222.019531 209.738281 C 229.496094 209.738281 235.558594 203.675781 235.558594 196.199219 L 235.558594 187.472656 C 235.558594 194.949219 229.496094 201.011719 222.019531 201.011719 Z M 222.019531 201.011719 " fill-opacity="1" fill-rule="nonzero"/><path fill="#e5904f" d="M 172.847656 167.335938 C 172.847656 167.753906 172.804688 168.167969 172.726562 168.578125 C 172.644531 168.988281 172.523438 169.382812 172.363281 169.769531 C 172.203125 170.15625 172.007812 170.523438 171.773438 170.871094 C 171.542969 171.21875 171.28125 171.539062 170.984375 171.835938 C 170.6875 172.128906 170.367188 172.394531 170.019531 172.625 C 169.671875 172.855469 169.304688 173.054688 168.921875 173.214844 C 168.535156 173.371094 168.136719 173.492188 167.726562 173.574219 C 167.316406 173.65625 166.902344 173.699219 166.484375 173.699219 C 166.066406 173.699219 165.65625 173.65625 165.246094 173.574219 C 164.835938 173.492188 164.4375 173.371094 164.050781 173.214844 C 163.664062 173.054688 163.300781 172.855469 162.953125 172.625 C 162.605469 172.394531 162.28125 172.128906 161.988281 171.835938 C 161.691406 171.539062 161.429688 171.21875 161.195312 170.871094 C 160.964844 170.523438 160.769531 170.15625 160.609375 169.769531 C 160.449219 169.382812 160.328125 168.988281 160.246094 168.578125 C 160.164062 168.167969 160.125 167.753906 160.125 167.335938 C 160.125 166.917969 160.164062 166.503906 160.246094 166.09375 C 160.328125 165.683594 160.449219 165.289062 160.609375 164.902344 C 160.769531 164.515625 160.964844 164.148438 161.195312 163.800781 C 161.429688 163.453125 161.691406 163.132812 161.988281 162.835938 C 162.28125 162.542969 162.605469 162.277344 162.953125 162.046875 C 163.300781 161.8125 163.664062 161.617188 164.050781 161.457031 C 164.4375 161.296875 164.835938 161.179688 165.246094 161.097656 C 165.65625 161.015625 166.066406 160.972656 166.484375 160.972656 C 166.902344 160.972656 167.316406 161.015625 167.726562 161.097656 C 168.136719 161.179688 168.535156 161.296875 168.921875 161.457031 C 169.304688 161.617188 169.671875 161.8125 170.019531 162.046875 C 170.367188 162.277344 170.6875 162.542969 170.984375 162.835938 C 171.28125 163.132812 171.542969 163.453125 171.773438 163.800781 C 172.007812 164.148438 172.203125 164.515625 172.363281 164.902344 C 172.523438 165.289062 172.644531 165.683594 172.726562 166.09375 C 172.804688 166.503906 172.847656 166.917969 172.847656 167.335938 Z M 172.847656 167.335938 " fill-opacity="1" fill-rule="nonzero"/><path fill="#e5904f" d="M 193.832031 176.386719 C 193.832031 176.804688 193.792969 177.21875 193.710938 177.625 C 193.628906 178.035156 193.507812 178.433594 193.347656 178.820312 C 193.191406 179.207031 192.992188 179.574219 192.761719 179.917969 C 192.53125 180.265625 192.265625 180.589844 191.96875 180.882812 C 191.675781 181.179688 191.355469 181.441406 191.007812 181.675781 C 190.660156 181.90625 190.292969 182.101562 189.90625 182.261719 C 189.519531 182.421875 189.121094 182.542969 188.714844 182.625 C 188.304688 182.707031 187.890625 182.746094 187.472656 182.746094 C 187.054688 182.746094 186.640625 182.707031 186.230469 182.625 C 185.820312 182.542969 185.421875 182.421875 185.039062 182.261719 C 184.652344 182.101562 184.285156 181.90625 183.9375 181.675781 C 183.589844 181.441406 183.269531 181.179688 182.972656 180.882812 C 182.679688 180.589844 182.414062 180.265625 182.183594 179.917969 C 181.949219 179.574219 181.753906 179.207031 181.59375 178.820312 C 181.433594 178.433594 181.3125 178.035156 181.234375 177.625 C 181.152344 177.21875 181.109375 176.804688 181.109375 176.386719 C 181.109375 175.96875 181.152344 175.554688 181.234375 175.144531 C 181.3125 174.734375 181.433594 174.335938 181.59375 173.949219 C 181.753906 173.566406 181.949219 173.199219 182.183594 172.851562 C 182.414062 172.503906 182.679688 172.183594 182.972656 171.886719 C 183.269531 171.59375 183.589844 171.328125 183.9375 171.097656 C 184.285156 170.863281 184.652344 170.667969 185.039062 170.507812 C 185.421875 170.347656 185.820312 170.226562 186.230469 170.144531 C 186.640625 170.066406 187.054688 170.023438 187.472656 170.023438 C 187.890625 170.023438 188.304688 170.066406 188.714844 170.144531 C 189.121094 170.226562 189.519531 170.347656 189.90625 170.507812 C 190.292969 170.667969 190.660156 170.863281 191.007812 171.097656 C 191.355469 171.328125 191.675781 171.59375 191.96875 171.886719 C 192.265625 172.183594 192.53125 172.503906 192.761719 172.851562 C 192.992188 173.199219 193.191406 173.566406 193.347656 173.949219 C 193.507812 174.335938 193.628906 174.734375 193.710938 175.144531 C 193.792969 175.554688 193.832031 175.96875 193.832031 176.386719 Z M 193.832031 176.386719 " fill-opacity="1" fill-rule="nonzero"/><path fill="#e5904f" d="M 214.820312 176.386719 C 214.820312 176.804688 214.78125 177.21875 214.699219 177.625 C 214.617188 178.035156 214.496094 178.433594 214.335938 178.820312 C 214.175781 179.207031 213.980469 179.574219 213.75 179.917969 C 213.515625 180.265625 213.253906 180.589844 212.957031 180.882812 C 212.660156 181.179688 212.339844 181.441406 211.992188 181.675781 C 211.644531 181.90625 211.28125 182.101562 210.894531 182.261719 C 210.507812 182.421875 210.109375 182.542969 209.699219 182.625 C 209.289062 182.707031 208.875 182.746094 208.460938 182.746094 C 208.042969 182.746094 207.628906 182.707031 207.21875 182.625 C 206.808594 182.542969 206.410156 182.421875 206.023438 182.261719 C 205.640625 182.101562 205.273438 181.90625 204.925781 181.675781 C 204.578125 181.441406 204.257812 181.179688 203.960938 180.882812 C 203.664062 180.589844 203.402344 180.265625 203.167969 179.917969 C 202.9375 179.574219 202.742188 179.207031 202.582031 178.820312 C 202.421875 178.433594 202.300781 178.035156 202.21875 177.625 C 202.136719 177.21875 202.097656 176.804688 202.097656 176.386719 C 202.097656 175.96875 202.136719 175.554688 202.21875 175.144531 C 202.300781 174.734375 202.421875 174.335938 202.582031 173.949219 C 202.742188 173.566406 202.9375 173.199219 203.167969 172.851562 C 203.402344 172.503906 203.664062 172.183594 203.960938 171.886719 C 204.257812 171.59375 204.578125 171.328125 204.925781 171.097656 C 205.273438 170.863281 205.640625 170.667969 206.023438 170.507812 C 206.410156 170.347656 206.808594 170.226562 207.21875 170.144531 C 207.628906 170.066406 208.042969 170.023438 208.460938 170.023438 C 208.875 170.023438 209.289062 170.066406 209.699219 170.144531 C 210.109375 170.226562 210.507812 170.347656 210.894531 170.507812 C 211.28125 170.667969 211.644531 170.863281 211.992188 171.097656 C 212.339844 171.328125 212.660156 171.59375 212.957031 171.886719 C 213.253906 172.183594 213.515625 172.503906 213.75 172.851562 C 213.980469 173.199219 214.175781 173.566406 214.335938 173.949219 C 214.496094 174.335938 214.617188 174.734375 214.699219 175.144531 C 214.78125 175.554688 214.820312 175.96875 214.820312 176.386719 Z M 214.820312 176.386719 " fill-opacity="1" fill-rule="nonzero"/></svg>