<svg xmlns="http://www.w3.org/2000/svg" xmlns:xlink="http://www.w3.org/1999/xlink" zoomAndPan="magnify" preserveAspectRatio="xMidYMid meet" version="1.0" viewBox="112.5 112.5 150.04 150.04"><defs><clipPath id="6f93673658"><path d="M 112.5 112.5 L 262.5 112.5 L 262.5 262.5 L 112.5 262.5 Z M 112.5 112.5 " clip-rule="nonzero"/></clipPath><clipPath id="4891cd1e81"><path d="M 147 137 L 262.5 137 L 262.5 261 L 147 261 Z M 147 137 " clip-rule="nonzero"/></clipPath></defs><g clip-path="url(#6f93673658)"><path fill="#5560a9" d="M 262.542969 187.53125 C 262.542969 220.953125 240.691406 249.265625 210.496094 258.953125 C 208.554688 259.582031 206.582031 260.128906 204.574219 260.597656 C 204.21875 260.683594 203.855469 260.765625 203.496094 260.84375 C 203.117188 260.925781 202.730469 261.003906 202.34375 261.082031 C 202.035156 261.140625 201.734375 261.199219 201.425781 261.257812 C 196.921875 262.101562 192.277344 262.542969 187.53125 262.542969 C 146.101562 262.542969 112.519531 228.960938 112.519531 187.53125 C 112.519531 146.101562 146.101562 112.519531 187.53125 112.519531 C 214.421875 112.519531 238.007812 126.664062 251.242188 147.921875 C 251.683594 148.628906 252.109375 149.34375 252.527344 150.066406 C 253.953125 152.527344 255.234375 155.078125 256.375 157.703125 C 257.070312 159.304688 257.710938 160.933594 258.292969 162.597656 C 259.46875 165.921875 260.410156 169.351562 261.105469 172.867188 C 262.046875 177.609375 262.542969 182.515625 262.542969 187.53125 Z M 262.542969 187.53125 " fill-opacity="1" fill-rule="nonzero"/></g><g clip-path="url(#4891cd1e81)"><path fill="#3c3f7e" d="M 262.542969 187.53125 C 262.542969 220.953125 240.691406 249.265625 210.496094 258.953125 C 208.554688 259.582031 206.582031 260.128906 204.574219 260.597656 C 204.21875 260.683594 203.855469 260.765625 203.496094 260.84375 L 147.132812 237.585938 L 225.652344 137.472656 L 252.527344 150.066406 C 253.953125 152.527344 255.234375 155.078125 256.375 157.703125 C 257.070312 159.304688 257.710938 160.933594 258.292969 162.597656 C 259.46875 165.921875 260.410156 169.351562 261.105469 172.867188 C 262.046875 177.609375 262.542969 182.515625 262.542969 187.53125 Z M 262.542969 187.53125 " fill-opacity="1" fill-rule="nonzero"/></g><path fill="#fdc93b" d="M 217.761719 184.886719 L 155.355469 184.886719 C 154.613281 184.886719 153.953125 184.429688 153.691406 183.734375 L 151.839844 178.851562 C 151.558594 178.121094 150.863281 177.636719 150.085938 177.636719 L 135.015625 177.636719 C 133.808594 177.636719 132.910156 178.765625 133.183594 179.945312 L 146.632812 237.585938 L 230.058594 237.585938 Z M 217.761719 184.886719 " fill-opacity="1" fill-rule="nonzero"/><path fill="#ffffff" d="M 150.882812 137.472656 L 225.652344 137.472656 L 225.652344 232.046875 L 150.882812 232.046875 Z M 150.882812 137.472656 " fill-opacity="1" fill-rule="nonzero"/><path fill="#c8c8c8" d="M 158.242188 146.574219 L 179.96875 146.574219 L 179.96875 170.3125 L 158.242188 170.3125 Z M 158.242188 146.574219 " fill-opacity="1" fill-rule="nonzero"/><path fill="#e2e1e1" d="M 185.789062 146.574219 L 218.261719 146.574219 L 218.261719 149.039062 L 185.789062 149.039062 Z M 185.789062 146.574219 " fill-opacity="1" fill-rule="nonzero"/><path fill="#e2e1e1" d="M 185.789062 153.519531 L 218.261719 153.519531 L 218.261719 155.984375 L 185.789062 155.984375 Z M 185.789062 153.519531 " fill-opacity="1" fill-rule="nonzero"/><path fill="#e2e1e1" d="M 185.789062 160.457031 L 218.261719 160.457031 L 218.261719 162.921875 L 185.789062 162.921875 Z M 185.789062 160.457031 " fill-opacity="1" fill-rule="nonzero"/><path fill="#e2e1e1" d="M 185.789062 167.402344 L 218.261719 167.402344 L 218.261719 169.867188 L 185.789062 169.867188 Z M 185.789062 167.402344 " fill-opacity="1" fill-rule="nonzero"/><path fill="#e2e1e1" d="M 158.242188 174.339844 L 218.261719 174.339844 L 218.261719 176.808594 L 158.242188 176.808594 Z M 158.242188 174.339844 " fill-opacity="1" fill-rule="nonzero"/><path fill="#e2e1e1" d="M 158.242188 181.285156 L 218.261719 181.285156 L 218.261719 183.75 L 158.242188 183.75 Z M 158.242188 181.285156 " fill-opacity="1" fill-rule="nonzero"/><path fill="#e2e1e1" d="M 158.242188 188.230469 L 218.261719 188.230469 L 218.261719 190.695312 L 158.242188 190.695312 Z M 158.242188 188.230469 " fill-opacity="1" fill-rule="nonzero"/><path fill="#e2e1e1" d="M 158.242188 195.167969 L 218.261719 195.167969 L 218.261719 197.632812 L 158.242188 197.632812 Z M 158.242188 195.167969 " fill-opacity="1" fill-rule="nonzero"/><path fill="#e2e1e1" d="M 158.242188 202.113281 L 218.261719 202.113281 L 218.261719 204.578125 L 158.242188 204.578125 Z M 158.242188 202.113281 " fill-opacity="1" fill-rule="nonzero"/><path fill="#e2e1e1" d="M 158.242188 209.050781 L 218.261719 209.050781 L 218.261719 211.519531 L 158.242188 211.519531 Z M 158.242188 209.050781 " fill-opacity="1" fill-rule="nonzero"/><path fill="#e2e1e1" d="M 158.242188 215.996094 L 218.261719 215.996094 L 218.261719 218.460938 L 158.242188 218.460938 Z M 158.242188 215.996094 " fill-opacity="1" fill-rule="nonzero"/><path fill="#e2e1e1" d="M 158.242188 222.941406 L 218.261719 222.941406 L 218.261719 225.40625 L 158.242188 225.40625 Z M 158.242188 222.941406 " fill-opacity="1" fill-rule="nonzero"/><path fill="#f7a739" d="M 182.855469 184.886719 L 184.15625 181.113281 C 184.742188 179.414062 183.476562 177.644531 181.679688 177.644531 L 163.195312 177.644531 C 161.980469 177.644531 160.921875 178.480469 160.648438 179.664062 L 147.132812 237.585938 L 230.558594 237.585938 L 241.828125 189.289062 C 242.347656 187.035156 240.644531 184.886719 238.332031 184.886719 Z M 182.855469 184.886719 " fill-opacity="1" fill-rule="nonzero"/></svg>