<svg xmlns="http://www.w3.org/2000/svg" xmlns:xlink="http://www.w3.org/1999/xlink" zoomAndPan="magnify" preserveAspectRatio="xMidYMid meet" version="1.0" viewBox="112.5 112.5 150 150"><defs><clipPath id="75a3363d30"><path d="M 112.5 112.5 L 262.5 112.5 L 262.5 262.5 L 112.5 262.5 Z M 112.5 112.5 " clip-rule="nonzero"/></clipPath></defs><g clip-path="url(#75a3363d30)"><path fill="#e1e3e8" d="M 262.5 187.5 C 262.5 188.726562 262.46875 189.953125 262.410156 191.179688 C 262.347656 192.40625 262.257812 193.628906 262.140625 194.851562 C 262.019531 196.074219 261.867188 197.289062 261.6875 198.503906 C 261.507812 199.71875 261.296875 200.929688 261.058594 202.132812 C 260.820312 203.335938 260.550781 204.53125 260.253906 205.722656 C 259.953125 206.914062 259.625 208.097656 259.269531 209.269531 C 258.914062 210.445312 258.53125 211.609375 258.117188 212.765625 C 257.703125 213.921875 257.261719 215.066406 256.789062 216.203125 C 256.320312 217.335938 255.824219 218.457031 255.300781 219.566406 C 254.773438 220.675781 254.222656 221.773438 253.644531 222.855469 C 253.066406 223.9375 252.460938 225.003906 251.828125 226.058594 C 251.199219 227.109375 250.542969 228.148438 249.859375 229.167969 C 249.179688 230.1875 248.472656 231.191406 247.742188 232.175781 C 247.007812 233.164062 246.253906 234.128906 245.476562 235.078125 C 244.695312 236.027344 243.894531 236.957031 243.070312 237.867188 C 242.246094 238.777344 241.402344 239.664062 240.53125 240.53125 C 239.664062 241.402344 238.777344 242.246094 237.867188 243.070312 C 236.957031 243.894531 236.027344 244.695312 235.078125 245.476562 C 234.128906 246.253906 233.164062 247.007812 232.175781 247.742188 C 231.191406 248.472656 230.1875 249.179688 229.167969 249.859375 C 228.148438 250.542969 227.109375 251.199219 226.058594 251.828125 C 225.003906 252.460938 223.9375 253.066406 222.855469 253.644531 C 221.773438 254.222656 220.675781 254.773438 219.566406 255.300781 C 218.457031 255.824219 217.335938 256.320312 216.203125 256.789062 C 215.066406 257.261719 213.921875 257.703125 212.765625 258.117188 C 211.609375 258.527344 210.445312 258.914062 209.269531 259.269531 C 208.097656 259.625 206.914062 259.953125 205.722656 260.253906 C 204.53125 260.550781 203.335938 260.820312 202.132812 261.058594 C 200.929688 261.296875 199.71875 261.507812 198.503906 261.6875 C 197.289062 261.867188 196.074219 262.019531 194.851562 262.140625 C 193.628906 262.257812 192.40625 262.347656 191.179688 262.410156 C 189.953125 262.46875 188.726562 262.5 187.5 262.5 C 186.273438 262.5 185.046875 262.46875 183.820312 262.410156 C 182.59375 262.347656 181.371094 262.257812 180.148438 262.140625 C 178.925781 262.019531 177.710938 261.867188 176.496094 261.6875 C 175.28125 261.507812 174.070312 261.296875 172.867188 261.058594 C 171.664062 260.820312 170.46875 260.550781 169.277344 260.253906 C 168.085938 259.953125 166.902344 259.625 165.730469 259.269531 C 164.554688 258.914062 163.390625 258.527344 162.234375 258.117188 C 161.078125 257.703125 159.933594 257.261719 158.796875 256.789062 C 157.664062 256.320312 156.542969 255.824219 155.433594 255.300781 C 154.324219 254.773438 153.226562 254.222656 152.144531 253.644531 C 151.0625 253.066406 149.996094 252.460938 148.941406 251.828125 C 147.890625 251.199219 146.851562 250.542969 145.832031 249.859375 C 144.8125 249.179688 143.808594 248.472656 142.824219 247.742188 C 141.835938 247.007812 140.871094 246.253906 139.921875 245.476562 C 138.972656 244.695312 138.042969 243.894531 137.132812 243.070312 C 136.222656 242.246094 135.335938 241.402344 134.46875 240.53125 C 133.597656 239.664062 132.753906 238.777344 131.929688 237.867188 C 131.105469 236.957031 130.304688 236.027344 129.523438 235.078125 C 128.746094 234.128906 127.992188 233.164062 127.257812 232.175781 C 126.527344 231.191406 125.820312 230.1875 125.140625 229.167969 C 124.457031 228.148438 123.800781 227.109375 123.171875 226.058594 C 122.539062 225.003906 121.933594 223.9375 121.355469 222.855469 C 120.777344 221.773438 120.226562 220.675781 119.699219 219.566406 C 119.175781 218.457031 118.679688 217.335938 118.210938 216.203125 C 117.738281 215.066406 117.296875 213.921875 116.882812 212.765625 C 116.46875 211.609375 116.085938 210.445312 115.730469 209.269531 C 115.375 208.097656 115.046875 206.914062 114.746094 205.722656 C 114.449219 204.53125 114.179688 203.335938 113.941406 202.132812 C 113.703125 200.929688 113.492188 199.71875 113.3125 198.503906 C 113.132812 197.289062 112.980469 196.074219 112.859375 194.851562 C 112.742188 193.628906 112.652344 192.40625 112.589844 191.179688 C 112.53125 189.953125 112.5 188.726562 112.5 187.5 C 112.5 186.273438 112.53125 185.046875 112.589844 183.820312 C 112.652344 182.59375 112.742188 181.371094 112.859375 180.148438 C 112.980469 178.925781 113.132812 177.710938 113.3125 176.496094 C 113.492188 175.28125 113.703125 174.070312 113.941406 172.867188 C 114.179688 171.664062 114.449219 170.46875 114.746094 169.277344 C 115.046875 168.085938 115.375 166.902344 115.730469 165.730469 C 116.085938 164.554688 116.46875 163.390625 116.882812 162.234375 C 117.296875 161.078125 117.738281 159.933594 118.210938 158.796875 C 118.679688 157.664062 119.175781 156.542969 119.699219 155.433594 C 120.226562 154.324219 120.777344 153.226562 121.355469 152.144531 C 121.933594 151.0625 122.539062 149.996094 123.171875 148.941406 C 123.800781 147.890625 124.457031 146.851562 125.140625 145.832031 C 125.820312 144.8125 126.527344 143.808594 127.257812 142.824219 C 127.992188 141.835938 128.746094 140.871094 129.523438 139.921875 C 130.304688 138.972656 131.105469 138.042969 131.929688 137.132812 C 132.753906 136.222656 133.597656 135.335938 134.46875 134.46875 C 135.335938 133.597656 136.222656 132.753906 137.132812 131.929688 C 138.042969 131.105469 138.972656 130.304688 139.921875 129.523438 C 140.871094 128.746094 141.835938 127.992188 142.824219 127.257812 C 143.808594 126.527344 144.8125 125.820312 145.832031 125.140625 C 146.851562 124.457031 147.890625 123.800781 148.941406 123.171875 C 149.996094 122.539062 151.0625 121.933594 152.144531 121.355469 C 153.226562 120.777344 154.324219 120.226562 155.433594 119.699219 C 156.542969 119.175781 157.664062 118.679688 158.796875 118.210938 C 159.933594 117.738281 161.078125 117.296875 162.234375 116.882812 C 163.390625 116.46875 164.554688 116.085938 165.730469 115.730469 C 166.902344 115.375 168.085938 115.046875 169.277344 114.746094 C 170.46875 114.449219 171.664062 114.179688 172.867188 113.941406 C 174.070312 113.703125 175.28125 113.492188 176.496094 113.3125 C 177.710938 113.132812 178.925781 112.980469 180.148438 112.859375 C 181.371094 112.742188 182.59375 112.652344 183.820312 112.589844 C 185.046875 112.53125 186.273438 112.5 187.5 112.5 C 188.726562 112.5 189.953125 112.53125 191.179688 112.589844 C 192.40625 112.652344 193.628906 112.742188 194.851562 112.859375 C 196.074219 112.980469 197.289062 113.132812 198.503906 113.3125 C 199.71875 113.492188 200.929688 113.703125 202.132812 113.941406 C 203.335938 114.179688 204.53125 114.449219 205.722656 114.746094 C 206.914062 115.046875 208.097656 115.375 209.269531 115.730469 C 210.445312 116.085938 211.609375 116.46875 212.765625 116.882812 C 213.921875 117.296875 215.066406 117.738281 216.203125 118.210938 C 217.335938 118.679688 218.457031 119.175781 219.566406 119.699219 C 220.675781 120.226562 221.773438 120.777344 222.855469 121.355469 C 223.9375 121.933594 225.003906 122.539062 226.058594 123.171875 C 227.109375 123.800781 228.148438 124.457031 229.167969 125.140625 C 230.1875 125.820312 231.191406 126.527344 232.175781 127.257812 C 233.164062 127.992188 234.128906 128.746094 235.078125 129.523438 C 236.027344 130.304688 236.957031 131.105469 237.867188 131.929688 C 238.777344 132.753906 239.664062 133.597656 240.53125 134.46875 C 241.402344 135.335938 242.246094 136.222656 243.070312 137.132812 C 243.894531 138.042969 244.695312 138.972656 245.476562 139.921875 C 246.253906 140.871094 247.007812 141.835938 247.742188 142.824219 C 248.472656 143.808594 249.179688 144.8125 249.859375 145.832031 C 250.542969 146.851562 251.199219 147.890625 251.828125 148.941406 C 252.460938 149.996094 253.066406 151.0625 253.644531 152.144531 C 254.222656 153.226562 254.773438 154.324219 255.300781 155.433594 C 255.824219 156.542969 256.320312 157.664062 256.789062 158.796875 C 257.261719 159.933594 257.703125 161.078125 258.117188 162.234375 C 258.53125 163.390625 258.914062 164.554688 259.269531 165.730469 C 259.625 166.902344 259.953125 168.085938 260.253906 169.277344 C 260.550781 170.46875 260.820312 171.664062 261.058594 172.867188 C 261.296875 174.070312 261.507812 175.28125 261.6875 176.496094 C 261.867188 177.710938 262.019531 178.925781 262.140625 180.148438 C 262.257812 181.371094 262.347656 182.59375 262.410156 183.820312 C 262.46875 185.046875 262.5 186.273438 262.5 187.5 Z M 262.5 187.5 " fill-opacity="1" fill-rule="nonzero"/></g><path fill="#205081" d="M 135.886719 151.695312 L 238.953125 151.695312 C 239.257812 151.695312 239.5625 151.722656 239.863281 151.785156 C 240.164062 151.84375 240.457031 151.933594 240.742188 152.050781 C 241.023438 152.167969 241.292969 152.3125 241.550781 152.480469 C 241.804688 152.652344 242.042969 152.847656 242.257812 153.0625 C 242.476562 153.28125 242.671875 153.515625 242.839844 153.773438 C 243.011719 154.027344 243.15625 154.296875 243.273438 154.582031 C 243.390625 154.863281 243.480469 155.15625 243.539062 155.457031 C 243.597656 155.757812 243.628906 156.0625 243.628906 156.371094 L 243.628906 223.304688 C 243.628906 223.613281 243.597656 223.917969 243.539062 224.21875 C 243.480469 224.519531 243.390625 224.8125 243.273438 225.097656 C 243.15625 225.378906 243.011719 225.648438 242.839844 225.90625 C 242.671875 226.160156 242.476562 226.398438 242.257812 226.613281 C 242.042969 226.832031 241.804688 227.023438 241.550781 227.195312 C 241.292969 227.367188 241.023438 227.511719 240.742188 227.628906 C 240.457031 227.746094 240.164062 227.835938 239.863281 227.894531 C 239.5625 227.953125 239.257812 227.984375 238.953125 227.984375 L 135.886719 227.984375 C 135.578125 227.984375 135.277344 227.953125 134.972656 227.894531 C 134.671875 227.835938 134.382812 227.746094 134.097656 227.628906 C 133.8125 227.511719 133.542969 227.367188 133.289062 227.195312 C 133.03125 227.023438 132.796875 226.832031 132.578125 226.613281 C 132.363281 226.398438 132.167969 226.160156 131.996094 225.90625 C 131.828125 225.648438 131.683594 225.378906 131.566406 225.097656 C 131.449219 224.8125 131.359375 224.519531 131.300781 224.21875 C 131.238281 223.917969 131.210938 223.613281 131.210938 223.304688 L 131.210938 156.371094 C 131.210938 156.0625 131.238281 155.757812 131.300781 155.457031 C 131.359375 155.15625 131.449219 154.863281 131.566406 154.582031 C 131.683594 154.296875 131.828125 154.027344 131.996094 153.773438 C 132.167969 153.515625 132.363281 153.28125 132.578125 153.0625 C 132.796875 152.847656 133.03125 152.652344 133.289062 152.480469 C 133.542969 152.3125 133.8125 152.167969 134.097656 152.050781 C 134.382812 151.933594 134.671875 151.84375 134.972656 151.785156 C 135.277344 151.722656 135.578125 151.695312 135.886719 151.695312 Z M 135.886719 151.695312 " fill-opacity="1" fill-rule="evenodd"/><path fill="#2a68a6" d="M 135.886719 151.695312 L 239.113281 151.695312 C 241.695312 151.695312 243.789062 153.789062 243.789062 156.371094 L 243.789062 161.855469 L 195.566406 188.144531 C 191.046875 190.402344 183.953125 190.402344 179.597656 188.144531 L 131.210938 161.855469 L 131.210938 156.371094 C 131.210938 153.789062 133.304688 151.695312 135.886719 151.695312 Z M 135.886719 151.695312 " fill-opacity="1" fill-rule="evenodd"/><path fill="#0e4275" d="M 243.789062 161.855469 L 243.789062 165.082031 L 195.566406 191.371094 C 191.046875 193.789062 183.953125 193.789062 179.597656 191.371094 L 131.210938 165.082031 L 131.210938 161.855469 L 179.597656 188.144531 C 183.953125 190.402344 191.046875 190.402344 195.566406 188.144531 Z M 243.789062 161.855469 " fill-opacity="1" fill-rule="evenodd"/><path fill="#5b95cf" d="M 132.015625 153.953125 C 132.824219 152.660156 134.273438 151.695312 135.886719 151.695312 L 239.113281 151.695312 C 240.726562 151.695312 242.339844 152.660156 243.144531 153.953125 C 242.339844 153.628906 241.695312 153.46875 240.886719 153.46875 L 134.113281 153.46875 C 133.304688 153.46875 132.660156 153.628906 132.015625 153.953125 Z M 132.015625 153.953125 " fill-opacity="1" fill-rule="evenodd"/><path fill="#0e4275" d="M 131.695312 225.402344 L 243.304688 225.402344 C 242.5 227.015625 240.886719 227.984375 239.113281 227.984375 L 135.886719 227.984375 C 134.113281 227.984375 132.5 227.015625 131.695312 225.402344 Z M 131.695312 225.402344 " fill-opacity="1" fill-rule="evenodd"/><path fill="#ffc926" d="M 178.953125 185.886719 L 196.046875 185.886719 L 196.046875 196.53125 C 196.046875 197.984375 194.917969 199.273438 193.46875 199.273438 L 181.695312 199.273438 C 180.082031 199.273438 178.953125 197.984375 178.953125 196.53125 Z M 178.953125 185.886719 " fill-opacity="1" fill-rule="evenodd"/><path fill="#edb423" d="M 178.953125 185.886719 L 196.046875 185.886719 L 196.046875 186.855469 L 178.953125 186.855469 Z M 178.953125 185.886719 " fill-opacity="1" fill-rule="evenodd"/><path fill="#ffc926" d="M 178.789062 183.46875 L 196.21875 183.46875 C 196.394531 183.46875 196.546875 183.515625 196.675781 183.609375 C 196.800781 183.703125 196.863281 183.816406 196.863281 183.953125 L 196.863281 185.347656 C 196.863281 185.480469 196.800781 185.59375 196.675781 185.6875 C 196.546875 185.78125 196.394531 185.828125 196.21875 185.828125 L 178.789062 185.828125 C 178.613281 185.828125 178.460938 185.78125 178.335938 185.6875 C 178.207031 185.59375 178.144531 185.480469 178.144531 185.347656 L 178.144531 183.953125 C 178.144531 183.816406 178.207031 183.703125 178.335938 183.609375 C 178.460938 183.515625 178.613281 183.46875 178.789062 183.46875 Z M 178.789062 183.46875 " fill-opacity="1" fill-rule="evenodd"/><path fill="#ad7607" d="M 187.5 189.113281 C 188.628906 189.113281 189.433594 189.917969 189.433594 190.886719 C 189.433594 191.695312 188.953125 192.339844 188.304688 192.660156 L 188.304688 195.242188 C 188.304688 195.726562 187.984375 196.046875 187.5 196.046875 C 187.015625 196.046875 186.695312 195.726562 186.695312 195.242188 L 186.695312 192.660156 C 186.046875 192.339844 185.566406 191.695312 185.566406 190.886719 C 185.566406 189.917969 186.53125 189.113281 187.5 189.113281 Z M 187.5 189.113281 " fill-opacity="1" fill-rule="evenodd"/><path fill="#ffaa15" d="M 208.953125 144.433594 L 208.953125 151.695312 L 206.53125 151.695312 L 206.53125 145.402344 C 206.53125 144.917969 206.210938 144.433594 205.566406 144.273438 C 193.628906 142.015625 181.371094 141.855469 169.433594 144.273438 C 168.789062 144.433594 168.46875 144.917969 168.46875 145.402344 L 168.46875 151.695312 L 166.046875 151.695312 L 166.046875 144.433594 C 166.046875 138.628906 208.953125 138.789062 208.953125 144.433594 Z M 208.953125 144.433594 " fill-opacity="1" fill-rule="nonzero"/><path fill="#205081" d="M 170.402344 139.433594 C 175.886719 138.304688 181.53125 137.824219 187.175781 137.824219 C 192.984375 137.824219 198.789062 138.46875 204.597656 139.597656 C 205.242188 139.757812 205.726562 140.242188 205.566406 140.886719 L 205.082031 144.433594 C 205.082031 144.757812 204.917969 145.082031 204.597656 145.242188 C 204.433594 145.566406 204.113281 145.566406 203.628906 145.566406 C 198.144531 144.433594 192.660156 143.789062 187.175781 143.789062 C 181.855469 143.789062 176.53125 144.433594 171.371094 145.402344 C 171.046875 145.402344 170.726562 145.402344 170.402344 145.242188 C 170.082031 144.917969 169.917969 144.757812 169.917969 144.433594 L 169.433594 140.886719 C 169.273438 140.242188 169.757812 139.597656 170.402344 139.433594 Z M 170.402344 139.433594 " fill-opacity="1" fill-rule="nonzero"/><path fill="#5b95cf" d="M 170.402344 139.433594 C 181.695312 137.175781 193.304688 137.339844 204.597656 139.597656 C 205.242188 139.757812 205.566406 140.242188 205.566406 140.726562 C 193.628906 138.144531 181.53125 138.144531 169.433594 140.566406 C 169.433594 140.082031 169.757812 139.597656 170.402344 139.433594 Z M 170.402344 139.433594 " fill-opacity="1" fill-rule="nonzero"/><path fill="#0e4275" d="M 205.082031 144.597656 C 205.082031 144.757812 204.917969 145.082031 204.597656 145.242188 C 204.433594 145.566406 204.113281 145.566406 203.628906 145.566406 C 198.144531 144.433594 192.660156 143.789062 187.175781 143.789062 C 181.855469 143.789062 176.53125 144.433594 171.371094 145.402344 C 171.046875 145.402344 170.726562 145.402344 170.402344 145.242188 C 170.082031 145.082031 169.917969 144.757812 169.917969 144.433594 C 170.082031 144.273438 170.242188 144.273438 170.402344 144.273438 C 175.886719 143.144531 181.53125 142.5 187.175781 142.660156 C 192.984375 142.660156 198.789062 143.144531 204.597656 144.273438 C 204.757812 144.273438 204.917969 144.433594 205.082031 144.597656 Z M 205.082031 144.597656 " fill-opacity="1" fill-rule="nonzero"/></svg>