<svg xmlns="http://www.w3.org/2000/svg" xmlns:xlink="http://www.w3.org/1999/xlink" zoomAndPan="magnify" preserveAspectRatio="xMidYMid meet" version="1.0" viewBox="112.5 112.5 150.03 150.03"><defs><clipPath id="b33f4e886f"><path d="M 112.5 112.5 L 262.5 112.5 L 262.5 262.5 L 112.5 262.5 Z M 112.5 112.5 " clip-rule="nonzero"/></clipPath></defs><g clip-path="url(#b33f4e886f)"><path fill="#f1863f" d="M 262.53125 187.519531 C 262.53125 188.746094 262.5 189.972656 262.4375 191.199219 C 262.378906 192.425781 262.289062 193.648438 262.167969 194.871094 C 262.046875 196.09375 261.898438 197.3125 261.71875 198.523438 C 261.539062 199.738281 261.328125 200.949219 261.089844 202.152344 C 260.847656 203.355469 260.578125 204.554688 260.28125 205.746094 C 259.984375 206.9375 259.65625 208.117188 259.300781 209.292969 C 258.941406 210.46875 258.558594 211.632812 258.144531 212.789062 C 257.730469 213.945312 257.289062 215.089844 256.820312 216.222656 C 256.351562 217.359375 255.851562 218.480469 255.328125 219.589844 C 254.804688 220.699219 254.25 221.796875 253.671875 222.878906 C 253.09375 223.960938 252.488281 225.027344 251.859375 226.082031 C 251.226562 227.132812 250.570312 228.171875 249.886719 229.191406 C 249.207031 230.210938 248.5 231.214844 247.769531 232.203125 C 247.035156 233.1875 246.28125 234.15625 245.503906 235.105469 C 244.722656 236.054688 243.921875 236.984375 243.097656 237.890625 C 242.273438 238.800781 241.425781 239.691406 240.558594 240.558594 C 239.691406 241.425781 238.800781 242.273438 237.894531 243.097656 C 236.984375 243.921875 236.054688 244.722656 235.105469 245.503906 C 234.15625 246.28125 233.1875 247.035156 232.203125 247.765625 C 231.21875 248.5 230.214844 249.207031 229.191406 249.886719 C 228.171875 250.570312 227.136719 251.226562 226.082031 251.855469 C 225.03125 252.488281 223.960938 253.09375 222.878906 253.671875 C 221.796875 254.25 220.699219 254.800781 219.589844 255.328125 C 218.480469 255.851562 217.359375 256.347656 216.226562 256.820312 C 215.089844 257.289062 213.945312 257.730469 212.789062 258.144531 C 211.632812 258.558594 210.46875 258.941406 209.292969 259.296875 C 208.117188 259.65625 206.9375 259.984375 205.746094 260.28125 C 204.554688 260.578125 203.355469 260.847656 202.152344 261.085938 C 200.949219 261.328125 199.738281 261.535156 198.527344 261.71875 C 197.3125 261.898438 196.09375 262.046875 194.871094 262.167969 C 193.648438 262.289062 192.425781 262.378906 191.199219 262.4375 C 189.972656 262.5 188.746094 262.527344 187.519531 262.527344 C 186.292969 262.527344 185.066406 262.5 183.839844 262.4375 C 182.613281 262.378906 181.390625 262.289062 180.167969 262.167969 C 178.945312 262.046875 177.726562 261.898438 176.511719 261.71875 C 175.300781 261.535156 174.089844 261.328125 172.886719 261.085938 C 171.683594 260.847656 170.484375 260.578125 169.292969 260.28125 C 168.101562 259.984375 166.921875 259.65625 165.746094 259.296875 C 164.570312 258.941406 163.40625 258.558594 162.25 258.144531 C 161.09375 257.730469 159.949219 257.289062 158.816406 256.820312 C 157.679688 256.347656 156.558594 255.851562 155.449219 255.328125 C 154.339844 254.800781 153.242188 254.25 152.160156 253.671875 C 151.078125 253.09375 150.011719 252.488281 148.957031 251.855469 C 147.902344 251.226562 146.867188 250.570312 145.847656 249.886719 C 144.824219 249.207031 143.824219 248.5 142.835938 247.765625 C 141.851562 247.035156 140.882812 246.28125 139.933594 245.503906 C 138.984375 244.722656 138.054688 243.921875 137.144531 243.097656 C 136.238281 242.273438 135.347656 241.425781 134.480469 240.558594 C 133.613281 239.691406 132.765625 238.800781 131.941406 237.890625 C 131.117188 236.984375 130.316406 236.054688 129.535156 235.105469 C 128.757812 234.15625 128.003906 233.1875 127.269531 232.203125 C 126.539062 231.214844 125.832031 230.210938 125.152344 229.191406 C 124.46875 228.171875 123.8125 227.132812 123.179688 226.082031 C 122.550781 225.027344 121.945312 223.960938 121.367188 222.878906 C 120.789062 221.796875 120.238281 220.699219 119.710938 219.589844 C 119.1875 218.480469 118.6875 217.359375 118.21875 216.222656 C 117.75 215.089844 117.308594 213.945312 116.894531 212.789062 C 116.480469 211.632812 116.097656 210.46875 115.738281 209.292969 C 115.382812 208.117188 115.054688 206.9375 114.757812 205.746094 C 114.460938 204.554688 114.191406 203.355469 113.949219 202.152344 C 113.710938 200.949219 113.5 199.738281 113.320312 198.523438 C 113.140625 197.3125 112.992188 196.09375 112.871094 194.871094 C 112.75 193.648438 112.660156 192.425781 112.601562 191.199219 C 112.539062 189.972656 112.511719 188.746094 112.511719 187.519531 C 112.511719 186.292969 112.539062 185.0625 112.601562 183.839844 C 112.660156 182.613281 112.75 181.386719 112.871094 180.167969 C 112.992188 178.945312 113.140625 177.726562 113.320312 176.511719 C 113.5 175.296875 113.710938 174.089844 113.949219 172.886719 C 114.191406 171.679688 114.460938 170.484375 114.757812 169.292969 C 115.054688 168.101562 115.382812 166.917969 115.738281 165.746094 C 116.097656 164.570312 116.480469 163.40625 116.894531 162.25 C 117.308594 161.09375 117.75 159.949219 118.21875 158.8125 C 118.6875 157.679688 119.1875 156.558594 119.710938 155.449219 C 120.238281 154.339844 120.789062 153.242188 121.367188 152.160156 C 121.945312 151.078125 122.550781 150.007812 123.179688 148.957031 C 123.8125 147.902344 124.46875 146.867188 125.152344 145.84375 C 125.832031 144.824219 126.539062 143.820312 127.269531 142.835938 C 128.003906 141.847656 128.757812 140.882812 129.535156 139.933594 C 130.316406 138.984375 131.117188 138.054688 131.941406 137.144531 C 132.765625 136.234375 133.613281 135.347656 134.480469 134.480469 C 135.347656 133.609375 136.238281 132.765625 137.144531 131.941406 C 138.054688 131.117188 138.984375 130.3125 139.933594 129.535156 C 140.882812 128.757812 141.851562 128 142.835938 127.269531 C 143.824219 126.539062 144.824219 125.832031 145.847656 125.152344 C 146.867188 124.46875 147.902344 123.8125 148.957031 123.179688 C 150.011719 122.550781 151.078125 121.945312 152.160156 121.367188 C 153.242188 120.789062 154.339844 120.234375 155.449219 119.710938 C 156.558594 119.1875 157.679688 118.6875 158.816406 118.21875 C 159.949219 117.75 161.09375 117.308594 162.25 116.894531 C 163.40625 116.480469 164.570312 116.09375 165.746094 115.738281 C 166.921875 115.382812 168.101562 115.054688 169.292969 114.757812 C 170.484375 114.457031 171.683594 114.191406 172.886719 113.949219 C 174.089844 113.710938 175.300781 113.5 176.511719 113.320312 C 177.726562 113.140625 178.945312 112.992188 180.167969 112.871094 C 181.390625 112.75 182.613281 112.660156 183.839844 112.597656 C 185.066406 112.539062 186.292969 112.507812 187.519531 112.507812 C 188.746094 112.507812 189.972656 112.539062 191.199219 112.597656 C 192.425781 112.660156 193.648438 112.75 194.871094 112.871094 C 196.09375 112.992188 197.3125 113.140625 198.527344 113.320312 C 199.738281 113.5 200.949219 113.710938 202.152344 113.949219 C 203.355469 114.191406 204.554688 114.457031 205.746094 114.757812 C 206.9375 115.054688 208.117188 115.382812 209.292969 115.738281 C 210.46875 116.09375 211.632812 116.480469 212.789062 116.894531 C 213.945312 117.308594 215.089844 117.75 216.226562 118.21875 C 217.359375 118.6875 218.480469 119.1875 219.589844 119.710938 C 220.699219 120.234375 221.796875 120.789062 222.878906 121.367188 C 223.960938 121.945312 225.03125 122.550781 226.082031 123.179688 C 227.136719 123.8125 228.171875 124.46875 229.191406 125.152344 C 230.214844 125.832031 231.21875 126.539062 232.203125 127.269531 C 233.1875 128 234.15625 128.757812 235.105469 129.535156 C 236.054688 130.3125 236.984375 131.117188 237.894531 131.941406 C 238.800781 132.765625 239.691406 133.609375 240.558594 134.480469 C 241.425781 135.347656 242.273438 136.234375 243.097656 137.144531 C 243.921875 138.054688 244.722656 138.984375 245.503906 139.933594 C 246.28125 140.882812 247.035156 141.847656 247.769531 142.835938 C 248.5 143.820312 249.207031 144.824219 249.886719 145.84375 C 250.570312 146.867188 251.226562 147.902344 251.859375 148.957031 C 252.488281 150.007812 253.09375 151.078125 253.671875 152.160156 C 254.25 153.242188 254.804688 154.339844 255.328125 155.449219 C 255.851562 156.558594 256.351562 157.679688 256.820312 158.8125 C 257.289062 159.949219 257.730469 161.09375 258.144531 162.25 C 258.558594 163.40625 258.941406 164.570312 259.300781 165.746094 C 259.65625 166.917969 259.984375 168.101562 260.28125 169.292969 C 260.578125 170.484375 260.847656 171.679688 261.089844 172.886719 C 261.328125 174.089844 261.539062 175.296875 261.71875 176.511719 C 261.898438 177.726562 262.046875 178.945312 262.167969 180.167969 C 262.289062 181.386719 262.378906 182.613281 262.4375 183.839844 C 262.5 185.0625 262.53125 186.292969 262.53125 187.519531 Z M 262.53125 187.519531 " fill-opacity="1" fill-rule="nonzero"/></g><path fill="#ffffff" d="M 223.722656 177.609375 C 223.722656 177.609375 224.535156 166.789062 222.101562 165.132812 C 219.664062 163.480469 212.585938 166.132812 212.585938 166.132812 C 212.585938 166.132812 208.605469 163.925781 198.921875 162.980469 C 196.425781 162.738281 187.519531 165.902344 187.519531 165.902344 C 187.519531 165.902344 179.015625 163.03125 175.371094 163.585938 C 168.410156 164.636719 164.300781 166.132812 164.300781 166.132812 C 164.300781 166.132812 158.558594 161.988281 156.117188 163.640625 C 153.683594 165.292969 152.675781 178.304688 152.675781 178.304688 C 152.675781 178.304688 144.339844 208.253906 160.609375 221.59375 C 169.144531 228.597656 164.980469 248.609375 188.445312 248.609375 C 211.90625 248.609375 207.835938 228.777344 215.992188 219.128906 C 227.371094 205.679688 223.722656 177.609375 223.722656 177.609375 Z M 223.722656 177.609375 " fill-opacity="1" fill-rule="nonzero"/><path fill="#454f56" d="M 218.351562 195.566406 C 215.703125 189.570312 198.75 179.992188 195 183.046875 C 191.246094 186.105469 192.640625 200.089844 194.183594 204 C 195.730469 207.910156 201.835938 208.523438 204.898438 211.375 C 207.957031 214.230469 206.328125 218.917969 210.402344 219.121094 C 214.480469 219.324219 216.757812 215.859375 217.332031 210.765625 C 217.90625 205.671875 218.351562 195.566406 218.351562 195.566406 Z M 218.351562 195.566406 " fill-opacity="1" fill-rule="nonzero"/><path fill="#1b2021" d="M 211.957031 200.488281 C 211.957031 200.859375 211.921875 201.222656 211.847656 201.585938 C 211.777344 201.945312 211.671875 202.296875 211.53125 202.636719 C 211.386719 202.976562 211.214844 203.300781 211.011719 203.605469 C 210.804688 203.914062 210.574219 204.195312 210.3125 204.457031 C 210.054688 204.71875 209.769531 204.949219 209.464844 205.15625 C 209.15625 205.359375 208.832031 205.53125 208.492188 205.671875 C 208.152344 205.8125 207.800781 205.921875 207.441406 205.992188 C 207.078125 206.0625 206.714844 206.101562 206.347656 206.101562 C 205.976562 206.101562 205.613281 206.0625 205.25 205.992188 C 204.890625 205.921875 204.539062 205.8125 204.199219 205.671875 C 203.859375 205.53125 203.535156 205.359375 203.230469 205.15625 C 202.921875 204.949219 202.640625 204.71875 202.378906 204.457031 C 202.117188 204.195312 201.886719 203.914062 201.679688 203.605469 C 201.476562 203.300781 201.304688 202.976562 201.164062 202.636719 C 201.019531 202.296875 200.914062 201.945312 200.84375 201.585938 C 200.769531 201.222656 200.734375 200.859375 200.734375 200.488281 C 200.734375 200.121094 200.769531 199.757812 200.84375 199.394531 C 200.914062 199.035156 201.019531 198.683594 201.164062 198.34375 C 201.304688 198.003906 201.476562 197.679688 201.679688 197.371094 C 201.886719 197.066406 202.117188 196.78125 202.378906 196.523438 C 202.640625 196.261719 202.921875 196.027344 203.230469 195.824219 C 203.535156 195.621094 203.859375 195.445312 204.199219 195.304688 C 204.539062 195.164062 204.890625 195.058594 205.25 194.988281 C 205.613281 194.914062 205.976562 194.878906 206.347656 194.878906 C 206.714844 194.878906 207.078125 194.914062 207.441406 194.988281 C 207.800781 195.058594 208.152344 195.164062 208.492188 195.304688 C 208.832031 195.445312 209.15625 195.621094 209.464844 195.824219 C 209.769531 196.027344 210.054688 196.261719 210.3125 196.523438 C 210.574219 196.78125 210.804688 197.066406 211.011719 197.371094 C 211.214844 197.679688 211.386719 198.003906 211.53125 198.34375 C 211.671875 198.683594 211.777344 199.035156 211.847656 199.394531 C 211.921875 199.757812 211.957031 200.121094 211.957031 200.488281 Z M 211.957031 200.488281 " fill-opacity="1" fill-rule="nonzero"/><path fill="#000000" d="M 203.519531 200.488281 C 203.519531 202.050781 204.78125 203.316406 206.34375 203.316406 C 207.90625 203.316406 209.167969 202.050781 209.167969 200.488281 C 209.167969 198.925781 207.902344 197.660156 206.34375 197.660156 C 204.78125 197.660156 203.519531 198.925781 203.519531 200.488281 Z M 203.519531 200.488281 " fill-opacity="1" fill-rule="nonzero"/><path fill="#ffffff" d="M 202.082031 198.972656 C 202.082031 199.980469 202.902344 200.792969 203.90625 200.792969 C 204.917969 200.792969 205.738281 199.972656 205.734375 198.964844 C 205.734375 197.957031 204.914062 197.140625 203.90625 197.140625 C 202.898438 197.144531 202.082031 197.960938 202.082031 198.972656 Z M 202.082031 198.972656 " fill-opacity="1" fill-rule="nonzero"/><path fill="#ffffff" d="M 205.476562 200.792969 C 205.476562 201.277344 205.867188 201.664062 206.347656 201.664062 C 206.828125 201.664062 207.214844 201.273438 207.214844 200.792969 C 207.214844 200.3125 206.828125 199.925781 206.34375 199.925781 C 205.867188 199.925781 205.476562 200.316406 205.476562 200.792969 Z M 205.476562 200.792969 " fill-opacity="1" fill-rule="nonzero"/><path fill="#000000" d="M 198.230469 222.832031 C 198.230469 227.226562 192.457031 231.90625 188.675781 231.90625 C 184.898438 231.90625 178.429688 227.230469 178.429688 223.242188 C 178.429688 218.917969 181.746094 217.179688 188.675781 217.179688 C 195.605469 217.179688 198.230469 220.207031 198.230469 222.832031 Z M 198.230469 222.832031 " fill-opacity="1" fill-rule="nonzero"/><path fill="#000000" d="M 201.453125 238.140625 C 201.367188 238.953125 200.851562 239.667969 200.210938 240.164062 C 199.894531 240.425781 199.535156 240.628906 199.171875 240.804688 C 198.808594 240.984375 198.425781 241.125 198.039062 241.226562 C 197.648438 241.339844 197.257812 241.417969 196.867188 241.480469 C 196.472656 241.558594 196.082031 241.574219 195.683594 241.625 C 195.421875 241.632812 195.292969 241.625 195.078125 241.621094 C 194.855469 241.597656 194.613281 241.585938 194.402344 241.539062 C 193.976562 241.464844 193.554688 241.347656 193.15625 241.175781 C 192.34375 240.851562 191.636719 240.339844 191.019531 239.769531 C 190.40625 239.1875 189.882812 238.539062 189.433594 237.855469 C 188.980469 237.175781 188.605469 236.453125 188.300781 235.710938 C 188.144531 235.339844 188.019531 234.957031 187.898438 234.574219 C 187.773438 234.1875 187.683594 233.820312 187.597656 233.378906 L 187.570312 233.25 L 187.574219 233.160156 C 187.628906 231.632812 187.726562 230.105469 187.875 228.578125 C 188.019531 227.050781 188.214844 225.527344 188.523438 224 C 188.539062 223.941406 188.59375 223.902344 188.652344 223.914062 C 188.695312 223.925781 188.726562 223.957031 188.734375 224 C 189.046875 225.527344 189.238281 227.050781 189.386719 228.578125 C 189.53125 230.105469 189.628906 231.632812 189.683594 233.160156 L 189.664062 232.941406 C 189.738281 233.238281 189.859375 233.59375 189.960938 233.921875 C 190.066406 234.257812 190.195312 234.585938 190.3125 234.914062 C 190.5625 235.574219 190.839844 236.214844 191.15625 236.828125 C 191.792969 238.046875 192.675781 239.128906 193.820312 239.703125 C 194.101562 239.847656 194.402344 239.957031 194.714844 240.035156 C 194.871094 240.082031 195.007812 240.09375 195.15625 240.128906 L 195.675781 240.171875 C 196.03125 240.183594 196.398438 240.222656 196.75 240.207031 C 197.109375 240.207031 197.464844 240.191406 197.816406 240.144531 C 198.164062 240.101562 198.515625 240.050781 198.851562 239.957031 C 199.191406 239.871094 199.527344 239.757812 199.832031 239.59375 C 200.144531 239.441406 200.429688 239.234375 200.675781 238.984375 C 200.917969 238.738281 201.140625 238.441406 201.246094 238.109375 L 201.25 238.097656 C 201.265625 238.042969 201.324219 238.011719 201.378906 238.03125 C 201.429688 238.042969 201.457031 238.089844 201.453125 238.140625 Z M 201.453125 238.140625 " fill-opacity="1" fill-rule="nonzero"/><path fill="#000000" d="M 176.03125 238.109375 C 176.136719 238.441406 176.355469 238.742188 176.597656 238.988281 C 176.839844 239.238281 177.125 239.445312 177.4375 239.597656 C 177.742188 239.761719 178.074219 239.875 178.414062 239.960938 C 178.582031 240.011719 178.753906 240.039062 178.929688 240.066406 C 179.101562 240.097656 179.273438 240.132812 179.453125 240.144531 C 179.800781 240.191406 180.15625 240.207031 180.515625 240.207031 C 180.867188 240.222656 181.230469 240.179688 181.585938 240.171875 L 182.109375 240.128906 C 182.257812 240.089844 182.394531 240.082031 182.550781 240.035156 C 182.859375 239.957031 183.160156 239.847656 183.441406 239.699219 C 184.585938 239.125 185.46875 238.042969 186.101562 236.824219 C 186.421875 236.210938 186.699219 235.570312 186.945312 234.914062 C 187.066406 234.582031 187.191406 234.253906 187.296875 233.921875 C 187.398438 233.59375 187.519531 233.238281 187.597656 232.941406 L 187.574219 233.160156 C 187.628906 231.632812 187.726562 230.105469 187.875 228.578125 C 188.019531 227.050781 188.214844 225.523438 188.523438 223.996094 C 188.539062 223.941406 188.59375 223.902344 188.652344 223.914062 C 188.695312 223.921875 188.726562 223.957031 188.734375 223.996094 C 189.046875 225.523438 189.238281 227.050781 189.386719 228.578125 C 189.53125 230.105469 189.628906 231.632812 189.683594 233.160156 L 189.6875 233.25 L 189.664062 233.375 C 189.574219 233.816406 189.484375 234.183594 189.363281 234.574219 C 189.242188 234.957031 189.113281 235.339844 188.957031 235.707031 C 188.652344 236.449219 188.28125 237.171875 187.828125 237.855469 C 187.375 238.535156 186.855469 239.183594 186.246094 239.765625 C 185.628906 240.335938 184.917969 240.847656 184.113281 241.175781 C 183.710938 241.34375 183.289062 241.464844 182.863281 241.539062 C 182.65625 241.585938 182.410156 241.597656 182.1875 241.621094 C 181.972656 241.625 181.84375 241.628906 181.582031 241.625 C 181.1875 241.578125 180.796875 241.558594 180.402344 241.484375 C 180.007812 241.417969 179.617188 241.34375 179.230469 241.230469 C 178.84375 241.132812 178.460938 240.984375 178.097656 240.808594 C 177.730469 240.632812 177.375 240.429688 177.058594 240.167969 C 176.417969 239.671875 175.902344 238.957031 175.824219 238.140625 C 175.820312 238.082031 175.863281 238.03125 175.917969 238.027344 C 175.96875 238.019531 176.011719 238.050781 176.027344 238.097656 Z M 176.03125 238.109375 " fill-opacity="1" fill-rule="nonzero"/><path fill="#1b2021" d="M 177.65625 200.488281 C 177.65625 200.859375 177.617188 201.222656 177.546875 201.585938 C 177.476562 201.945312 177.367188 202.296875 177.226562 202.636719 C 177.085938 202.976562 176.914062 203.300781 176.710938 203.605469 C 176.503906 203.914062 176.273438 204.195312 176.011719 204.457031 C 175.75 204.71875 175.46875 204.949219 175.160156 205.152344 C 174.855469 205.359375 174.53125 205.53125 174.191406 205.671875 C 173.851562 205.8125 173.5 205.917969 173.140625 205.992188 C 172.777344 206.0625 172.414062 206.097656 172.042969 206.097656 C 171.675781 206.097656 171.3125 206.0625 170.949219 205.992188 C 170.589844 205.917969 170.238281 205.8125 169.898438 205.671875 C 169.558594 205.53125 169.234375 205.359375 168.929688 205.152344 C 168.621094 204.949219 168.339844 204.71875 168.078125 204.457031 C 167.816406 204.195312 167.585938 203.914062 167.378906 203.605469 C 167.175781 203.300781 167.003906 202.976562 166.863281 202.636719 C 166.722656 202.296875 166.613281 201.945312 166.542969 201.585938 C 166.472656 201.222656 166.433594 200.859375 166.433594 200.488281 C 166.433594 200.121094 166.472656 199.757812 166.542969 199.394531 C 166.613281 199.035156 166.722656 198.683594 166.863281 198.34375 C 167.003906 198.003906 167.175781 197.679688 167.378906 197.371094 C 167.585938 197.066406 167.816406 196.785156 168.078125 196.523438 C 168.339844 196.261719 168.621094 196.03125 168.929688 195.824219 C 169.234375 195.621094 169.558594 195.449219 169.898438 195.308594 C 170.238281 195.164062 170.589844 195.058594 170.949219 194.988281 C 171.3125 194.914062 171.675781 194.878906 172.042969 194.878906 C 172.414062 194.878906 172.777344 194.914062 173.140625 194.988281 C 173.5 195.058594 173.851562 195.164062 174.191406 195.308594 C 174.53125 195.449219 174.855469 195.621094 175.160156 195.824219 C 175.46875 196.03125 175.75 196.261719 176.011719 196.523438 C 176.273438 196.785156 176.503906 197.066406 176.710938 197.371094 C 176.914062 197.679688 177.085938 198.003906 177.226562 198.34375 C 177.367188 198.683594 177.476562 199.035156 177.546875 199.394531 C 177.617188 199.757812 177.65625 200.121094 177.65625 200.488281 Z M 177.65625 200.488281 " fill-opacity="1" fill-rule="nonzero"/><path fill="#000000" d="M 174.871094 200.488281 C 174.871094 202.050781 173.605469 203.316406 172.042969 203.316406 C 170.484375 203.316406 169.21875 202.050781 169.21875 200.488281 C 169.21875 198.925781 170.484375 197.660156 172.042969 197.660156 C 173.605469 197.660156 174.871094 198.925781 174.871094 200.488281 Z M 174.871094 200.488281 " fill-opacity="1" fill-rule="nonzero"/><path fill="#ffffff" d="M 176.308594 198.972656 C 176.308594 199.980469 175.488281 200.792969 174.480469 200.792969 C 173.472656 200.792969 172.65625 199.972656 172.660156 198.964844 C 172.660156 197.957031 173.472656 197.140625 174.484375 197.140625 C 175.492188 197.144531 176.308594 197.960938 176.308594 198.972656 Z M 176.308594 198.972656 " fill-opacity="1" fill-rule="nonzero"/><path fill="#ffffff" d="M 172.910156 200.792969 C 172.910156 201.277344 172.523438 201.664062 172.042969 201.664062 C 171.566406 201.664062 171.175781 201.273438 171.175781 200.792969 C 171.175781 200.3125 171.566406 199.925781 172.042969 199.925781 C 172.523438 199.925781 172.910156 200.316406 172.910156 200.792969 Z M 172.910156 200.792969 " fill-opacity="1" fill-rule="nonzero"/><path fill="#c6c6c6" d="M 194.300781 230.535156 C 193.503906 230.535156 193.207031 231.625 193.898438 232.027344 C 193.832031 231.960938 193.765625 231.894531 193.703125 231.828125 C 193.996094 232.273438 194.605469 232.273438 194.902344 231.828125 C 194.835938 231.894531 194.773438 231.960938 194.707031 232.027344 C 195.394531 231.625 195.097656 230.535156 194.300781 230.535156 Z M 194.300781 230.535156 " fill-opacity="1" fill-rule="nonzero"/><path fill="#c6c6c6" d="M 195.089844 233.917969 C 193.402344 233.917969 193.402344 236.539062 195.089844 236.539062 C 196.777344 236.539062 196.777344 233.917969 195.089844 233.917969 Z M 195.089844 233.917969 " fill-opacity="1" fill-rule="nonzero"/><path fill="#c6c6c6" d="M 200.140625 235.328125 C 199.195312 235.328125 199.195312 236.796875 200.140625 236.796875 C 201.09375 236.796875 201.09375 235.328125 200.140625 235.328125 Z M 200.140625 235.328125 " fill-opacity="1" fill-rule="nonzero"/><path fill="#c6c6c6" d="M 198.484375 231.9375 C 197.359375 231.9375 197.359375 233.675781 198.484375 233.675781 C 199.601562 233.675781 199.601562 231.9375 198.484375 231.9375 Z M 198.484375 231.9375 " fill-opacity="1" fill-rule="nonzero"/><path fill="#c6c6c6" d="M 197.644531 229.261719 C 197.195312 229.261719 197.195312 229.953125 197.644531 229.953125 C 198.089844 229.953125 198.089844 229.261719 197.644531 229.261719 Z M 197.644531 229.261719 " fill-opacity="1" fill-rule="nonzero"/><path fill="#c6c6c6" d="M 196.988281 238.125 C 196.539062 238.125 196.539062 238.816406 196.988281 238.816406 C 197.4375 238.816406 197.4375 238.125 196.988281 238.125 Z M 196.988281 238.125 " fill-opacity="1" fill-rule="nonzero"/><path fill="#c6c6c6" d="M 203.804688 232.882812 C 202.925781 232.882812 202.925781 234.25 203.804688 234.25 C 204.6875 234.25 204.6875 232.882812 203.804688 232.882812 Z M 203.804688 232.882812 " fill-opacity="1" fill-rule="nonzero"/><path fill="#c6c6c6" d="M 183.117188 231.390625 C 183.914062 231.390625 184.210938 232.480469 183.523438 232.882812 C 183.585938 232.816406 183.652344 232.75 183.71875 232.683594 C 183.421875 233.128906 182.8125 233.128906 182.519531 232.683594 C 182.582031 232.75 182.648438 232.816406 182.714844 232.882812 C 182.019531 232.480469 182.324219 231.390625 183.117188 231.390625 Z M 183.117188 231.390625 " fill-opacity="1" fill-rule="nonzero"/><path fill="#c6c6c6" d="M 182.324219 234.773438 C 184.019531 234.773438 184.019531 237.394531 182.324219 237.394531 C 180.636719 237.394531 180.636719 234.773438 182.324219 234.773438 Z M 182.324219 234.773438 " fill-opacity="1" fill-rule="nonzero"/><path fill="#c6c6c6" d="M 177.273438 236.183594 C 178.222656 236.183594 178.222656 237.65625 177.273438 237.65625 C 176.324219 237.65625 176.324219 236.183594 177.273438 236.183594 Z M 177.273438 236.183594 " fill-opacity="1" fill-rule="nonzero"/><path fill="#c6c6c6" d="M 178.933594 232.792969 C 180.054688 232.792969 180.054688 234.53125 178.933594 234.53125 C 177.816406 234.53125 177.816406 232.792969 178.933594 232.792969 Z M 178.933594 232.792969 " fill-opacity="1" fill-rule="nonzero"/><path fill="#c6c6c6" d="M 179.777344 230.117188 C 180.222656 230.117188 180.222656 230.8125 179.777344 230.8125 C 179.324219 230.8125 179.324219 230.117188 179.777344 230.117188 Z M 179.777344 230.117188 " fill-opacity="1" fill-rule="nonzero"/><path fill="#c6c6c6" d="M 180.433594 238.980469 C 180.878906 238.980469 180.878906 239.675781 180.433594 239.675781 C 179.984375 239.675781 179.984375 238.980469 180.433594 238.980469 Z M 180.433594 238.980469 " fill-opacity="1" fill-rule="nonzero"/><path fill="#c6c6c6" d="M 173.613281 233.742188 C 174.488281 233.742188 174.488281 235.105469 173.613281 235.105469 C 172.734375 235.105469 172.734375 233.742188 173.613281 233.742188 Z M 173.613281 233.742188 " fill-opacity="1" fill-rule="nonzero"/><path fill="#ffffff" d="M 151.316406 177.609375 C 149.4375 176.128906 144.167969 171.167969 143.492188 166.15625 C 141.472656 151.101562 146.707031 126.429688 151.703125 126.429688 C 158.757812 126.429688 175.554688 157.875 171.453125 167.921875 C 169.445312 172.851562 156.171875 181.449219 151.316406 177.609375 Z M 151.316406 177.609375 " fill-opacity="1" fill-rule="nonzero"/><path fill="#e3ac9a" d="M 149.261719 168.25 C 145.460938 160.914062 151.148438 131.890625 152.144531 131.089844 C 153.140625 130.289062 165.136719 148.171875 167.230469 158.601562 C 167.664062 160.769531 168.007812 166.699219 168.007812 166.699219 L 154.464844 174.890625 C 154.464844 174.890625 150.8125 171.246094 149.261719 168.25 Z M 149.261719 168.25 " fill-opacity="1" fill-rule="nonzero"/><path fill="#df8866" d="M 152.035156 169.027344 C 149.28125 165.585938 150.316406 152.082031 150.8125 151.5 C 151.3125 150.917969 159.855469 159.664062 161.351562 162.53125 C 162.375 164.492188 163.054688 169.695312 163.054688 169.695312 L 156.625 173.582031 C 156.625 173.582031 152.976562 170.207031 152.035156 169.027344 Z M 152.035156 169.027344 " fill-opacity="1" fill-rule="nonzero"/><path fill="#ffffff" d="M 223.722656 177.609375 C 225.597656 176.128906 230.871094 171.167969 231.542969 166.15625 C 233.566406 151.101562 228.328125 126.429688 223.332031 126.429688 C 216.28125 126.429688 199.484375 157.875 203.582031 167.921875 C 205.59375 172.851562 218.863281 181.449219 223.722656 177.609375 Z M 223.722656 177.609375 " fill-opacity="1" fill-rule="nonzero"/><path fill="#e3ac9a" d="M 225.777344 168.25 C 229.585938 160.914062 223.890625 131.890625 222.894531 131.089844 C 221.894531 130.289062 209.898438 148.171875 207.804688 158.601562 C 207.367188 160.769531 207.027344 166.699219 207.027344 166.699219 L 220.574219 174.890625 C 220.574219 174.890625 224.222656 171.246094 225.777344 168.25 Z M 225.777344 168.25 " fill-opacity="1" fill-rule="nonzero"/><path fill="#df8866" d="M 223.003906 169.027344 C 225.757812 165.585938 224.726562 152.082031 224.222656 151.5 C 223.722656 150.917969 215.183594 159.664062 213.6875 162.53125 C 212.664062 164.492188 211.984375 169.695312 211.984375 169.695312 L 218.410156 173.582031 C 218.410156 173.582031 222.058594 170.207031 223.003906 169.027344 Z M 223.003906 169.027344 " fill-opacity="1" fill-rule="nonzero"/></svg>