<svg xmlns="http://www.w3.org/2000/svg" xmlns:xlink="http://www.w3.org/1999/xlink" zoomAndPan="magnify" preserveAspectRatio="xMidYMid meet" version="1.0" viewBox="112.5 112.5 150 150"><defs><clipPath id="570352f966"><path d="M 112.5 112.5 L 262.5 112.5 L 262.5 262.5 L 112.5 262.5 Z M 112.5 112.5 " clip-rule="nonzero"/></clipPath></defs><g clip-path="url(#570352f966)"><path fill="#1e88e5" d="M 187.5 262.5 C 228.808594 262.5 262.5 228.808594 262.5 187.5 C 262.5 146.191406 228.808594 112.5 187.5 112.5 C 146.191406 112.5 112.5 146.191406 112.5 187.5 C 112.5 228.808594 146.191406 262.5 187.5 262.5 " fill-opacity="1" fill-rule="evenodd"/></g><path fill="#1663a7" d="M 152.691406 175.308594 L 152.691406 230.167969 L 227.867188 230.167969 L 227.867188 175.308594 L 190.277344 144.832031 L 152.691406 175.308594 " fill-opacity="1" fill-rule="evenodd"/><path fill="#1663a7" d="M 152.691406 175.308594 L 227.867188 175.308594 L 190.277344 144.832031 Z M 152.691406 175.308594 " fill-opacity="1" fill-rule="evenodd"/><path fill="#1663a7" d="M 171.484375 163.519531 L 203.980469 163.519531 L 209.070312 168.609375 L 209.070312 207.921875 L 171.484375 207.921875 L 171.484375 163.519531 " fill-opacity="1" fill-rule="evenodd"/><path fill="#1663a7" d="M 204.375 198.457031 L 176.179688 198.457031 L 176.179688 199.851562 L 204.375 199.851562 L 204.375 198.457031 " fill-opacity="1" fill-rule="evenodd"/><path fill="#1663a7" d="M 204.375 171.410156 L 176.179688 171.410156 L 176.179688 172.804688 L 204.375 172.804688 L 204.375 171.410156 " fill-opacity="1" fill-rule="evenodd"/><path fill="#1663a7" d="M 204.375 175.917969 L 176.179688 175.917969 L 176.179688 177.3125 L 204.375 177.3125 L 204.375 175.917969 " fill-opacity="1" fill-rule="evenodd"/><path fill="#1663a7" d="M 204.375 180.425781 L 176.179688 180.425781 L 176.179688 181.820312 L 204.375 181.820312 L 204.375 180.425781 " fill-opacity="1" fill-rule="evenodd"/><path fill="#1663a7" d="M 204.375 184.933594 L 176.179688 184.933594 L 176.179688 186.328125 L 204.375 186.328125 L 204.375 184.933594 " fill-opacity="1" fill-rule="evenodd"/><path fill="#1663a7" d="M 204.375 189.441406 L 176.179688 189.441406 L 176.179688 190.832031 L 204.375 190.832031 L 204.375 189.441406 " fill-opacity="1" fill-rule="evenodd"/><path fill="#1663a7" d="M 204.375 193.949219 L 176.179688 193.949219 L 176.179688 195.34375 L 204.375 195.34375 L 204.375 193.949219 " fill-opacity="1" fill-rule="evenodd"/><path fill="#1663a7" d="M 183.710938 204.027344 L 196.835938 204.027344 L 196.835938 208.523438 L 183.710938 208.523438 L 183.710938 204.027344 " fill-opacity="1" fill-rule="evenodd"/><path fill="#1663a7" d="M 227.867188 175.308594 L 227.867188 230.167969 L 224.453125 230.167969 L 190.277344 204.042969 Z M 156.101562 230.167969 L 190.277344 204.042969 L 152.691406 175.308594 L 152.691406 230.167969 L 156.101562 230.167969 " fill-opacity="1" fill-rule="evenodd"/><path fill="#1663a7" d="M 209.070312 168.609375 L 203.980469 163.519531 L 204.359375 168.605469 Z M 209.070312 168.609375 " fill-opacity="1" fill-rule="evenodd"/><path fill="#fbc02d" d="M 149.914062 175.308594 L 149.914062 230.167969 L 225.085938 230.167969 L 225.085938 175.308594 L 187.5 144.832031 L 149.914062 175.308594 " fill-opacity="1" fill-rule="evenodd"/><path fill="#f7b22d" d="M 149.914062 175.308594 L 225.085938 175.308594 L 187.5 144.832031 Z M 149.914062 175.308594 " fill-opacity="1" fill-rule="evenodd"/><path fill="#ffffff" d="M 168.707031 163.519531 L 201.203125 163.519531 L 206.292969 168.609375 L 206.292969 207.921875 L 168.707031 207.921875 L 168.707031 163.519531 " fill-opacity="1" fill-rule="evenodd"/><path fill="#afafaf" d="M 201.597656 198.457031 L 173.402344 198.457031 L 173.402344 199.851562 L 201.597656 199.851562 L 201.597656 198.457031 " fill-opacity="1" fill-rule="evenodd"/><path fill="#afafaf" d="M 201.597656 171.410156 L 173.402344 171.410156 L 173.402344 172.804688 L 201.597656 172.804688 L 201.597656 171.410156 " fill-opacity="1" fill-rule="evenodd"/><path fill="#afafaf" d="M 201.597656 175.917969 L 173.402344 175.917969 L 173.402344 177.3125 L 201.597656 177.3125 L 201.597656 175.917969 " fill-opacity="1" fill-rule="evenodd"/><path fill="#afafaf" d="M 201.597656 180.425781 L 173.402344 180.425781 L 173.402344 181.820312 L 201.597656 181.820312 L 201.597656 180.425781 " fill-opacity="1" fill-rule="evenodd"/><path fill="#afafaf" d="M 201.597656 184.933594 L 173.402344 184.933594 L 173.402344 186.328125 L 201.597656 186.328125 L 201.597656 184.933594 " fill-opacity="1" fill-rule="evenodd"/><path fill="#afafaf" d="M 201.597656 189.441406 L 173.402344 189.441406 L 173.402344 190.832031 L 201.597656 190.832031 L 201.597656 189.441406 " fill-opacity="1" fill-rule="evenodd"/><path fill="#afafaf" d="M 201.597656 193.949219 L 173.402344 193.949219 L 173.402344 195.34375 L 201.597656 195.34375 L 201.597656 193.949219 " fill-opacity="1" fill-rule="evenodd"/><path fill="#fbc02d" d="M 180.933594 208.523438 L 194.058594 208.523438 L 194.058594 204.027344 L 180.933594 204.027344 L 180.933594 208.523438 " fill-opacity="1" fill-rule="evenodd"/><path fill="#fdd835" d="M 225.085938 175.308594 L 225.085938 230.167969 L 221.675781 230.167969 L 187.5 204.042969 Z M 153.324219 230.167969 L 187.5 204.042969 L 149.914062 175.308594 L 149.914062 230.167969 L 153.324219 230.167969 " fill-opacity="1" fill-rule="evenodd"/><path fill="#afafaf" d="M 206.292969 168.609375 L 201.203125 163.519531 L 201.582031 168.605469 Z M 206.292969 168.609375 " fill-opacity="1" fill-rule="evenodd"/></svg>