<svg id="Layer_1" data-name="Layer 1" xmlns="http://www.w3.org/2000/svg" viewBox="0 0 591.17 101.23"><defs><style>.cls-1,.cls-2{fill:#b12024;}.cls-1{stroke:#d7252c;stroke-miterlimit:2.61;stroke-width:0.28px;}.cls-1,.cls-2,.cls-4{fill-rule:evenodd;}.cls-3,.cls-4{fill:#25417e;}</style></defs><title>Acentury-logo-finalized</title><path class="cls-1" d="M612.36,662.24c-3.7-16.32-17.71-91.36-26.54-91.36-7.6,0-17.5,51.44-25,69.83-9.2,22.62-22,23.43-37.06,23.43v-3.46c14.8,0,27-4.43,36.16-26.88,8.37-20.56,16.23-69.83,25.88-69.83,7.07,0,34.18,108.83,26.54,98.27Z" transform="translate(-523.64 -563.83)"/><path class="cls-2" d="M561.74,642.85c7.21-18.38,16.73-69.83,24-69.83,8.5,0,22,75,25.54,91.37,0-1.82-.16-3.84-.35-6h.77V665H543.48v-.81c7-2.62,13.22-8.43,18.26-21.3Z" transform="translate(-523.64 -563.83)"/><path class="cls-3" d="M696.62,566.05H672.93l-16.48,90.26h14.86l2.8-16.37H694l2.8,16.37H713.1l-16.48-90.26ZM684,582l7.8,45.65H676.17L684,582Zm68.28,40.62v12.89a10.88,10.88,0,0,1-1,5.14,6.15,6.15,0,0,1-2.89,2.79,12.29,12.29,0,0,1-8.93,0,6.1,6.1,0,0,1-2.89-2.79,10.88,10.88,0,0,1-1-5.14V586.81c0-3.2.78-5.48,2.25-6.88a10.31,10.31,0,0,1,12.26,0c1.48,1.4,2.24,3.68,2.26,6.88v9.67h15.3v-8.77a25.62,25.62,0,0,0-2.72-12.31,18,18,0,0,0-8.09-7.72,34.66,34.66,0,0,0-26.63,0,18,18,0,0,0-8.1,7.72,25.74,25.74,0,0,0-2.72,12.31v46.94A25.63,25.63,0,0,0,722,646.94a18,18,0,0,0,8.1,7.74,34.66,34.66,0,0,0,26.63,0,18,18,0,0,0,8.09-7.74,25.51,25.51,0,0,0,2.72-12.29v-12Zm41.35-43.72h28V566.05H777.4v90.26h44.15V643.42h-28V617h22.22V604.09H793.59V578.94Zm72.54,77.37h16.63V566.05H868.34v54l-16.63-54h-20.3v90.26H846V590.94l20.16,65.37Zm23.55-77.37H906.6v77.37h16.19V578.94h16.92V566.05h-50v12.89ZM946,566.05v68.73a25.54,25.54,0,0,0,2.73,12.29,18,18,0,0,0,8.09,7.74,34.66,34.66,0,0,0,26.63,0,18.08,18.08,0,0,0,8.1-7.74,25.66,25.66,0,0,0,2.72-12.29V566.05H979v69.63a11,11,0,0,1-1,5.14,6.17,6.17,0,0,1-2.9,2.79,12.26,12.26,0,0,1-8.92,0,6.12,6.12,0,0,1-2.9-2.79,10.88,10.88,0,0,1-1-5.14V566.05Zm109.63,90.26a16.79,16.79,0,0,1-1.5-5.09,50,50,0,0,1-.27-5.87V631.43a32,32,0,0,0-1-8.51,16.22,16.22,0,0,0-3.38-6.5,15.34,15.34,0,0,0-6.38-4.21,15.69,15.69,0,0,0,8-6.79,22.92,22.92,0,0,0,2.6-11.52v-7.09a23.61,23.61,0,0,0-2.5-11.58,15.5,15.5,0,0,0-7.8-6.9c-3.56-1.53-8.12-2.28-13.69-2.28h-24.42v90.26h16.18V619.56h5.59a13.52,13.52,0,0,1,6,1.12,7.17,7.17,0,0,1,3.48,3.65,17,17,0,0,1,1.11,6.71v14.18c0,1.83,0,3.33.1,4.52a25.21,25.21,0,0,0,.31,2.92,12.3,12.3,0,0,0,.47,2c.17.56.37,1.11.59,1.67Zm-26.34-77.37c2.85,0,5,.73,6.28,2.22s2,3.87,2,7.07v8.9a11.55,11.55,0,0,1-1.18,5.67,6.64,6.64,0,0,1-3.33,3,13.62,13.62,0,0,1-5.2.86h-6.33V578.94Zm48.85,77.37h16.19V626.4l20.45-60.35h-15.45L1087,607.18l-12.36-41.13h-16.92l20.45,60.35v29.91Z" transform="translate(-523.64 -563.83)"/><path class="cls-4" d="M567.21,663.44c4.6-9.66,22.08-54.07,33.09-54.07,9.49,0,21.83,30.45,31.17,41.33C643,664.09,659,664.57,677.69,664.57v-2.05c-18.45,0-33.7-2.62-45.1-15.91-10.44-12.17-20.24-41.32-32.29-41.32-8.81,0-42.63,64.4-33.09,58.15Z" transform="translate(-523.64 -563.83)"/><path class="cls-4" d="M630.58,652c-9-10.88-20.86-41.33-30-41.33-11.75,0-32.38,52.34-32.38,54.41h85.15v-.48c-8.79-1.55-16.48-5-22.77-12.6Z" transform="translate(-523.64 -563.83)"/></svg>