<svg xmlns="http://www.w3.org/2000/svg" xmlns:xlink="http://www.w3.org/1999/xlink" zoomAndPan="magnify" preserveAspectRatio="xMidYMid meet" version="1.0" viewBox="84.19 83.54 303.02 71.66"><defs><g/></defs><path stroke-linecap="butt" transform="matrix(0.597456, 0, 0, 0.597456, 235.418405, 82.842049)" fill="none" stroke-linejoin="miter" d="M 98.751327 5.004524 L 73.337579 5.004524 L 73.337579 45.423301 L 68.682424 45.423301 L 68.682424 5.364121 L 14.069346 5.364121 L 14.069346 24.422798 L 41.810671 24.422798 L 41.810671 54.968984 C 41.810671 60.21911 41.058785 65.469236 39.60078 70.987426 C 38.260462 76.479463 36.436321 80.74233 34.232968 84.057166 C 29.460126 91.987929 20.777477 99.206035 11.382171 103.710813 L 27.014862 117.28399 C 42.287956 109.470914 51.441351 101.89321 58.424083 90.4057 C 62.09198 84.534451 64.65493 79.042414 66.23716 73.164626 C 66.864821 70.837049 67.342105 68.274098 67.701703 65.711147 L 73.337579 65.711147 L 73.337579 117.166304 L 98.751327 117.166304 Z M 102.39307 117.166304 L 128.310255 117.166304 L 128.310255 5.004524 L 102.39307 5.004524 Z M 144.662141 103.47544 L 160.177146 116.924393 L 194.776979 116.924393 C 200.386703 116.924393 206.977147 116.296731 216.28092 114.093378 L 216.28092 94.910478 C 206.735236 97.238055 197.699528 97.983403 189.886451 97.983403 L 173.148814 97.983403 L 173.148814 24.422798 L 212.227273 24.422798 L 212.227273 5.364121 L 144.662141 5.364121 Z M 191.344456 49.091197 L 191.344456 68.784073 L 222.00833 68.784073 L 222.00833 117.166304 L 250.226939 117.166304 L 250.226939 5.004524 L 222.00833 5.004524 L 222.00833 49.091197 Z M 191.344456 49.091197 " stroke="#6aa4b0" stroke-width="4.581825" stroke-opacity="1" stroke-miterlimit="4"/><g fill="#2b4560" fill-opacity="1"><g transform="translate(81.271114, 139.165011)"><g><path d="M 2.921875 -31.09375 C 10.171875 -31.675781 14.5 -34.253906 15.90625 -38.828125 L 3.65625 -38.828125 L 3.65625 -54.734375 L 35.765625 -54.734375 L 35.765625 -45.609375 L 37.953125 -45.609375 L 37.953125 -54.734375 L 52.546875 -54.734375 L 52.546875 -18.96875 L 37.953125 -18.96875 L 37.953125 -29.625 L 33.28125 -29.625 C 31.09375 -24.90625 27.515625 -21.328125 22.546875 -18.890625 C 17.585938 -16.460938 11.046875 -15.03125 2.921875 -14.59375 Z M 69.328125 10.953125 C 66.316406 10.953125 63.265625 10.816406 60.171875 10.546875 C 57.085938 10.273438 54.097656 9.8125 51.203125 9.15625 C 48.304688 8.5 45.59375 7.609375 43.0625 6.484375 C 40.53125 5.367188 38.34375 3.9375 36.5 2.1875 C 34.644531 3.9375 32.441406 5.367188 29.890625 6.484375 C 27.335938 7.609375 24.613281 8.5 21.71875 9.15625 C 18.820312 9.8125 15.828125 10.273438 12.734375 10.546875 C 9.640625 10.816406 6.613281 10.953125 3.65625 10.953125 L 3.65625 -5.84375 C 6.46875 -5.84375 9.25 -6.007812 12 -6.34375 C 14.75 -6.6875 17.207031 -7.257812 19.375 -8.0625 C 21.539062 -8.863281 23.289062 -9.945312 24.625 -11.3125 C 25.96875 -12.675781 26.640625 -14.378906 26.640625 -16.421875 L 26.640625 -16.78125 L 46.34375 -16.78125 L 46.34375 -16.421875 C 46.34375 -14.378906 47.007812 -12.675781 48.34375 -11.3125 C 49.6875 -9.945312 51.441406 -8.863281 53.609375 -8.0625 C 55.773438 -7.257812 58.234375 -6.6875 60.984375 -6.34375 C 63.734375 -6.007812 66.515625 -5.84375 69.328125 -5.84375 Z M 54.734375 -54.734375 L 69.328125 -54.734375 L 69.328125 -13.859375 L 54.734375 -13.859375 Z M 54.734375 -54.734375 "/></g></g></g><g fill="#2b4560" fill-opacity="1"><g transform="translate(161.546784, 139.165011)"><g><path d="M 69.328125 -42.328125 L 23.203125 -42.328125 L 23.203125 -39.78125 L 69.328125 -39.78125 L 69.328125 -27.4375 L 23.203125 -27.4375 L 23.203125 -24.890625 L 69.328125 -24.890625 L 69.328125 -13.140625 L 3.65625 -13.140625 L 3.65625 -54.734375 L 69.328125 -54.734375 Z M 46.34375 3.578125 L 46.34375 10.875 L 26.640625 10.875 L 26.640625 3.578125 L 2.921875 3.578125 L 2.921875 -10.953125 L 70.0625 -10.953125 L 70.0625 3.578125 Z M 46.34375 3.578125 "/></g></g></g></svg>