<svg xmlns="http://www.w3.org/2000/svg" xmlns:xlink="http://www.w3.org/1999/xlink" zoomAndPan="magnify" preserveAspectRatio="xMidYMid meet" version="1.0" viewBox="74.88 85.78 299.82 141.16"><defs fill="#1976d2"><g/><clipPath id="abaf89a370" fill="#1976d2"><path d="M 120.386719 86.160156 L 166.453125 86.160156 L 166.453125 133.050781 L 120.386719 133.050781 Z M 120.386719 86.160156 " clip-rule="nonzero" fill="#1976d2"/></clipPath><clipPath id="4035b13688" fill="#1976d2"><path d="M 165.898438 86.160156 L 211.964844 86.160156 L 211.964844 133.050781 L 165.898438 133.050781 Z M 165.898438 86.160156 " clip-rule="nonzero" fill="#1976d2"/></clipPath><clipPath id="2849bec40d" fill="#1976d2"><path d="M 120.386719 179.941406 L 166.453125 179.941406 L 166.453125 226.832031 L 120.386719 226.832031 Z M 120.386719 179.941406 " clip-rule="nonzero" fill="#1976d2"/></clipPath><clipPath id="9a22b51b44" fill="#1976d2"><path d="M 120.386719 133.050781 L 166.453125 133.050781 L 166.453125 179.941406 L 120.386719 179.941406 Z M 120.386719 133.050781 " clip-rule="nonzero" fill="#1976d2"/></clipPath><clipPath id="a2e13697d6" fill="#1976d2"><path d="M 74.878906 86.160156 L 120.945312 86.160156 L 120.945312 133.050781 L 74.878906 133.050781 Z M 74.878906 86.160156 " clip-rule="nonzero" fill="#1976d2"/></clipPath></defs><g clip-path="url(#1976d2a370)"><path fill="#1976d2" d="M 120.386719 86.160156 L 166.085938 86.160156 L 166.085938 133.164062 L 120.386719 133.164062 Z M 120.386719 86.160156 " fill-opacity="1" fill-rule="nonzero"/></g><g clip-path="url(#1976d23688)"><path fill="#1976d2" d="M 165.898438 86.160156 L 211.59375 86.160156 L 211.59375 133.164062 L 165.898438 133.164062 Z M 165.898438 86.160156 " fill-opacity="1" fill-rule="nonzero"/></g><g clip-path="url(#1976d2c40d)"><path fill="#1976d2" d="M 120.386719 179.941406 L 166.085938 179.941406 L 166.085938 226.945312 L 120.386719 226.945312 Z M 120.386719 179.941406 " fill-opacity="1" fill-rule="nonzero"/></g><g clip-path="url(#1976d21b44)"><path fill="#1976d2" d="M 120.386719 133.050781 L 166.085938 133.050781 L 166.085938 180.054688 L 120.386719 180.054688 Z M 120.386719 133.050781 " fill-opacity="1" fill-rule="nonzero"/></g><g clip-path="url(#1976d297d6)"><path fill="#1976d2" d="M 74.878906 86.160156 L 120.578125 86.160156 L 120.578125 133.164062 L 74.878906 133.164062 Z M 74.878906 86.160156 " fill-opacity="1" fill-rule="nonzero"/></g><path stroke-linecap="butt" transform="matrix(0.428592, 0, 0, 0.428592, 211.154403, 126.716183)" fill="none" stroke-linejoin="miter" d="M 22.971983 16.046905 C 22.971983 15.217517 23.236294 14.543069 23.755801 14.023562 C 24.30265 13.476713 25.068239 13.203288 26.052568 13.203288 L 100.023059 13.203288 C 101.034731 13.203288 101.80032 13.476713 102.319827 14.023562 C 102.866676 14.543069 103.140101 15.217517 103.140101 16.046905 L 103.140101 30.757153 C 103.140101 32.324788 102.228685 33.108605 100.414968 33.108605 L 78.522765 33.108605 C 77.538436 33.108605 77.037157 33.527856 77.037157 34.348131 L 77.037157 102.285051 C 77.037157 103.187352 76.827532 103.870914 76.408281 104.335736 C 76.007258 104.782329 75.433066 105.001069 74.685705 105.001069 L 51.189411 105.001069 C 49.694689 105.001069 48.947328 104.171681 48.947328 102.522019 L 48.947328 34.867637 C 48.947328 33.691911 48.500735 33.108605 47.589319 33.108605 L 25.8156 33.108605 C 23.919855 33.108605 22.971983 32.324788 22.971983 30.757153 Z M 154.990535 106.240594 C 145.985749 106.240594 138.120232 104.326622 131.393985 100.498676 C 124.667738 96.652502 119.500011 91.202237 115.872577 84.156994 C 112.245143 77.111751 110.431426 68.845212 110.431426 59.357375 C 110.431426 49.878653 112.263371 41.566542 115.927262 34.439272 C 119.618495 27.293774 124.813564 21.761481 131.521583 17.860622 C 138.238716 13.932421 146.067776 11.972877 154.990535 11.972877 C 163.803924 11.972877 171.550957 13.932421 178.213405 17.860622 C 184.903196 21.761481 190.070922 27.293774 193.743927 34.439272 C 197.426046 41.566542 199.267106 49.878653 199.267106 59.357375 C 199.267106 68.763184 197.444275 77.011496 193.798612 84.102309 C 190.171178 91.184008 185.02168 96.652502 178.331889 100.498676 C 171.669441 104.326622 163.885952 106.240594 154.990535 106.240594 Z M 154.990535 86.936812 C 158.608855 86.936812 161.488929 86.052738 163.621641 84.275478 C 165.781696 82.507332 167.349331 79.645487 168.33366 75.699057 C 169.327103 71.734399 169.819267 66.411732 169.819267 59.721941 C 169.819267 49.495858 168.661769 42.149848 166.346774 37.70214 C 164.050006 33.254432 160.258517 31.030578 154.990535 31.030578 C 149.613183 31.030578 145.739667 33.254432 143.388214 37.70214 C 141.05499 42.149848 139.888378 49.495858 139.888378 59.721941 C 139.888378 66.411732 140.380543 71.734399 141.364872 75.699057 C 142.349201 79.645487 143.935064 82.507332 146.104233 84.275478 C 148.300745 86.052738 151.262845 86.936812 154.990535 86.936812 Z M 250.096755 106.240594 C 241.520334 106.240594 233.94647 104.262822 227.384278 100.316393 C 220.840313 96.351735 215.772843 90.846785 212.190979 83.792428 C 208.609116 76.728957 206.813627 68.626472 206.813627 59.484973 C 206.813627 50.079164 208.709372 41.794396 212.491746 34.621555 C 216.301464 27.430486 221.605903 21.861737 228.414177 17.915307 C 235.213338 13.950649 242.987713 11.972877 251.728189 11.972877 C 258.819002 11.972877 265.144227 13.267087 270.694748 15.864622 C 276.272611 18.462156 280.775004 21.82528 284.201927 25.953993 C 287.619736 30.064477 289.870932 34.430158 290.937289 39.060149 C 291.174257 40.044478 291.301855 40.83741 291.301855 41.420716 C 291.301855 42.158962 291.1378 42.660241 290.80969 42.897209 C 290.490695 43.143291 289.962074 43.298232 289.214713 43.380259 L 268.042528 46.615785 C 267.131113 46.615785 266.556921 46.45173 266.319953 46.132734 C 266.073871 45.786397 265.827788 45.121063 265.563478 44.136734 C 264.916373 40.327017 263.37608 37.21909 260.942601 34.803838 C 258.509121 32.370359 255.218911 31.149062 251.090198 31.149062 C 246.241467 31.149062 242.559348 33.236203 240.043841 37.401373 C 237.519219 41.548314 236.261466 48.657356 236.261466 58.728498 C 236.261466 69.273577 237.619475 76.619587 240.344608 80.7483 C 243.060626 84.877012 246.979713 86.936812 252.092755 86.936812 C 258.773431 86.936812 263.230254 84.047624 265.444994 78.269249 L 265.836902 77.148208 L 266.073871 76.182107 C 266.073871 75.434747 265.627277 75.07018 264.715861 75.07018 L 253.086198 75.07018 C 252.183897 75.07018 251.536791 74.869669 251.153997 74.459532 C 250.789431 74.040281 250.607148 73.338491 250.607148 72.345048 L 250.607148 60.451074 C 250.607148 59.056608 251.472992 58.363932 253.204682 58.363932 L 287.856704 58.6009 C 289.324083 58.6009 290.472467 58.956352 291.301855 59.658142 C 292.122129 60.369046 292.532266 61.289576 292.532266 62.43796 L 292.532266 102.886585 C 292.532266 103.469891 292.32264 103.971169 291.903389 104.399535 C 291.502366 104.800558 291.019316 105.001069 290.454238 105.001069 L 285.74222 105.001069 C 284.247498 105.001069 282.935059 104.217252 281.786676 102.640503 L 276.828575 95.48589 C 276.746547 95.22158 276.591607 95.093981 276.345525 95.093981 C 276.18147 95.093981 275.889817 95.303607 275.470566 95.722858 C 273.337853 97.782657 271.287168 99.514347 269.336738 100.917927 C 267.404537 102.312393 264.825231 103.551918 261.607934 104.636503 C 258.399751 105.702859 254.571805 106.240594 250.096755 106.240594 Z M 303.678879 16.046905 C 303.678879 14.15116 304.47181 13.203288 306.039445 13.203288 L 372.855324 13.203288 C 374.322703 13.203288 375.06095 14.069133 375.06095 15.800823 L 374.933352 30.155619 C 374.933352 32.388587 373.866996 33.500514 371.734283 33.500514 L 334.612325 33.500514 C 332.71658 33.500514 331.768708 34.284331 331.768708 35.833738 L 331.768708 46.34236 C 331.768708 47.171748 331.978334 47.809739 332.379357 48.274561 C 332.798608 48.739383 333.345457 48.967237 334.010791 48.967237 L 356.26756 48.967237 C 357.99925 48.967237 358.865094 49.787511 358.865094 51.418945 L 358.865094 66.75807 C 358.865094 68.170764 358.117734 68.872554 356.632126 68.872554 L 333.737366 68.872554 C 333.172288 68.872554 332.698352 69.045723 332.315558 69.392061 C 331.950991 69.711056 331.768708 70.112079 331.768708 70.59513 L 331.768708 82.981268 C 331.768708 83.646601 331.878078 84.102309 332.07859 84.339277 C 332.279101 84.585359 332.67101 84.703843 333.254316 84.703843 L 373.456859 84.703843 C 375.270576 84.703843 376.172877 85.487661 376.172877 87.055296 L 376.172877 102.285051 C 376.172877 103.105325 375.926795 103.770658 375.416402 104.271937 C 374.933352 104.754987 374.204219 105.001069 373.210776 105.001069 L 307.032888 105.001069 C 305.784249 105.001069 304.90929 104.754987 304.408011 104.271937 C 303.924961 103.770658 303.678879 102.986841 303.678879 101.920484 Z M 303.678879 16.046905 " stroke="#1976d2" stroke-width="4.6398" stroke-opacity="1" stroke-miterlimit="4"/><path stroke-linecap="butt" transform="matrix(0.428592, 0, 0, 0.428592, 211.154403, 126.716183)" fill="none" stroke-linejoin="miter" d="M 25.569518 139.042442 C 25.569518 138.222168 25.824714 137.547721 26.353335 137.0191 C 26.900184 136.481365 27.665774 136.20794 28.650102 136.20794 L 102.620594 136.20794 C 103.623151 136.20794 104.38874 136.481365 104.917361 137.0191 C 105.464211 137.547721 105.728521 138.222168 105.728521 139.042442 L 105.728521 153.75269 C 105.728521 155.32944 104.82622 156.113257 103.012503 156.113257 L 81.111185 156.113257 C 80.126856 156.113257 79.634692 156.523394 79.634692 157.352782 L 79.634692 225.280588 C 79.634692 226.192004 79.425066 226.875565 78.996701 227.331273 C 78.595678 227.777867 78.021486 227.996607 77.274126 227.996607 L 53.777831 227.996607 C 52.292223 227.996607 51.544863 227.176333 51.544863 225.52667 L 51.544863 157.863175 C 51.544863 156.696563 51.089155 156.113257 50.186853 156.113257 L 28.40402 156.113257 C 26.51739 156.113257 25.569518 155.32944 25.569518 153.75269 Z M 145.675868 191.239215 C 145.119904 191.239215 144.645968 191.430612 144.263173 191.813407 C 143.898607 192.177973 143.716324 192.606338 143.716324 193.116731 L 143.716324 224.405629 C 143.716324 225.736296 143.388214 226.675054 142.722881 227.212789 C 142.057548 227.74141 141.027648 227.996607 139.642296 227.996607 L 118.980504 227.996607 C 117.731865 227.996607 116.856906 227.759639 116.346513 227.276588 C 115.863463 226.77531 115.626495 225.982378 115.626495 224.916022 L 115.626495 139.042442 C 115.626495 138.140141 115.827006 137.447465 116.228029 136.964415 C 116.656394 136.454022 117.2397 136.20794 117.977947 136.20794 L 141.483356 136.20794 C 142.148689 136.20794 142.67731 136.435794 143.078333 136.900616 C 143.506698 137.347209 143.716324 137.976086 143.716324 138.805474 L 143.716324 167.496838 C 143.716324 169.1465 144.463685 169.975888 145.949292 169.975888 L 166.729568 169.975888 C 168.206062 169.975888 168.935194 169.1465 168.935194 167.496838 L 168.935194 138.805474 C 168.935194 137.976086 169.135706 137.347209 169.545843 136.900616 C 169.965094 136.435794 170.511943 136.20794 171.168162 136.20794 L 194.673571 136.20794 C 195.420932 136.20794 195.995124 136.454022 196.396147 136.964415 C 196.815398 137.447465 197.025023 138.140141 197.025023 139.042442 L 197.025023 224.916022 C 197.025023 225.982378 196.778941 226.77531 196.268548 227.276588 C 195.785498 227.759639 194.937882 227.996607 193.707471 227.996607 L 173.045679 227.996607 C 171.632984 227.996607 170.603085 227.74141 169.937751 227.212789 C 169.272418 226.675054 168.935194 225.736296 168.935194 224.405629 L 168.935194 193.116731 C 168.935194 192.606338 168.752911 192.177973 168.397459 191.813407 C 168.032893 191.430612 167.558957 191.239215 166.975651 191.239215 Z M 209.903326 139.042442 C 209.903326 137.155812 210.687144 136.20794 212.254778 136.20794 L 279.070657 136.20794 C 280.538036 136.20794 281.276283 137.073785 281.276283 138.805474 L 281.148685 153.151156 C 281.148685 155.384124 280.082329 156.505166 277.949616 156.505166 L 240.827658 156.505166 C 238.931913 156.505166 237.993155 157.279869 237.993155 158.829275 L 237.993155 169.337898 C 237.993155 170.167286 238.193667 170.814391 238.59469 171.279213 C 239.013941 171.734921 239.56079 171.971889 240.226124 171.971889 L 262.482893 171.971889 C 264.214583 171.971889 265.080428 172.783049 265.080428 174.414483 L 265.080428 189.762722 C 265.080428 191.166302 264.342181 191.877206 262.847459 191.877206 L 239.952699 191.877206 C 239.387621 191.877206 238.913685 192.050375 238.530891 192.387598 C 238.175439 192.706594 237.993155 193.116731 237.993155 193.599781 L 237.993155 205.976805 C 237.993155 206.642139 238.093411 207.097847 238.293923 207.343929 C 238.494434 207.580897 238.886343 207.699381 239.469649 207.699381 L 279.672192 207.699381 C 281.485909 207.699381 282.38821 208.483198 282.38821 210.059947 L 282.38821 225.280588 C 282.38821 226.109976 282.142128 226.77531 281.631735 227.276588 C 281.148685 227.759639 280.419552 227.996607 279.435223 227.996607 L 213.248221 227.996607 C 211.999582 227.996607 211.124623 227.759639 210.623344 227.276588 C 210.140294 226.77531 209.903326 225.982378 209.903326 224.916022 Z M 373.201662 224.041063 C 373.356603 224.369172 373.43863 224.815766 373.43863 225.399072 C 373.43863 226.146433 373.210776 226.77531 372.745954 227.276588 C 372.299361 227.759639 371.716055 227.996607 370.996036 227.996607 L 346.980235 227.996607 C 345.248545 227.996607 344.136618 227.130762 343.626225 225.399072 L 331.996562 193.472183 C 331.759594 192.80685 331.349457 192.314685 330.757037 191.99569 C 330.201073 191.676694 329.335229 191.512639 328.159502 191.512639 L 322.481383 191.512639 C 321.980104 191.512639 321.606424 191.676694 321.369456 191.99569 C 321.123374 192.314685 321.00489 192.606338 321.00489 192.870649 L 321.00489 224.405629 C 321.00489 225.736296 320.67678 226.675054 320.011447 227.212789 C 319.346113 227.74141 318.316214 227.996607 316.930862 227.996607 L 296.114129 227.996607 C 294.883718 227.996607 294.045216 227.759639 293.580394 227.276588 C 293.1338 226.77531 292.91506 225.982378 292.91506 224.916022 L 292.91506 139.042442 C 292.91506 137.155812 293.698878 136.20794 295.266513 136.20794 L 336.590097 136.20794 C 348.54787 136.20794 357.826081 138.495593 364.406501 143.061785 C 371.014265 147.637092 374.313589 154.089914 374.313589 162.420253 C 374.313589 168.125715 372.809753 173.2023 369.783854 177.650008 C 366.785296 182.097716 362.902666 185.232986 358.126848 187.037589 C 357.625569 187.301899 357.370373 187.712036 357.370373 188.277114 C 357.370373 188.523196 357.4524 188.896877 357.616455 189.398155 Z M 335.469056 173.056473 C 338.613439 173.056473 341.028691 172.263542 342.723924 170.668564 C 344.410043 169.055359 345.257659 166.88619 345.257659 164.142829 C 345.257659 161.107815 344.245988 158.738134 342.213531 157.052015 C 340.199303 155.356782 337.702024 154.509165 334.721695 154.509165 L 323.848507 154.509165 C 322.773036 154.509165 322.034789 154.700563 321.606424 155.083357 C 321.205401 155.447924 321.00489 156.085914 321.00489 156.988216 L 321.00489 170.458939 C 321.00489 171.36124 321.141602 172.026574 321.424141 172.454939 C 321.70668 172.855962 322.262643 173.056473 323.092032 173.056473 Z M 335.469056 173.056473 " stroke="#1976d2" stroke-width="4.6398" stroke-opacity="1" stroke-miterlimit="4"/><g fill="#1976d2" fill-opacity="1"><g transform="translate(242.622794, 124.38974)"><g><path d="M 19.515625 0.515625 C 15.953125 0.515625 12.804688 -0.304688 10.078125 -1.953125 C 7.359375 -3.597656 5.253906 -5.882812 3.765625 -8.8125 C 2.285156 -11.738281 1.546875 -15.097656 1.546875 -18.890625 C 1.546875 -22.796875 2.332031 -26.238281 3.90625 -29.21875 C 5.476562 -32.195312 7.675781 -34.503906 10.5 -36.140625 C 13.320312 -37.785156 16.546875 -38.609375 20.171875 -38.609375 C 23.117188 -38.609375 25.75 -38.066406 28.0625 -36.984375 C 30.375 -35.910156 32.238281 -34.515625 33.65625 -32.796875 C 35.070312 -31.085938 36.003906 -29.273438 36.453125 -27.359375 C 36.554688 -26.953125 36.609375 -26.628906 36.609375 -26.390625 C 36.609375 -26.078125 36.539062 -25.867188 36.40625 -25.765625 C 36.269531 -25.671875 36.046875 -25.601562 35.734375 -25.5625 L 26.953125 -24.234375 C 26.578125 -24.234375 26.335938 -24.300781 26.234375 -24.4375 C 26.128906 -24.570312 26.023438 -24.847656 25.921875 -25.265625 C 25.648438 -26.835938 25.007812 -28.128906 24 -29.140625 C 22.988281 -30.148438 21.628906 -30.65625 19.921875 -30.65625 C 17.898438 -30.65625 16.367188 -29.789062 15.328125 -28.0625 C 14.285156 -26.332031 13.765625 -23.378906 13.765625 -19.203125 C 13.765625 -14.816406 14.328125 -11.769531 15.453125 -10.0625 C 16.585938 -8.351562 18.210938 -7.5 20.328125 -7.5 C 23.097656 -7.5 24.945312 -8.695312 25.875 -11.09375 L 26.03125 -11.546875 L 26.140625 -11.96875 C 26.140625 -12.269531 25.945312 -12.421875 25.5625 -12.421875 L 20.75 -12.421875 C 20.363281 -12.421875 20.09375 -12.503906 19.9375 -12.671875 C 19.789062 -12.847656 19.71875 -13.144531 19.71875 -13.5625 L 19.71875 -18.484375 C 19.71875 -19.066406 20.078125 -19.359375 20.796875 -19.359375 L 35.171875 -19.25 C 35.785156 -19.25 36.265625 -19.101562 36.609375 -18.8125 C 36.953125 -18.519531 37.125 -18.132812 37.125 -17.65625 L 37.125 -0.875 C 37.125 -0.632812 37.035156 -0.425781 36.859375 -0.25 C 36.691406 -0.0820312 36.488281 0 36.25 0 L 34.296875 0 C 33.679688 0 33.132812 -0.320312 32.65625 -0.96875 L 30.59375 -3.953125 C 30.5625 -4.054688 30.492188 -4.109375 30.390625 -4.109375 C 30.328125 -4.109375 30.207031 -4.019531 30.03125 -3.84375 C 29.144531 -2.988281 28.296875 -2.269531 27.484375 -1.6875 C 26.679688 -1.113281 25.613281 -0.601562 24.28125 -0.15625 C 22.945312 0.289062 21.359375 0.515625 19.515625 0.515625 Z M 19.515625 0.515625 " fill="#1976d2"/></g></g></g><g fill="#1976d2" fill-opacity="1"><g transform="translate(281.690425, 124.38974)"><g><path d="M 2.671875 -36.921875 C 2.671875 -37.703125 2.992188 -38.09375 3.640625 -38.09375 L 31.375 -38.09375 C 31.988281 -38.09375 32.296875 -37.734375 32.296875 -37.015625 L 32.25 -31.0625 C 32.25 -30.132812 31.800781 -29.671875 30.90625 -29.671875 L 15.5 -29.671875 C 14.71875 -29.671875 14.328125 -29.347656 14.328125 -28.703125 L 14.328125 -24.34375 C 14.328125 -24 14.410156 -23.734375 14.578125 -23.546875 C 14.753906 -23.359375 14.976562 -23.265625 15.25 -23.265625 L 24.484375 -23.265625 C 25.203125 -23.265625 25.5625 -22.921875 25.5625 -22.234375 L 25.5625 -15.859375 C 25.5625 -15.285156 25.253906 -15 24.640625 -15 L 15.140625 -15 C 14.898438 -15 14.703125 -14.925781 14.546875 -14.78125 C 14.398438 -14.644531 14.328125 -14.476562 14.328125 -14.28125 L 14.328125 -9.140625 C 14.328125 -8.867188 14.367188 -8.679688 14.453125 -8.578125 C 14.535156 -8.472656 14.695312 -8.421875 14.9375 -8.421875 L 31.625 -8.421875 C 32.375 -8.421875 32.75 -8.09375 32.75 -7.4375 L 32.75 -1.125 C 32.75 -0.78125 32.644531 -0.503906 32.4375 -0.296875 C 32.238281 -0.0976562 31.9375 0 31.53125 0 L 4.0625 0 C 3.539062 0 3.175781 -0.0976562 2.96875 -0.296875 C 2.769531 -0.503906 2.671875 -0.832031 2.671875 -1.28125 Z M 2.671875 -36.921875 " fill="#1976d2"/></g></g></g><g fill="#1976d2" fill-opacity="1"><g transform="translate(316.137709, 124.38974)"><g><path d="M 1.4375 -36.921875 C 1.4375 -37.253906 1.546875 -37.53125 1.765625 -37.75 C 1.992188 -37.976562 2.3125 -38.09375 2.71875 -38.09375 L 33.421875 -38.09375 C 33.835938 -38.09375 34.15625 -37.976562 34.375 -37.75 C 34.59375 -37.53125 34.703125 -37.253906 34.703125 -36.921875 L 34.703125 -30.8125 C 34.703125 -30.15625 34.328125 -29.828125 33.578125 -29.828125 L 24.484375 -29.828125 C 24.078125 -29.828125 23.875 -29.65625 23.875 -29.3125 L 23.875 -1.125 C 23.875 -0.75 23.785156 -0.46875 23.609375 -0.28125 C 23.441406 -0.09375 23.207031 0 22.90625 0 L 13.140625 0 C 12.523438 0 12.21875 -0.34375 12.21875 -1.03125 L 12.21875 -29.109375 C 12.21875 -29.585938 12.03125 -29.828125 11.65625 -29.828125 L 2.625 -29.828125 C 1.832031 -29.828125 1.4375 -30.15625 1.4375 -30.8125 Z M 1.4375 -36.921875 " fill="#1976d2"/></g></g></g></svg>