<svg xmlns="http://www.w3.org/2000/svg" width="32" height="32" viewBox="0 0 32 32">
    <g fill="#FFF" fill-rule="evenodd">
        <path d="M15.616 6.214a7.286 7.286 0 0 0-10.461 0l5.229 5.347 5.232-5.347z" opacity=".4"/>
        <path d="M5.166 16.905l5.23-5.344-5.23-5.347c-2.888 2.952-2.888 7.738 0 10.69z" opacity=".7"/>
        <path d="M26.077 16.905c2.888-2.953 2.888-7.739 0-10.691l-5.23 5.347 5.23 5.344z" opacity=".6"/>
        <path d="M15.616 6.214l5.232 5.347 5.229-5.347a7.286 7.286 0 0 0-10.461 0z" opacity=".3"/>
        <path d="M20.848 11.56l-5.232-5.346-5.23 5.347 5.23 5.344z" opacity=".5"/>
        <path d="M10.387 11.56l-5.232 5.345 5.232 5.346 5.229-5.346z" opacity=".86"/>
        <path d="M15.612 16.9l5.231-5.345 5.231 5.346-5.23 5.345z" opacity=".79"/>
        <path d="M10.386 22.25l5.231-5.345 5.231 5.345-5.23 5.346z" opacity=".97"/>
    </g>
</svg>
