<svg xmlns="http://www.w3.org/2000/svg" xmlns:xlink="http://www.w3.org/1999/xlink" zoomAndPan="magnify" preserveAspectRatio="xMidYMid meet" version="1.0" viewBox="75.73 75.01 208.27 214.16"><defs><clipPath id="3a6efd0682"><path d="M 144.960938 75.007812 L 215 75.007812 L 215 146.335938 L 144.960938 146.335938 Z M 144.960938 75.007812 " clip-rule="nonzero"/></clipPath><clipPath id="eb91a8b5eb"><path d="M 214.191406 75.007812 L 284 75.007812 L 284 146.335938 L 214.191406 146.335938 Z M 214.191406 75.007812 " clip-rule="nonzero"/></clipPath><clipPath id="513a0fbd1e"><path d="M 144.960938 217.664062 L 215 217.664062 L 215 288.992188 L 144.960938 288.992188 Z M 144.960938 217.664062 " clip-rule="nonzero"/></clipPath><clipPath id="c44f890fa2"><path d="M 144.960938 146.335938 L 215 146.335938 L 215 217.664062 L 144.960938 217.664062 Z M 144.960938 146.335938 " clip-rule="nonzero"/></clipPath><clipPath id="50877a0cde"><path d="M 75.734375 75.007812 L 145.808594 75.007812 L 145.808594 146.335938 L 75.734375 146.335938 Z M 75.734375 75.007812 " clip-rule="nonzero"/></clipPath></defs><g clip-path="url(#3a6efd0682)"><path fill="#6aa4b0" d="M 144.960938 75.007812 L 214.476562 75.007812 L 214.476562 146.507812 L 144.960938 146.507812 Z M 144.960938 75.007812 " fill-opacity="1" fill-rule="nonzero"/></g><g clip-path="url(#eb91a8b5eb)"><path fill="#2b4560" d="M 214.191406 75.007812 L 283.707031 75.007812 L 283.707031 146.507812 L 214.191406 146.507812 Z M 214.191406 75.007812 " fill-opacity="1" fill-rule="nonzero"/></g><g clip-path="url(#513a0fbd1e)"><path fill="#6aa4b0" d="M 144.960938 217.664062 L 214.476562 217.664062 L 214.476562 289.167969 L 144.960938 289.167969 Z M 144.960938 217.664062 " fill-opacity="1" fill-rule="nonzero"/></g><g clip-path="url(#c44f890fa2)"><path fill="#e1e7e0" d="M 144.960938 146.335938 L 214.476562 146.335938 L 214.476562 217.835938 L 144.960938 217.835938 Z M 144.960938 146.335938 " fill-opacity="1" fill-rule="nonzero"/></g><g clip-path="url(#50877a0cde)"><path fill="#2f6d80" d="M 75.734375 75.007812 L 145.25 75.007812 L 145.25 146.507812 L 75.734375 146.507812 Z M 75.734375 75.007812 " fill-opacity="1" fill-rule="nonzero"/></g></svg>