<svg xmlns="http://www.w3.org/2000/svg" xmlns:xlink="http://www.w3.org/1999/xlink" zoomAndPan="magnify" preserveAspectRatio="xMidYMid meet" version="1.0" viewBox="75.33 80.05 297.73 145.98"><defs><g/><clipPath id="4ff2a9a5b1"><path d="M 122.367188 80.511719 L 169.984375 80.511719 L 169.984375 128.980469 L 122.367188 128.980469 Z M 122.367188 80.511719 " clip-rule="nonzero"/></clipPath><clipPath id="dd69e66fb8"><path d="M 169.410156 80.511719 L 217 80.511719 L 217 128.980469 L 169.410156 128.980469 Z M 169.410156 80.511719 " clip-rule="nonzero"/></clipPath><clipPath id="9727938ad3"><path d="M 122.367188 177.445312 L 169.984375 177.445312 L 169.984375 225.914062 L 122.367188 225.914062 Z M 122.367188 177.445312 " clip-rule="nonzero"/></clipPath><clipPath id="1f0da1b497"><path d="M 122.367188 128.980469 L 169.984375 128.980469 L 169.984375 177.445312 L 122.367188 177.445312 Z M 122.367188 128.980469 " clip-rule="nonzero"/></clipPath><clipPath id="216f272e7a"><path d="M 75.328125 80.511719 L 122.945312 80.511719 L 122.945312 128.980469 L 75.328125 128.980469 Z M 75.328125 80.511719 " clip-rule="nonzero"/></clipPath></defs><path stroke-linecap="butt" transform="matrix(0.596945, 0, 0, 0.596945, 221.393604, 145.791886)" fill="none" stroke-linejoin="miter" d="M 98.753018 5.00777 L 73.337161 5.00777 L 73.337161 45.428404 L 68.684568 45.428404 L 68.684568 5.367675 L 14.064034 5.367675 L 14.064034 24.423023 L 41.809459 24.423023 L 41.809459 54.969166 C 41.809459 60.223783 41.063474 65.471856 39.597678 70.988222 C 38.256213 76.478414 36.437055 80.744927 34.231817 84.056056 C 29.461436 91.987059 20.777904 99.204796 11.381104 103.713428 L 27.01408 117.285128 C 42.287152 109.465368 51.441833 101.89427 58.423995 90.41002 C 62.088486 84.533748 64.653629 79.043557 66.237212 73.167285 C 66.86541 70.837717 67.343103 68.272573 67.696464 65.70743 L 73.337161 65.70743 L 73.337161 117.167341 L 98.753018 117.167341 Z M 102.391333 117.167341 L 128.311056 117.167341 L 128.311056 5.00777 L 102.391333 5.00777 Z M 144.663843 103.471309 L 160.172489 116.925223 L 194.775745 116.925223 C 200.383724 116.925223 206.979806 116.297025 216.284993 114.091787 L 216.284993 94.912108 C 206.737688 97.241676 197.700794 97.981118 189.887577 97.981118 L 173.14871 97.981118 L 173.14871 24.423023 L 212.227879 24.423023 L 212.227879 5.367675 L 144.663843 5.367675 Z M 191.346829 49.092894 L 191.346829 68.782985 L 222.010759 68.782985 L 222.010759 117.167341 L 250.227333 117.167341 L 250.227333 5.00777 L 222.010759 5.00777 L 222.010759 49.092894 Z M 191.346829 49.092894 " stroke="#6aa4b0" stroke-width="4.581825" stroke-opacity="1" stroke-miterlimit="4"/><g fill="#2b4560" fill-opacity="1"><g transform="translate(225.407511, 133.689687)"><g><path d="M 2.859375 -30.46875 C 9.960938 -31.039062 14.207031 -33.566406 15.59375 -38.046875 L 3.578125 -38.046875 L 3.578125 -53.640625 L 35.046875 -53.640625 L 35.046875 -44.703125 L 37.1875 -44.703125 L 37.1875 -53.640625 L 51.484375 -53.640625 L 51.484375 -18.59375 L 37.1875 -18.59375 L 37.1875 -29.03125 L 32.609375 -29.03125 C 30.460938 -24.40625 26.957031 -20.898438 22.09375 -18.515625 C 17.226562 -16.140625 10.816406 -14.734375 2.859375 -14.296875 Z M 67.9375 10.734375 C 64.976562 10.734375 61.984375 10.597656 58.953125 10.328125 C 55.929688 10.066406 53 9.613281 50.15625 8.96875 C 47.320312 8.332031 44.664062 7.460938 42.1875 6.359375 C 39.707031 5.265625 37.5625 3.859375 35.75 2.140625 C 33.945312 3.859375 31.789062 5.265625 29.28125 6.359375 C 26.78125 7.460938 24.109375 8.332031 21.265625 8.96875 C 18.429688 9.613281 15.5 10.066406 12.46875 10.328125 C 9.445312 10.597656 6.484375 10.734375 3.578125 10.734375 L 3.578125 -5.71875 C 6.335938 -5.71875 9.066406 -5.882812 11.765625 -6.21875 C 14.460938 -6.550781 16.867188 -7.109375 18.984375 -7.890625 C 21.109375 -8.679688 22.828125 -9.742188 24.140625 -11.078125 C 25.453125 -12.421875 26.109375 -14.09375 26.109375 -16.09375 L 26.109375 -16.453125 L 45.40625 -16.453125 L 45.40625 -16.09375 C 45.40625 -14.09375 46.0625 -12.421875 47.375 -11.078125 C 48.6875 -9.742188 50.398438 -8.679688 52.515625 -7.890625 C 54.640625 -7.109375 57.050781 -6.550781 59.75 -6.21875 C 62.445312 -5.882812 65.175781 -5.71875 67.9375 -5.71875 Z M 53.640625 -53.640625 L 67.9375 -53.640625 L 67.9375 -13.59375 L 53.640625 -13.59375 Z M 53.640625 -53.640625 "/></g></g></g><g fill="#2b4560" fill-opacity="1"><g transform="translate(304.061408, 133.689687)"><g><path d="M 67.9375 -41.484375 L 22.734375 -41.484375 L 22.734375 -38.96875 L 67.9375 -38.96875 L 67.9375 -26.890625 L 22.734375 -26.890625 L 22.734375 -24.390625 L 67.9375 -24.390625 L 67.9375 -12.875 L 3.578125 -12.875 L 3.578125 -53.640625 L 67.9375 -53.640625 Z M 45.40625 3.5 L 45.40625 10.65625 L 26.109375 10.65625 L 26.109375 3.5 L 2.859375 3.5 L 2.859375 -10.734375 L 68.65625 -10.734375 L 68.65625 3.5 Z M 45.40625 3.5 "/></g></g></g><g clip-path="url(#4ff2a9a5b1)"><path fill="#6aa4b0" d="M 122.367188 80.511719 L 169.601562 80.511719 L 169.601562 129.097656 L 122.367188 129.097656 Z M 122.367188 80.511719 " fill-opacity="1" fill-rule="nonzero"/></g><g clip-path="url(#dd69e66fb8)"><path fill="#2b4560" d="M 169.410156 80.511719 L 216.640625 80.511719 L 216.640625 129.097656 L 169.410156 129.097656 Z M 169.410156 80.511719 " fill-opacity="1" fill-rule="nonzero"/></g><g clip-path="url(#9727938ad3)"><path fill="#6aa4b0" d="M 122.367188 177.445312 L 169.601562 177.445312 L 169.601562 226.03125 L 122.367188 226.03125 Z M 122.367188 177.445312 " fill-opacity="1" fill-rule="nonzero"/></g><g clip-path="url(#1f0da1b497)"><path fill="#e1e7e0" d="M 122.367188 128.980469 L 169.601562 128.980469 L 169.601562 177.5625 L 122.367188 177.5625 Z M 122.367188 128.980469 " fill-opacity="1" fill-rule="nonzero"/></g><g clip-path="url(#216f272e7a)"><path fill="#2f6d80" d="M 75.328125 80.511719 L 122.5625 80.511719 L 122.5625 129.097656 L 75.328125 129.097656 Z M 75.328125 80.511719 " fill-opacity="1" fill-rule="nonzero"/></g></svg>