<svg xmlns="http://www.w3.org/2000/svg" xmlns:xlink="http://www.w3.org/1999/xlink" zoomAndPan="magnify" preserveAspectRatio="xMidYMid meet" version="1.0" viewBox="90.06 92.9 269.24 244.67"><defs><g/></defs><path stroke-linecap="butt" transform="matrix(0.749136, 0, 0, 0.749136, 75.172814, 164.448334)" fill="none" stroke-linejoin="miter" d="M 22.973133 16.045709 C 22.973133 15.221843 23.23385 14.543979 23.760499 14.022545 C 24.30279 13.480253 25.069298 13.209107 26.054809 13.209107 L 100.025451 13.209107 C 101.031819 13.209107 101.798327 13.480253 102.319761 14.022545 C 102.867267 14.543979 103.138413 15.221843 103.138413 16.045709 L 103.138413 30.755365 C 103.138413 32.324882 102.231117 33.112247 100.421741 33.112247 L 78.521509 33.112247 C 77.535998 33.112247 77.040636 33.52418 77.040636 34.348046 L 77.040636 102.280482 C 77.040636 103.187777 76.826848 103.870856 76.404486 104.334932 C 76.002982 104.778151 75.429404 105.002368 74.683754 105.002368 L 51.182718 105.002368 C 49.696631 105.002368 48.95098 104.173287 48.95098 102.525556 L 48.95098 34.864266 C 48.95098 33.696253 48.497333 33.112247 47.590037 33.112247 L 25.814949 33.112247 C 23.922143 33.112247 22.973133 32.324882 22.973133 30.755365 Z M 154.984606 106.238166 C 145.984653 106.238166 138.121427 104.324503 131.394927 100.497177 C 124.668427 96.654208 119.495801 91.205221 115.871834 84.160646 C 112.247867 77.110857 110.433276 68.846127 110.433276 59.36124 C 110.433276 49.876354 112.268724 41.569908 115.929191 34.441904 C 119.615731 27.293043 124.809214 21.765841 131.514857 17.8603 C 138.241357 13.933901 146.068083 11.968094 154.984606 11.968094 C 163.807271 11.968094 171.550568 13.933901 178.214496 17.8603 C 184.899281 21.765841 190.077121 27.293043 193.737589 34.441904 C 197.424128 41.569908 199.26479 49.876354 199.26479 59.36124 C 199.26479 68.762697 197.444985 77.011785 193.800161 84.098074 C 190.176194 91.184364 185.019211 96.654208 178.334425 100.497177 C 171.670497 104.324503 163.885486 106.238166 154.984606 106.238166 Z M 154.984606 86.93989 C 158.608573 86.93989 161.492104 86.053452 163.624769 84.280576 C 165.778292 82.5077 167.353023 79.650241 168.338534 75.702985 C 169.324044 71.734872 169.819406 66.405815 169.819406 59.72103 C 169.819406 49.495707 168.661823 42.153915 166.341441 37.700867 C 164.047131 33.253034 160.261519 31.026511 154.984606 31.026511 C 149.60862 31.026511 145.744794 33.253034 143.387912 37.700867 C 141.051887 42.153915 139.883874 49.495707 139.883874 59.72103 C 139.883874 66.405815 140.379237 71.734872 141.364747 75.702985 C 142.350258 79.650241 143.930203 82.5077 146.104583 84.280576 C 148.299821 86.053452 151.261567 86.93989 154.984606 86.93989 Z M 250.099401 106.238166 C 241.52181 106.238166 233.950587 104.267146 227.385732 100.319889 C 220.836519 96.351776 215.773394 90.845432 212.191142 83.795642 C 208.603675 76.73021 206.815156 68.62191 206.815156 59.48117 C 206.815156 50.074499 208.707962 41.788911 212.493574 34.624406 C 216.300043 27.43383 221.603028 21.864914 228.412957 17.917657 C 235.217672 13.949544 242.98704 11.968094 251.726276 11.968094 C 258.81778 11.968094 265.137561 13.266465 270.696049 15.863207 C 276.275394 18.459949 280.77537 21.823199 284.201192 25.952957 C 287.6218 30.061858 289.869181 34.431476 290.932906 39.06181 C 291.17798 40.047321 291.29791 40.834686 291.29791 41.418693 C 291.29791 42.164343 291.136266 42.654491 290.812977 42.899565 C 290.489687 43.139425 289.957825 43.30107 289.212174 43.379285 L 268.041949 46.612176 C 267.134654 46.612176 266.561076 46.450532 266.316002 46.132457 C 266.076143 45.78831 265.825854 45.120875 265.565137 44.135364 C 264.918559 40.328895 263.380328 37.221148 260.940017 34.801694 C 258.504919 32.366597 255.219884 31.146441 251.095341 31.146441 C 246.240789 31.146441 242.55425 33.232177 240.040938 37.398436 C 237.522411 41.549051 236.265755 48.656198 236.265755 58.725091 C 236.265755 69.278917 237.621483 76.615495 240.343369 80.745253 C 243.060041 84.875011 246.976011 86.93989 252.09128 86.93989 C 258.776065 86.93989 263.229112 84.045931 265.439993 78.268441 L 265.836283 77.152572 L 266.076143 76.182705 C 266.076143 75.437054 265.622495 75.066836 264.7152 75.066836 L 253.087219 75.066836 C 252.179924 75.066836 251.53856 74.863476 251.152698 74.461972 C 250.792909 74.03961 250.610407 73.335674 250.610407 72.350164 L 250.610407 60.445823 C 250.610407 59.058808 251.475988 58.365301 253.207149 58.365301 L 287.856445 58.605161 C 289.321675 58.605161 290.474044 58.959736 291.29791 59.663672 C 292.121776 60.367608 292.533709 61.295761 292.533709 62.442916 L 292.533709 102.885345 C 292.533709 103.469351 292.325135 103.975142 291.902774 104.397504 C 291.50127 104.799008 291.016336 105.002368 290.453187 105.002368 L 285.739423 105.002368 C 284.248121 105.002368 282.928893 104.215002 281.781738 102.645485 L 276.828114 95.486195 C 276.749899 95.225478 276.588254 95.09512 276.348394 95.09512 C 276.18675 95.09512 275.894747 95.303693 275.472385 95.726055 C 273.334505 97.780505 271.290484 99.511666 269.34032 100.924753 C 267.4058 102.311768 264.829915 103.547566 261.607452 104.637364 C 258.405847 105.706304 254.568092 106.238166 250.099401 106.238166 Z M 303.68197 16.045709 C 303.68197 14.152903 304.469336 13.209107 306.038852 13.209107 L 372.850205 13.209107 C 374.320649 13.209107 375.055871 14.074688 375.055871 15.805849 L 374.935941 30.150502 C 374.935941 32.387454 373.867001 33.503323 371.734336 33.503323 L 334.613442 33.503323 C 332.720636 33.503323 331.771626 34.28026 331.771626 35.828919 L 331.771626 46.341031 C 331.771626 47.164896 331.974985 47.811475 332.376489 48.275551 C 332.798851 48.739627 333.341142 48.969058 334.008578 48.969058 L 356.2686 48.969058 C 357.999761 48.969058 358.865342 49.78771 358.865342 51.414584 L 358.865342 66.76039 C 358.865342 68.168262 358.119691 68.872198 356.633604 68.872198 L 333.737432 68.872198 C 333.174283 68.872198 332.699778 69.044272 332.319131 69.388418 C 331.954128 69.711707 331.771626 70.113212 331.771626 70.598145 L 331.771626 82.982205 C 331.771626 83.644427 331.875912 84.098074 332.074057 84.337934 C 332.277417 84.583008 332.668492 84.702938 333.252499 84.702938 L 373.455068 84.702938 C 375.269659 84.702938 376.176954 85.485089 376.176954 87.05982 L 376.176954 102.280482 C 376.176954 103.109562 375.921452 103.771783 375.420875 104.277574 C 374.935941 104.757294 374.200719 105.002368 373.215208 105.002368 L 307.034792 105.002368 C 305.788564 105.002368 304.912555 104.757294 304.406764 104.277574 C 303.92183 103.771783 303.68197 102.984418 303.68197 101.920692 Z M 303.68197 16.045709 " stroke="#6aa4b0" stroke-width="4.6398" stroke-opacity="1" stroke-miterlimit="4"/><path stroke-linecap="butt" transform="matrix(0.749136, 0, 0, 0.749136, 75.172814, 164.448334)" fill="none" stroke-linejoin="miter" d="M 25.569875 139.0468 C 25.569875 138.222935 25.830592 137.54507 26.352026 137.023636 C 26.894318 136.47613 27.660826 136.204985 28.646336 136.204985 L 102.622193 136.204985 C 103.628561 136.204985 104.395069 136.47613 104.916503 137.023636 C 105.458795 137.54507 105.72994 138.222935 105.72994 139.0468 L 105.72994 153.756457 C 105.72994 155.325973 104.827859 156.113339 103.013269 156.113339 L 81.113036 156.113339 C 80.127526 156.113339 79.632163 156.525272 79.632163 157.349138 L 79.632163 225.281573 C 79.632163 226.188868 79.42359 226.871947 79.001228 227.336023 C 78.599724 227.779242 78.020932 227.998245 77.280495 227.998245 L 53.77946 227.998245 C 52.288159 227.998245 51.542508 227.174379 51.542508 225.521433 L 51.542508 157.865357 C 51.542508 156.697345 51.08886 156.113339 50.186779 156.113339 L 28.406477 156.113339 C 26.513671 156.113339 25.569875 155.325973 25.569875 153.756457 Z M 145.677007 191.242355 C 145.113858 191.242355 144.644568 191.430071 144.258706 191.815932 C 143.898917 192.175722 143.716415 192.608512 143.716415 193.114303 L 143.716415 224.405564 C 143.716415 225.735221 143.382697 226.668588 142.720476 227.216094 C 142.05304 227.737528 141.025815 227.998245 139.6388 227.998245 L 118.979581 227.998245 C 117.728139 227.998245 116.85213 227.758385 116.351553 227.273451 C 115.866619 226.772875 115.62676 225.985509 115.62676 224.916569 L 115.62676 139.0468 C 115.62676 138.139505 115.824905 137.445998 116.231623 136.961064 C 116.653985 136.460487 117.237991 136.204985 117.983642 136.204985 L 141.479463 136.204985 C 142.146898 136.204985 142.678761 136.43963 143.080265 136.903706 C 143.502627 137.346925 143.716415 137.977861 143.716415 138.806941 L 143.716415 167.50146 C 143.716415 169.149191 144.462066 169.978272 145.953367 169.978272 L 166.732516 169.978272 C 168.202961 169.978272 168.938183 169.149191 168.938183 167.50146 L 168.938183 138.806941 C 168.938183 137.977861 169.136328 137.346925 169.543046 136.903706 C 169.965408 136.43963 170.507699 136.204985 171.175135 136.204985 L 194.670956 136.204985 C 195.416607 136.204985 195.990184 136.460487 196.391688 136.961064 C 196.819264 137.445998 197.027838 138.139505 197.027838 139.0468 L 197.027838 224.916569 C 197.027838 225.985509 196.77755 226.772875 196.271759 227.273451 C 195.792039 227.758385 194.931673 227.998245 193.706303 227.998245 L 173.047084 227.998245 C 171.633997 227.998245 170.596343 227.737528 169.934122 227.216094 C 169.271901 226.668588 168.938183 225.735221 168.938183 224.405564 L 168.938183 193.114303 C 168.938183 192.608512 168.755681 192.175722 168.395891 191.815932 C 168.030887 191.430071 167.556382 191.242355 166.972376 191.242355 Z M 209.896832 139.0468 C 209.896832 137.153995 210.684197 136.204985 212.253714 136.204985 L 279.07028 136.204985 C 280.540725 136.204985 281.275947 137.070565 281.275947 138.806941 L 281.150803 153.151593 C 281.150803 155.388545 280.087077 156.504414 277.949197 156.504414 L 240.828303 156.504414 C 238.935497 156.504414 237.991702 157.281351 237.991702 158.83001 L 237.991702 169.342122 C 237.991702 170.165988 238.189846 170.812566 238.591351 171.276643 C 239.018927 171.735505 239.561218 171.97015 240.22344 171.97015 L 262.488676 171.97015 C 264.219837 171.97015 265.085418 172.783587 265.085418 174.415676 L 265.085418 189.761482 C 265.085418 191.169354 264.339767 191.87329 262.848465 191.87329 L 239.952294 191.87329 C 239.389145 191.87329 238.91464 192.045363 238.533993 192.38951 C 238.168989 192.712799 237.991702 193.114303 237.991702 193.594022 L 237.991702 205.978082 C 237.991702 206.645518 238.090774 207.099166 238.294133 207.339025 C 238.492278 207.578885 238.883354 207.704029 239.46736 207.704029 L 279.675144 207.704029 C 281.48452 207.704029 282.391816 208.48618 282.391816 210.055697 L 282.391816 225.281573 C 282.391816 226.105439 282.141527 226.772875 281.635736 227.273451 C 281.150803 227.758385 280.41558 227.998245 279.43007 227.998245 L 213.249653 227.998245 C 212.003426 227.998245 211.127416 227.758385 210.621625 227.273451 C 210.141906 226.772875 209.896832 225.985509 209.896832 224.916569 Z M 373.199565 224.04056 C 373.36121 224.363849 373.439425 224.817497 373.439425 225.401503 C 373.439425 226.147154 373.209994 226.772875 372.745918 227.273451 C 372.302699 227.758385 371.718693 227.998245 370.993899 227.998245 L 346.981859 227.998245 C 345.250697 227.998245 344.129614 227.132664 343.629037 225.401503 L 332.001057 193.474093 C 331.755983 192.811871 331.34405 192.316509 330.760044 191.99322 C 330.196895 191.675145 329.331314 191.5135 328.163302 191.5135 L 322.484884 191.5135 C 321.984307 191.5135 321.608875 191.675145 321.369015 191.99322 C 321.123941 192.316509 321.004011 192.608512 321.004011 192.869229 L 321.004011 224.405564 C 321.004011 225.735221 320.670294 226.668588 320.008072 227.216094 C 319.345851 227.737528 318.318626 227.998245 316.926397 227.998245 L 296.115961 227.998245 C 294.885377 227.998245 294.040654 227.758385 293.576577 227.273451 C 293.133358 226.772875 292.914356 225.985509 292.914356 224.916569 L 292.914356 139.0468 C 292.914356 137.153995 293.701722 136.204985 295.271238 136.204985 L 336.589677 136.204985 C 348.551375 136.204985 357.827688 138.49408 364.408186 143.061843 C 371.014757 147.63482 374.315434 154.090174 374.315434 162.422691 C 374.315434 168.121966 372.80849 173.19552 369.784172 177.648567 C 366.785926 182.0964 362.901242 185.230219 358.124905 187.039596 C 357.624329 187.305527 357.37404 187.71746 357.37404 188.280609 C 357.37404 188.520469 357.452255 188.895901 357.6139 189.396478 Z M 335.473808 173.054733 C 338.612841 173.054733 341.032295 172.262153 342.721742 170.671779 C 344.416403 169.060548 345.261126 166.886167 345.261126 164.148638 C 345.261126 161.103463 344.24433 158.741367 342.210736 157.046706 C 340.198001 155.357259 337.700331 154.512536 334.717728 154.512536 L 323.845827 154.512536 C 322.776887 154.512536 322.031237 154.700252 321.608875 155.086114 C 321.207371 155.445903 321.004011 156.082053 321.004011 156.989348 L 321.004011 170.457991 C 321.004011 171.365286 321.144799 172.027508 321.426373 172.455084 C 321.707947 172.856588 322.265882 173.054733 323.089748 173.054733 Z M 335.473808 173.054733 " stroke="#6aa4b0" stroke-width="4.6398" stroke-opacity="1" stroke-miterlimit="4"/><g fill="#2b4560" fill-opacity="1"><g transform="translate(130.176462, 160.381923)"><g><path d="M 34.09375 0.890625 C 27.875 0.890625 22.382812 -0.539062 17.625 -3.40625 C 12.875 -6.28125 9.195312 -10.273438 6.59375 -15.390625 C 3.988281 -20.503906 2.6875 -26.378906 2.6875 -33.015625 C 2.6875 -39.835938 4.0625 -45.847656 6.8125 -51.046875 C 9.570312 -56.253906 13.414062 -60.296875 18.34375 -63.171875 C 23.28125 -66.046875 28.921875 -67.484375 35.265625 -67.484375 C 40.410156 -67.484375 45 -66.539062 49.03125 -64.65625 C 53.070312 -62.769531 56.332031 -60.332031 58.8125 -57.34375 C 61.300781 -54.351562 62.9375 -51.179688 63.71875 -47.828125 C 63.894531 -47.109375 63.984375 -46.539062 63.984375 -46.125 C 63.984375 -45.582031 63.863281 -45.222656 63.625 -45.046875 C 63.382812 -44.867188 62.992188 -44.75 62.453125 -44.6875 L 47.109375 -42.359375 C 46.453125 -42.359375 46.03125 -42.476562 45.84375 -42.71875 C 45.664062 -42.957031 45.488281 -43.4375 45.3125 -44.15625 C 44.832031 -46.90625 43.707031 -49.160156 41.9375 -50.921875 C 40.175781 -52.691406 37.800781 -53.578125 34.8125 -53.578125 C 31.28125 -53.578125 28.601562 -52.066406 26.78125 -49.046875 C 24.957031 -46.023438 24.046875 -40.863281 24.046875 -33.5625 C 24.046875 -25.90625 25.03125 -20.578125 27 -17.578125 C 28.976562 -14.585938 31.820312 -13.09375 35.53125 -13.09375 C 40.375 -13.09375 43.601562 -15.1875 45.21875 -19.375 L 45.5 -20.1875 L 45.671875 -20.90625 C 45.671875 -21.445312 45.34375 -21.71875 44.6875 -21.71875 L 36.25 -21.71875 C 35.59375 -21.71875 35.128906 -21.863281 34.859375 -22.15625 C 34.585938 -22.457031 34.453125 -22.96875 34.453125 -23.6875 L 34.453125 -32.296875 C 34.453125 -33.316406 35.082031 -33.828125 36.34375 -33.828125 L 61.46875 -33.65625 C 62.539062 -33.65625 63.375 -33.398438 63.96875 -32.890625 C 64.570312 -32.378906 64.875 -31.707031 64.875 -30.875 L 64.875 -1.53125 C 64.875 -1.101562 64.722656 -0.738281 64.421875 -0.4375 C 64.128906 -0.144531 63.773438 0 63.359375 0 L 59.9375 0 C 58.863281 0 57.910156 -0.566406 57.078125 -1.703125 L 53.484375 -6.90625 C 53.421875 -7.082031 53.300781 -7.171875 53.125 -7.171875 C 53 -7.171875 52.789062 -7.023438 52.5 -6.734375 C 50.9375 -5.234375 49.453125 -3.972656 48.046875 -2.953125 C 46.640625 -1.941406 44.769531 -1.046875 42.4375 -0.265625 C 40.101562 0.503906 37.320312 0.890625 34.09375 0.890625 Z M 34.09375 0.890625 "/></g></g></g><g fill="#2b4560" fill-opacity="1"><g transform="translate(198.462845, 160.381923)"><g><path d="M 4.671875 -64.515625 C 4.671875 -65.890625 5.238281 -66.578125 6.375 -66.578125 L 54.828125 -66.578125 C 55.898438 -66.578125 56.4375 -65.953125 56.4375 -64.703125 L 56.359375 -54.296875 C 56.359375 -52.671875 55.578125 -51.859375 54.015625 -51.859375 L 27.09375 -51.859375 C 25.71875 -51.859375 25.03125 -51.289062 25.03125 -50.15625 L 25.03125 -42.53125 C 25.03125 -41.9375 25.179688 -41.472656 25.484375 -41.140625 C 25.785156 -40.816406 26.175781 -40.65625 26.65625 -40.65625 L 42.796875 -40.65625 C 44.054688 -40.65625 44.6875 -40.054688 44.6875 -38.859375 L 44.6875 -27.734375 C 44.6875 -26.710938 44.148438 -26.203125 43.078125 -26.203125 L 26.46875 -26.203125 C 26.050781 -26.203125 25.707031 -26.082031 25.4375 -25.84375 C 25.164062 -25.601562 25.03125 -25.304688 25.03125 -24.953125 L 25.03125 -15.96875 C 25.03125 -15.488281 25.101562 -15.160156 25.25 -14.984375 C 25.40625 -14.804688 25.691406 -14.71875 26.109375 -14.71875 L 55.28125 -14.71875 C 56.59375 -14.71875 57.25 -14.148438 57.25 -13.015625 L 57.25 -1.96875 C 57.25 -1.375 57.066406 -0.894531 56.703125 -0.53125 C 56.347656 -0.175781 55.8125 0 55.09375 0 L 7.09375 0 C 6.195312 0 5.566406 -0.175781 5.203125 -0.53125 C 4.847656 -0.894531 4.671875 -1.46875 4.671875 -2.25 Z M 4.671875 -64.515625 "/></g></g></g><g fill="#2b4560" fill-opacity="1"><g transform="translate(258.673316, 160.381923)"><g><path d="M 2.515625 -64.515625 C 2.515625 -65.117188 2.707031 -65.613281 3.09375 -66 C 3.476562 -66.382812 4.03125 -66.578125 4.75 -66.578125 L 58.421875 -66.578125 C 59.140625 -66.578125 59.691406 -66.382812 60.078125 -66 C 60.460938 -65.613281 60.65625 -65.117188 60.65625 -64.515625 L 60.65625 -53.84375 C 60.65625 -52.707031 60 -52.140625 58.6875 -52.140625 L 42.796875 -52.140625 C 42.078125 -52.140625 41.71875 -51.835938 41.71875 -51.234375 L 41.71875 -1.96875 C 41.71875 -1.3125 41.566406 -0.816406 41.265625 -0.484375 C 40.972656 -0.160156 40.554688 0 40.015625 0 L 22.96875 0 C 21.894531 0 21.359375 -0.597656 21.359375 -1.796875 L 21.359375 -50.875 C 21.359375 -51.71875 21.03125 -52.140625 20.375 -52.140625 L 4.578125 -52.140625 C 3.203125 -52.140625 2.515625 -52.707031 2.515625 -53.84375 Z M 2.515625 -64.515625 "/></g></g></g></svg>